<?xml version="1.0" encoding="utf-8"?>
<!-- Generator: Adobe Illustrator 27.5.0, SVG Export Plug-In . SVG Version: 6.00 Build 0)  -->
<svg version="1.1" xmlns="http://www.w3.org/2000/svg" xmlns:xlink="http://www.w3.org/1999/xlink" x="0px" y="0px"
	 viewBox="0 0 1023.8 511.2" style="enable-background:new 0 0 1023.8 511.2;" xml:space="preserve">
<style type="text/css">
	.st0{fill:none;stroke:#000000;stroke-width:0.288;stroke-linecap:round;stroke-linejoin:round;stroke-miterlimit:10;}
	.st1{fill:#FFFFFF;}
	.st2{fill:none;stroke:#000000;stroke-width:0.288;stroke-linejoin:round;stroke-miterlimit:10;}
	.st3{fill:none;stroke:#000000;stroke-width:0.144;stroke-linecap:round;stroke-linejoin:round;stroke-miterlimit:10;}
	.st4{fill:#00E0E0;}
	.st5{fill:none;stroke:#000000;stroke-width:0.36;stroke-linecap:round;stroke-linejoin:round;stroke-miterlimit:10;}
	.st6{fill:none;stroke:#000000;stroke-width:0.36;stroke-linejoin:round;stroke-miterlimit:10;}
	
		.st7{fill:none;stroke:#000000;stroke-width:7.200000e-02;stroke-linecap:round;stroke-linejoin:round;stroke-miterlimit:10;stroke-dasharray:0.48,0.24;}
	.st8{fill:none;stroke:#000000;stroke-width:7.200000e-02;stroke-linecap:round;stroke-linejoin:round;stroke-miterlimit:10;}
	.st9{fill:none;stroke:#000000;stroke-width:1.44;stroke-linecap:round;stroke-linejoin:round;stroke-miterlimit:10;}
	.st10{fill:none;stroke:#000000;stroke-width:0.504;stroke-linecap:round;stroke-linejoin:round;stroke-miterlimit:10;}
	.st11{fill:none;}
	.st12{fill:none;stroke:#00FFFF;stroke-width:0.36;stroke-linecap:round;stroke-linejoin:round;stroke-miterlimit:10;}
	.st13{fill:none;stroke:#000000;stroke-width:0.144;stroke-linejoin:round;stroke-miterlimit:10;}
	.st14{fill:none;stroke:#715A3F;stroke-width:0.288;stroke-linecap:round;stroke-linejoin:round;stroke-miterlimit:10;}
	.st15{fill:#4D4D4D;}
	.st16{fill:none;stroke:#404040;stroke-width:0.288;stroke-linejoin:round;stroke-miterlimit:10;}
	.st17{fill:none;stroke:#B2B2B2;stroke-width:0.36;stroke-linecap:round;stroke-linejoin:round;stroke-miterlimit:10;}
</style>
<g id="Haus">
	<g id="Fenster">
		<line class="st0" x1="389.2" y1="465.9" x2="389.2" y2="449.8"/>
		<polyline class="st0" points="389.2,469.2 389.2,488.2 334.7,488.2 334.7,469.2 		"/>
		<rect x="334.7" y="465.9" class="st1" width="54.5" height="3.4"/>
		<rect x="334.7" y="465.9" class="st2" width="54.5" height="3.4"/>
		<line class="st0" x1="383.5" y1="469.3" x2="383.5" y2="465.9"/>
		<line class="st0" x1="340.5" y1="469.3" x2="340.5" y2="465.9"/>
		<line class="st0" x1="389.2" y1="465.9" x2="389.2" y2="469.3"/>
		<line class="st0" x1="340.5" y1="465.9" x2="340.5" y2="469.3"/>
		<line class="st0" x1="383.5" y1="465.9" x2="383.5" y2="469.3"/>
		<line class="st0" x1="334.8" y1="465.9" x2="334.8" y2="469.3"/>
		<line class="st0" x1="389.2" y1="449.9" x2="389.2" y2="458.3"/>
		<line class="st0" x1="334.8" y1="449.9" x2="334.8" y2="458.3"/>
		<line class="st0" x1="389.2" y1="449.9" x2="389.2" y2="458.3"/>
		<line class="st0" x1="334.8" y1="449.9" x2="334.8" y2="458.3"/>
		<path class="st3" d="M273.8,450.3"/>
		<path class="st3" d="M426,450.3"/>
		<polyline class="st0" points="389.2,449.1 334.7,449.1 334.7,465.4 		"/>
		<line class="st0" x1="389.2" y1="465.4" x2="389.2" y2="449.1"/>
		<rect x="334.7" y="465.4" class="st1" width="54.5" height="3.4"/>
		<polyline class="st2" points="334.7,468.8 334.7,465.4 389.2,465.4 389.2,468.8 		"/>
		<line class="st0" x1="383.5" y1="468.8" x2="383.5" y2="465.5"/>
		<line class="st0" x1="340.5" y1="468.8" x2="340.5" y2="465.5"/>
		<line class="st0" x1="389.2" y1="465.5" x2="389.2" y2="468.8"/>
		<line class="st0" x1="340.5" y1="465.5" x2="340.5" y2="468.8"/>
		<line class="st0" x1="383.5" y1="465.5" x2="383.5" y2="468.8"/>
		<line class="st0" x1="334.8" y1="465.5" x2="334.8" y2="468.8"/>
		<line class="st0" x1="389.2" y1="449.1" x2="389.2" y2="457.8"/>
		<line class="st0" x1="189" y1="466" x2="189" y2="449.9"/>
		<polyline class="st0" points="189,469.4 189,488.3 134.5,488.3 134.5,469.4 		"/>
		<rect x="134.5" y="466" class="st1" width="54.5" height="3.4"/>
		<rect x="134.5" y="466" class="st2" width="54.5" height="3.4"/>
		<line class="st0" x1="183.3" y1="469.4" x2="183.3" y2="466.1"/>
		<line class="st0" x1="140.4" y1="469.4" x2="140.4" y2="466.1"/>
		<line class="st0" x1="189.1" y1="466.1" x2="189.1" y2="469.4"/>
		<line class="st0" x1="140.4" y1="466.1" x2="140.4" y2="469.4"/>
		<line class="st0" x1="183.3" y1="466.1" x2="183.3" y2="469.4"/>
		<line class="st0" x1="134.6" y1="466.1" x2="134.6" y2="469.4"/>
		<line class="st0" x1="189.1" y1="450" x2="189.1" y2="458.4"/>
		<line class="st0" x1="134.6" y1="450" x2="134.6" y2="458.4"/>
		<line class="st0" x1="189.1" y1="450" x2="189.1" y2="458.4"/>
		<line class="st0" x1="134.6" y1="450" x2="134.6" y2="458.4"/>
		<polyline class="st0" points="189,449.2 134.5,449.2 134.5,465.5 		"/>
		<line class="st0" x1="189" y1="465.5" x2="189" y2="449.2"/>
		<rect x="134.5" y="465.5" class="st1" width="54.5" height="3.4"/>
		<polyline class="st2" points="134.5,468.9 134.5,465.5 189,465.5 189,468.9 		"/>
		<line class="st0" x1="183.3" y1="468.9" x2="183.3" y2="465.6"/>
		<line class="st0" x1="140.4" y1="468.9" x2="140.4" y2="465.6"/>
		<line class="st0" x1="189.1" y1="465.6" x2="189.1" y2="468.9"/>
		<line class="st0" x1="140.4" y1="465.6" x2="140.4" y2="468.9"/>
		<line class="st0" x1="183.3" y1="465.6" x2="183.3" y2="468.9"/>
		<line class="st0" x1="134.6" y1="465.6" x2="134.6" y2="468.9"/>
		<line class="st0" x1="189.1" y1="449.3" x2="189.1" y2="457.9"/>
	</g>
	<g id="Grundriss">
		<g id="Wände_00000010291635601980205050000002086067024065907895_">
			<rect x="929.2" y="21.4" class="st4" width="35.3" height="13.7"/>
			<rect x="929.2" y="35.1" class="st4" width="35.3" height="7.4"/>
			<rect x="929.2" y="42.5" class="st4" width="35.3" height="13.4"/>
			<rect x="708.1" y="21.4" class="st4" width="79.4" height="13.7"/>
			<polyline class="st4" points="708.1,35.1 708.1,42.5 787.6,42.5 787.6,35.1 			"/>
			<rect x="708.1" y="42.5" class="st4" width="79.4" height="13.4"/>
			<rect x="488.1" y="21.4" class="st4" width="78.7" height="13.7"/>
			<rect x="488.1" y="35.1" class="st4" width="78.7" height="7.4"/>
			<rect x="488.1" y="42.5" class="st4" width="78.7" height="13.4"/>
			<polygon class="st4" points="346.7,21.4 27,21.4 54.1,35.1 346.7,35.1 			"/>
			<rect x="54.1" y="33.3" class="st4" width="292.6" height="22.6"/>
			<polygon class="st4" points="739.1,250.1 752.8,236.4 752.8,56.7 739.1,56.7 			"/>
			<rect x="739.1" y="341.8" class="st4" width="13.7" height="108"/>
			<rect x="852.1" y="341.8" class="st4" width="13.7" height="108"/>
			<rect x="180.6" y="187.7" class="st4" width="13.7" height="44.6"/>
			<rect x="180.6" y="112.4" class="st4" width="13.7" height="25"/>
			<polygon class="st4" points="194.2,54.8 180.5,54.8 180.6,62.2 194.3,62.2 			"/>
			<rect x="52.3" y="120" class="st4" width="149.5" height="7"/>
			<polygon class="st4" points="994,320 982.7,320 982.7,470.2 994,482.9 			"/>
			<polyline class="st4" points="982.7,320 978.1,320 978.1,465.2 982.7,470.2 			"/>
			<polygon class="st4" points="978.1,320 964.5,320 964.5,449.8 978.1,465.2 			"/>
			<rect x="982.7" y="182" class="st4" width="11.3" height="80.6"/>
			<polyline class="st4" points="982.7,182 978.1,182 978.1,262.6 982.7,262.6 			"/>
			<rect x="964.5" y="182" class="st4" width="13.7" height="80.6"/>
			<rect x="982.7" y="20.9" class="st4" width="11.3" height="100.6"/>
			<rect x="978.1" y="20.9" class="st4" width="4.6" height="100.6"/>
			<rect x="964.5" y="20.9" class="st4" width="13.7" height="100.6"/>
			<polygon class="st4" points="54.1,35.1 27,21.4 27,138.5 54.1,138.5 			"/>
			<polygon class="st4" points="27.7,484.7 54.8,484.7 54.1,162.3 27,162.3 			"/>
			<rect x="54.1" y="162.3" class="st4" width="1.7" height="70.1"/>
			<polygon class="st4" points="54.1,471.4 27,484.8 134.5,484.8 134.5,471.4 			"/>
			<polygon class="st4" points="55.8,464 54.1,471.4 134.5,471.4 134.5,464 			"/>
			<polyline class="st4" points="134.5,464 134.5,450.3 52.1,450.3 52.1,470.7 			"/>
			<rect x="189" y="471.4" class="st4" width="145.7" height="13.4"/>
			<rect x="189" y="464" class="st4" width="145.7" height="7.4"/>
			<rect x="189" y="450.3" class="st4" width="145.7" height="13.7"/>
			<rect x="389.2" y="471.4" class="st4" width="161" height="13.4"/>
			<rect x="389.2" y="464" class="st4" width="161" height="7.4"/>
			<rect x="389.2" y="450.3" class="st4" width="161" height="13.7"/>
			<rect x="655.1" y="471.4" class="st4" width="138.7" height="13.4"/>
			<rect x="655.1" y="464" class="st4" width="138.7" height="7.4"/>
			<rect x="655.1" y="450.3" class="st4" width="138.7" height="13.7"/>
			<rect x="817.6" y="471.4" class="st4" width="85.9" height="13.4"/>
			<rect x="817.6" y="464" class="st4" width="85.9" height="7.4"/>
			<rect x="817.6" y="450.3" class="st4" width="85.9" height="13.7"/>
			<polygon class="st4" points="997.1,484.8 984.6,471.4 927.5,471.4 927.5,484.8 			"/>
			<polygon class="st4" points="984.6,471.4 977.7,464 927.5,464 927.5,471.4 			"/>
			<polygon class="st4" points="977.7,464 965.2,450.3 927.5,450.3 927.5,464 			"/>
			<rect x="513.3" y="223.5" class="st4" width="19" height="22.8"/>
			<rect x="830.1" y="236.4" class="st4" width="134.4" height="13.7"/>
			<polygon class="st4" points="779.9,236.4 752.8,236.4 739.1,250.1 779.9,250.1 			"/>
			<rect x="936.4" y="334.8" class="st4" width="29" height="13.7"/>
			<rect x="830.1" y="334.8" class="st4" width="56.2" height="13.7"/>
			<rect x="739.1" y="334.8" class="st4" width="40.8" height="13.7"/>
			<rect x="459.7" y="319.2" class="st4" width="10.1" height="130.3"/>
			<rect x="184" y="308" class="st4" width="7" height="4.6"/>
			<rect x="184" y="246" class="st4" width="7" height="11.5"/>
			<rect x="252.1" y="232.4" class="st4" width="261.1" height="13.7"/>
			<rect x="54.1" y="232.4" class="st4" width="147.8" height="13.7"/>
			<rect x="251.9" y="312.5" class="st4" width="8.2" height="7"/>
			<rect x="54.9" y="312.5" class="st4" width="146.9" height="7"/>
			<rect x="189" y="470.7" class="st4" width="145.7" height="13.7"/>
			<rect x="189" y="463.5" class="st4" width="145.7" height="7.2"/>
			<rect x="189" y="449.8" class="st4" width="145.7" height="13.7"/>
			<rect x="389.2" y="470.7" class="st4" width="161" height="13.7"/>
			<rect x="389.2" y="463.5" class="st4" width="161" height="7.2"/>
			<rect x="389.2" y="449.8" class="st4" width="161" height="13.7"/>
			<rect x="655.1" y="470.7" class="st4" width="138.7" height="13.7"/>
			<rect x="655.1" y="449.8" class="st4" width="138.7" height="13.7"/>
			<rect x="817.6" y="470.7" class="st4" width="85.9" height="13.7"/>
			<rect x="817.6" y="449.8" class="st4" width="85.9" height="13.7"/>
			<polygon class="st4" points="997.1,484.4 984.6,470.7 927.5,470.7 927.5,484.4 			"/>
			<polygon class="st4" points="977.7,463.5 965.2,449.8 927.5,449.8 927.5,463.5 			"/>
			<rect x="260.1" y="187.7" class="st4" width="13.7" height="44.6"/>
			<rect x="260.1" y="56" class="st4" width="13.7" height="81.4"/>
			<rect x="260.1" y="307.5" class="st4" width="13.7" height="142.8"/>
			<rect x="260.1" y="246" class="st4" width="13.7" height="11.3"/>
			<rect x="469.8" y="319.2" class="st4" width="2.2" height="7"/>
			<polygon class="st4" points="522.1,326.2 526.5,326.2 533.2,319.2 522.1,319.2 			"/>
			<polygon class="st4" points="526.5,392.9 533.2,386.2 533.2,319.2 526.5,326.2 			"/>
			<polygon class="st4" points="596.5,386.2 533.2,386.2 526.5,392.9 596.5,392.9 			"/>
		</g>
		<polyline class="st4" points="55.9,246.1 202,246.1 202,232.4 55.9,232.4 		"/>
		<rect x="184" y="246" class="st4" width="7" height="11.5"/>
		<polyline class="st4" points="191,257.6 191,246.1 191,257.6 184,257.6 184,246.1 184,257.6 		"/>
		<rect x="251.9" y="120" class="st4" width="8.2" height="7"/>
	</g>
	<g id="Layer_1_00000030474578884387068050000001592542650334625714_">
		<line class="st5" x1="161" y1="192.1" x2="89" y2="192.1"/>
		<line class="st5" x1="89" y1="226.2" x2="161" y2="226.2"/>
		<line class="st5" x1="87.1" y1="193.8" x2="87.1" y2="224.3"/>
		<path class="st5" d="M87.2,224.4L87.2,224.4c0,0.9,0.8,1.7,1.7,1.7"/>
		<path class="st5" d="M88.9,192.1L88.9,192.1c-0.9,0-1.7,0.8-1.7,1.7"/>
		<path class="st6" d="M134.1,209.1L134.1,209.1c0-0.8-0.7-1.4-1.6-1.4s-1.6,0.6-1.6,1.4s0.7,1.4,1.6,1.4S134.1,209.9,134.1,209.1"
			/>
		<path class="st6" d="M134.6,209.1L134.6,209.1c0-1.2-0.9-2.2-2-2.2s-2,1-2,2.2s0.9,2.2,2,2.2S134.6,210.3,134.6,209.1"/>
		<line class="st5" x1="105.8" y1="220.2" x2="105.8" y2="198.1"/>
		<path class="st5" d="M105.9,220.1L105.9,220.1c0,0.9,0.8,1.7,1.7,1.7"/>
		<path class="st5" d="M107.6,196.3L107.6,196.3c-0.9,0-1.7,0.8-1.7,1.7"/>
		<line class="st5" x1="158.4" y1="196.4" x2="107.5" y2="196.4"/>
		<line class="st5" x1="158.4" y1="221.9" x2="107.5" y2="221.9"/>
		<path class="st5" d="M158.3,221.8L158.3,221.8c7,0,12.8-5.7,12.8-12.8c0-7-5.7-12.8-12.8-12.8"/>
		<path class="st5" d="M160.9,226.1L160.9,226.1c9.4,0,17-7.6,17-17s-7.6-17-17-17"/>
		<path class="st5" d="M105.6,196.4L105.6,196.4c-5.5-1.8-11.1-3-16.8-3.7"/>
		<path class="st5" d="M88.8,225.4L88.8,225.4c5.7-0.6,11.4-1.9,16.8-3.7"/>
		<path class="st6" d="M134.1,225L134.1,225c0-0.3-0.8-0.5-1.7-0.5s-1.7,0.2-1.7,0.5s0.8,0.5,1.7,0.5
			C133.4,225.5,134.1,225.3,134.1,225"/>
		<path class="st5" d="M180.7,189.8L180.7,189.8c0-0.3-0.3-0.6-0.6-0.6H84.9c-0.3,0-0.6,0.3-0.6,0.6v41.4c0,0.3,0.3,0.6,0.6,0.6
			h95.2c0.3,0,0.6-0.3,0.6-0.6L180.7,189.8"/>
		<line class="st7" x1="84.9" y1="189.7" x2="84.9" y2="230"/>
		<line class="st8" x1="84.9" y1="229.5" x2="84.9" y2="230"/>
		<line class="st7" x1="180.2" y1="230" x2="84.9" y2="230"/>
		<line class="st8" x1="85.4" y1="230" x2="84.9" y2="230"/>
		<line class="st7" x1="180.2" y1="189.7" x2="180.2" y2="230"/>
		<line class="st8" x1="180.2" y1="229.5" x2="180.2" y2="230"/>
		<path class="st0" d="M929.2,39.6"/>
		<path class="st0" d="M929.2,43.7"/>
		<path class="st0" d="M929.2,47.6"/>
		<path class="st9" d="M929.2,35.1"/>
		<path class="st0" d="M929.2,42.6"/>
		<path class="st0" d="M929.2,35.1"/>
		<path class="st10" d="M929.2,42.6"/>
		<rect x="790.5" y="35.9" class="st1" width="135.8" height="5.8"/>
		<rect x="790.5" y="35.9" class="st0" width="135.8" height="5.8"/>
		<rect x="926.4" y="35.9" class="st1" width="2.9" height="5.8"/>
		<rect x="926.4" y="35.9" class="st0" width="2.9" height="5.8"/>
		<rect x="787.6" y="35.9" class="st1" width="2.9" height="5.8"/>
		<rect x="787.6" y="35.9" class="st0" width="2.9" height="5.8"/>
		<line class="st0" x1="929.2" y1="41.6" x2="926.4" y2="41.6"/>
		<line class="st0" x1="787.6" y1="41.6" x2="790.5" y2="41.6"/>
		<line class="st0" x1="929.2" y1="35.9" x2="926.4" y2="35.9"/>
		<line class="st0" x1="787.6" y1="35.9" x2="790.5" y2="35.9"/>
		<line class="st0" x1="926.4" y1="41.6" x2="926.4" y2="35.9"/>
		<line class="st0" x1="790.5" y1="41.6" x2="790.5" y2="35.9"/>
		<line class="st0" x1="923.5" y1="40.2" x2="859.9" y2="40.2"/>
		<line class="st0" x1="857" y1="37.3" x2="793.4" y2="37.3"/>
		<rect x="569.5" y="35.9" class="st1" width="135.8" height="5.8"/>
		<rect x="569.5" y="35.9" class="st0" width="135.8" height="5.8"/>
		<rect x="705.3" y="35.9" class="st1" width="2.9" height="5.8"/>
		<rect x="705.3" y="35.9" class="st0" width="2.9" height="5.8"/>
		<rect x="566.8" y="35.9" class="st1" width="2.6" height="5.8"/>
		<rect x="566.8" y="35.9" class="st0" width="2.6" height="5.8"/>
		<line class="st0" x1="708.2" y1="41.6" x2="705.3" y2="41.6"/>
		<line class="st0" x1="566.8" y1="41.6" x2="569.5" y2="41.6"/>
		<line class="st0" x1="708.2" y1="35.9" x2="705.3" y2="35.9"/>
		<line class="st0" x1="566.8" y1="35.9" x2="569.5" y2="35.9"/>
		<line class="st0" x1="705.3" y1="41.6" x2="705.3" y2="35.9"/>
		<line class="st0" x1="569.5" y1="41.6" x2="569.5" y2="35.9"/>
		<line class="st0" x1="702.7" y1="40.2" x2="638.8" y2="40.2"/>
		<line class="st0" x1="636.2" y1="37.3" x2="572.4" y2="37.3"/>
		<rect x="349.6" y="35.9" class="st1" width="135.6" height="5.8"/>
		<rect x="349.6" y="35.9" class="st0" width="135.6" height="5.8"/>
		<rect x="485.2" y="35.9" class="st1" width="2.9" height="5.8"/>
		<rect x="485.2" y="35.9" class="st0" width="2.9" height="5.8"/>
		<rect x="346.8" y="35.9" class="st1" width="2.9" height="5.8"/>
		<rect x="346.8" y="35.9" class="st0" width="2.9" height="5.8"/>
		<line class="st0" x1="488.1" y1="41.6" x2="485.2" y2="41.6"/>
		<line class="st0" x1="346.8" y1="41.6" x2="349.6" y2="41.6"/>
		<line class="st0" x1="488.1" y1="35.9" x2="485.2" y2="35.9"/>
		<line class="st0" x1="346.8" y1="35.9" x2="349.6" y2="35.9"/>
		<line class="st0" x1="485.2" y1="41.6" x2="485.2" y2="35.9"/>
		<line class="st0" x1="349.6" y1="41.6" x2="349.6" y2="35.9"/>
		<line class="st0" x1="482.6" y1="40.2" x2="418.8" y2="40.2"/>
		<line class="st0" x1="416.1" y1="37.3" x2="352.3" y2="37.3"/>
		<line class="st10" x1="180.7" y1="187.8" x2="180.7" y2="232.4"/>
		<line class="st0" x1="180.7" y1="187.8" x2="180.7" y2="232.4"/>
		<line class="st0" x1="179.5" y1="185.4" x2="195.6" y2="185.4"/>
		<line class="st0" x1="179.5" y1="139.8" x2="195.6" y2="139.8"/>
		<path class="st0" d="M179.6,139.8L179.6,139.8c-25.2,0-45.6,20.4-45.6,45.6"/>
		<line class="st0" x1="179.5" y1="185.4" x2="133.9" y2="185.4"/>
		<line class="st11" x1="996.1" y1="121.5" x2="964.5" y2="121.5"/>
		<line class="st11" x1="994" y1="121.5" x2="996.1" y2="121.5"/>
		<path class="st10" d="M994,121.5"/>
		<path class="st10" d="M996.2,121.5"/>
		<path class="st0" d="M982.8,121.5"/>
		<path class="st0" d="M994,121.5"/>
		<path class="st0" d="M978.2,121.5"/>
		<path class="st0" d="M982.8,121.5"/>
		<path class="st9" d="M964.5,121.5"/>
		<path class="st9" d="M978.2,121.5"/>
		<path class="st0" d="M996.2,121.5"/>
		<path class="st0" d="M964.5,121.5"/>
		<line class="st0" x1="963.3" y1="265.1" x2="997.4" y2="265.1"/>
		<line class="st0" x1="963.3" y1="317.6" x2="997.4" y2="317.6"/>
		<path class="st0" d="M1050.2,317.7L1050.2,317.7c0-29.1-23.6-52.7-52.7-52.7"/>
		<line class="st0" x1="997.4" y1="317.6" x2="1050.2" y2="317.6"/>
		<rect x="964.5" y="121.5" class="st1" width="14.2" height="60.5"/>
		<polyline class="st0" points="978.6,121.5 964.5,121.5 964.5,182 978.6,182 		"/>
		<rect x="982" y="121.5" class="st1" width="17" height="60.5"/>
		<polyline class="st0" points="982,121.5 999,121.5 999,182 982,182 		"/>
		<rect x="978.6" y="121.5" class="st1" width="3.4" height="60.5"/>
		<rect x="978.6" y="121.5" class="st2" width="3.4" height="60.5"/>
		<line class="st0" x1="982" y1="127.1" x2="978.7" y2="127.1"/>
		<line class="st0" x1="982" y1="176.5" x2="978.7" y2="176.5"/>
		<line class="st0" x1="978.7" y1="121.5" x2="982" y2="121.5"/>
		<line class="st0" x1="978.7" y1="176.5" x2="982" y2="176.5"/>
		<line class="st0" x1="978.7" y1="127.1" x2="982" y2="127.1"/>
		<line class="st0" x1="978.7" y1="182" x2="982" y2="182"/>
		<line class="st0" x1="982.8" y1="121.5" x2="994" y2="121.5"/>
		<line class="st0" x1="964.5" y1="182" x2="969.1" y2="182"/>
		<path class="st9" d="M54.2,162.3"/>
		<rect x="43.1" y="138.5" class="st1" width="12.7" height="23.8"/>
		<polyline class="st0" points="43.1,162.3 55.8,162.3 55.8,138.5 43.1,138.5 		"/>
		<rect x="24.1" y="138.5" class="st1" width="15.6" height="23.8"/>
		<polyline class="st0" points="39.7,162.3 24.1,162.3 24.1,138.5 39.7,138.5 		"/>
		<rect x="39.7" y="138.5" class="st1" width="3.4" height="23.8"/>
		<rect x="39.7" y="138.5" class="st2" width="3.4" height="23.8"/>
		<line class="st0" x1="39.8" y1="156.8" x2="43.2" y2="156.8"/>
		<line class="st0" x1="39.8" y1="144.3" x2="43.2" y2="144.3"/>
		<line class="st0" x1="43.2" y1="162.3" x2="39.8" y2="162.3"/>
		<line class="st0" x1="43.2" y1="144.3" x2="39.8" y2="144.3"/>
		<line class="st0" x1="43.2" y1="156.8" x2="39.8" y2="156.8"/>
		<line class="st0" x1="43.2" y1="138.6" x2="39.8" y2="138.6"/>
		<line class="st0" x1="55.9" y1="162.3" x2="54.2" y2="162.3"/>
		<line class="st0" x1="55.9" y1="138.6" x2="54.2" y2="138.6"/>
		<line class="st0" x1="55.9" y1="162.3" x2="54.2" y2="162.3"/>
		<line class="st0" x1="55.9" y1="138.6" x2="54.2" y2="138.6"/>
		<path class="st9" d="M27.1,162.3"/>
		<path class="st9" d="M54.2,162.3"/>
		<line class="st0" x1="389.2" y1="451.2" x2="390.1" y2="450.3"/>
		<path class="st0" d="M389.2,449.8"/>
		<path class="st0" d="M389.2,449.9"/>
		<path class="st0" d="M389.2,449.9"/>
		<path class="st0" d="M189.1,449.9"/>
		<path class="st0" d="M134.6,449.9"/>
		<path class="st0" d="M189.1,449.9"/>
		<path class="st0" d="M134.6,449.9"/>
		<rect x="793.8" y="449.8" class="st1" width="23.8" height="16.1"/>
		<polyline class="st0" points="817.6,465.9 817.6,449.8 793.8,449.8 793.8,465.9 		"/>
		<rect x="793.8" y="469.2" class="st1" width="23.8" height="19"/>
		<polyline class="st0" points="817.6,469.2 817.6,488.2 793.8,488.2 793.8,469.2 		"/>
		<rect x="793.8" y="465.9" class="st1" width="23.8" height="3.4"/>
		<rect x="793.8" y="465.9" class="st2" width="23.8" height="3.4"/>
		<line class="st0" x1="812.1" y1="469.3" x2="812.1" y2="465.9"/>
		<line class="st0" x1="799.6" y1="469.3" x2="799.6" y2="465.9"/>
		<line class="st0" x1="817.6" y1="465.9" x2="817.6" y2="469.3"/>
		<line class="st0" x1="799.6" y1="465.9" x2="799.6" y2="469.3"/>
		<line class="st0" x1="812.1" y1="465.9" x2="812.1" y2="469.3"/>
		<line class="st0" x1="793.9" y1="465.9" x2="793.9" y2="469.3"/>
		<line class="st0" x1="817.6" y1="449.9" x2="817.6" y2="458.3"/>
		<line class="st0" x1="793.9" y1="449.9" x2="793.9" y2="458.3"/>
		<line class="st0" x1="817.6" y1="449.9" x2="817.6" y2="458.3"/>
		<line class="st0" x1="793.9" y1="449.9" x2="793.9" y2="458.3"/>
		<rect x="903.5" y="449.8" class="st1" width="24" height="16.1"/>
		<polyline class="st0" points="927.5,465.9 927.5,449.8 903.5,449.8 903.5,465.9 		"/>
		<polyline class="st0" points="927.5,469.2 927.5,488.2 903.5,488.2 903.5,469.2 		"/>
		<rect x="903.5" y="465.9" class="st1" width="24" height="3.4"/>
		<line class="st0" x1="910" y1="469" x2="910.9" y2="469"/>
		<line class="st0" x1="908.8" y1="466.4" x2="909.7" y2="466.6"/>
		<line class="st0" x1="925.3" y1="467.1" x2="926.3" y2="467.1"/>
		<line class="st0" x1="908.8" y1="469" x2="910" y2="469"/>
		<line class="st0" x1="907.6" y1="466.4" x2="908.8" y2="466.4"/>
		<line class="st0" x1="924.1" y1="467.1" x2="925.3" y2="467.1"/>
		<line class="st0" x1="906.9" y1="469.2" x2="908.8" y2="469"/>
		<line class="st0" x1="922.2" y1="467.3" x2="924.1" y2="467.1"/>
		<line class="st0" x1="905.7" y1="466.6" x2="907.6" y2="466.4"/>
		<line class="st0" x1="905.4" y1="468.8" x2="906.9" y2="469.2"/>
		<line class="st0" x1="904" y1="466.1" x2="905.7" y2="466.6"/>
		<line class="st0" x1="920.5" y1="466.8" x2="922.2" y2="467.3"/>
		<line class="st0" x1="903.5" y1="469" x2="905.4" y2="468.8"/>
		<line class="st0" x1="918.6" y1="467.1" x2="920.5" y2="466.8"/>
		<line class="st0" x1="903.5" y1="466.4" x2="904" y2="466.1"/>
		<line class="st0" x1="917.9" y1="469.2" x2="918.1" y2="469.2"/>
		<line class="st0" x1="916.7" y1="466.8" x2="918.6" y2="467.1"/>
		<line class="st0" x1="916.9" y1="468.5" x2="917.9" y2="469.2"/>
		<line class="st0" x1="915.5" y1="466.1" x2="916.7" y2="466.8"/>
		<line class="st0" x1="913.8" y1="467.6" x2="916.9" y2="468.5"/>
		<line class="st0" x1="915" y1="465.9" x2="915.5" y2="466.1"/>
		<line class="st0" x1="911.9" y1="467.8" x2="913.8" y2="467.6"/>
		<line class="st0" x1="927.3" y1="466.1" x2="927.5" y2="466.1"/>
		<line class="st0" x1="926.3" y1="467.1" x2="927.3" y2="466.1"/>
		<line class="st0" x1="910.9" y1="469" x2="911.9" y2="467.8"/>
		<line class="st0" x1="909.7" y1="466.6" x2="910.2" y2="465.9"/>
		<rect x="903.5" y="465.9" class="st2" width="24" height="3.4"/>
		<line class="st0" x1="921.8" y1="469.3" x2="921.8" y2="465.9"/>
		<line class="st0" x1="909.3" y1="469.3" x2="909.3" y2="465.9"/>
		<line class="st0" x1="927.6" y1="465.9" x2="927.6" y2="469.3"/>
		<line class="st0" x1="909.3" y1="465.9" x2="909.3" y2="469.3"/>
		<line class="st0" x1="921.8" y1="465.9" x2="921.8" y2="469.3"/>
		<line class="st0" x1="903.6" y1="465.9" x2="903.6" y2="469.3"/>
		<line class="st0" x1="927.6" y1="449.9" x2="927.6" y2="458.3"/>
		<line class="st0" x1="903.6" y1="449.9" x2="903.6" y2="458.3"/>
		<line class="st0" x1="927.6" y1="449.9" x2="927.6" y2="458.3"/>
		<line class="st0" x1="903.6" y1="449.9" x2="903.6" y2="458.3"/>
		<rect x="550.2" y="449.8" class="st1" width="104.9" height="16.1"/>
		<polyline class="st0" points="655.1,465.9 655.1,449.8 550.2,449.8 550.2,465.9 		"/>
		<polyline class="st0" points="655.1,469.2 655.1,488.2 550.2,488.2 550.2,469.2 		"/>
		<rect x="550.2" y="465.9" class="st1" width="104.9" height="3.4"/>
		<rect x="550.2" y="465.9" class="st2" width="104.9" height="3.4"/>
		<line class="st0" x1="649.4" y1="469.3" x2="649.4" y2="465.9"/>
		<line class="st0" x1="556" y1="469.3" x2="556" y2="465.9"/>
		<line class="st0" x1="655.2" y1="465.9" x2="655.2" y2="469.3"/>
		<line class="st0" x1="606" y1="465.9" x2="606" y2="469.3"/>
		<line class="st0" x1="649.4" y1="465.9" x2="649.4" y2="469.3"/>
		<line class="st0" x1="599.7" y1="465.9" x2="599.7" y2="469.3"/>
		<line class="st0" x1="606" y1="465.9" x2="606" y2="469.3"/>
		<line class="st0" x1="556" y1="465.9" x2="556" y2="469.3"/>
		<line class="st0" x1="599.7" y1="465.9" x2="599.7" y2="469.3"/>
		<line class="st0" x1="550.3" y1="465.9" x2="550.3" y2="469.3"/>
		<line class="st0" x1="655.2" y1="449.9" x2="655.2" y2="458.3"/>
		<line class="st0" x1="550.3" y1="449.9" x2="550.3" y2="458.3"/>
		<line class="st0" x1="655.2" y1="449.9" x2="655.2" y2="458.3"/>
		<line class="st0" x1="550.3" y1="449.9" x2="550.3" y2="458.3"/>
		<line class="st0" x1="204.2" y1="118.9" x2="204.2" y2="128"/>
		<line class="st0" x1="249.8" y1="118.9" x2="249.8" y2="128"/>
		<path class="st0" d="M249.7,73.4L249.7,73.4c-25.2,0-45.6,20.4-45.6,45.6"/>
		<line class="st0" x1="249.8" y1="118.9" x2="249.8" y2="73.3"/>
		<line class="st0" x1="782.1" y1="251.4" x2="782.1" y2="235.3"/>
		<line class="st0" x1="827.7" y1="251.4" x2="827.7" y2="235.3"/>
		<path class="st0" d="M782.2,251.3L782.2,251.3c0,25.2,20.4,45.6,45.6,45.6"/>
		<line class="st0" x1="827.7" y1="251.4" x2="827.7" y2="297"/>
		<line class="st12" x1="853.4" y1="375.9" x2="852.2" y2="375.9"/>
		<rect x="870.7" y="412.7" class="st13" width="34.1" height="34.1"/>
		<path class="st13" d="M895.6,429.6L895.6,429.6c0-4.3-3.5-7.8-7.9-7.8s-7.9,3.5-7.9,7.8s3.5,7.8,7.9,7.8S895.6,433.9,895.6,429.6"
			/>
		<path class="st13" d="M892.3,429.6L892.3,429.6c0-2.5-2-4.4-4.4-4.4s-4.4,2-4.4,4.4s2,4.4,4.4,4.4S892.3,432,892.3,429.6"/>
		<rect x="835.6" y="123.2" class="st3" width="97.4" height="113.3"/>
		<rect x="835.6" y="123.2" class="st3" width="97.4" height="78.5"/>
		<line class="st3" x1="872.4" y1="201.7" x2="835.6" y2="193.3"/>
		<path class="st3" d="M847.9,229.1L847.9,229.1c0.5-1.2,0.8-2.4,1.1-3.7c0.2-1.3,0.4-2.6,0.4-3.8c0-1.3-0.1-2.6-0.4-3.8
			c-0.2-1.3-0.6-2.5-1.1-3.7c0.1-0.6,0.3-1.1,0.6-1.6s0.7-0.9,1.1-1.3c0.5-0.3,1-0.6,1.5-0.8s1.1-0.2,1.7-0.1c1.7,0.5,3.4,0.8,5.1,1
			c1.7,0.2,3.4,0.3,5.2,0.3c1.7,0,3.5-0.1,5.2-0.3s3.4-0.6,5.1-1h0.7l0.7,0.2l0.7,0.2l0.6,0.4l0.6,0.4l0.4,0.6l0.4,0.6l0.2,0.7
			c-0.4,1.3-0.6,2.6-0.8,4c-0.2,1.3-0.3,2.7-0.3,4.1s0.1,2.7,0.3,4.1c0.2,1.3,0.4,2.7,0.8,4c-0.2,0.5-0.4,1-0.7,1.4
			s-0.7,0.8-1.2,1.1s-0.9,0.5-1.5,0.6c-0.5,0.1-1.1,0.2-1.6,0.1c-1.7-0.6-3.5-1-5.3-1.4c-1.8-0.3-3.6-0.5-5.5-0.5
			c-1.8,0-3.7,0.1-5.5,0.4c-1.8,0.3-3.6,0.7-5.3,1.3l-2.4-0.8L847.9,229.1"/>
		<path class="st3" d="M920.8,229.1L920.8,229.1c-0.5-1.2-0.8-2.4-1.1-3.7c-0.2-1.3-0.4-2.6-0.4-3.8c0-1.3,0.1-2.6,0.4-3.8
			c0.2-1.3,0.6-2.5,1.1-3.7c-0.1-0.6-0.3-1.1-0.6-1.6s-0.7-0.9-1.1-1.3s-1-0.6-1.5-0.8c-0.6-0.2-1.1-0.2-1.7-0.1
			c-1.7,0.5-3.4,0.8-5.1,1c-1.7,0.2-3.4,0.3-5.2,0.3c-1.7,0-3.5-0.1-5.2-0.3s-3.4-0.6-5.1-1h-0.7l-0.7,0.2l-0.7,0.2l-0.6,0.4
			l-0.6,0.4l-0.4,0.6l-0.4,0.6l-0.2,0.7c0.4,1.3,0.6,2.6,0.8,4c0.2,1.3,0.3,2.7,0.3,4.1s-0.1,2.7-0.3,4.1c-0.2,1.3-0.4,2.7-0.8,4
			c0.2,0.5,0.4,1,0.7,1.4s0.7,0.8,1.2,1.1s0.9,0.5,1.5,0.6c0.5,0.1,1.1,0.2,1.6,0.1c1.7-0.6,3.5-1,5.3-1.4c1.8-0.3,3.6-0.5,5.5-0.5
			c1.8,0,3.7,0.1,5.5,0.4c1.8,0.3,3.6,0.7,5.3,1.3l2.4-0.8L920.8,229.1"/>
		<polyline class="st3" points="107,325.3 107,332 62.6,332 62.6,431.9 107,431.9 		"/>
		<line class="st3" x1="107" y1="381.9" x2="62.6" y2="381.9"/>
		<path class="st3" d="M62.7,340.3c0-1.5,0.1-2.9,0.3-4.2c0.2-1.3,0.4-2.3,0.7-3s0.5-1.1,0.7-1.1c0.2,0,1.6,0,4.2,0s4.1,0,4.2,0
			c0.2,0,0.4,0.4,0.7,1.1c0.3,0.7,0.5,1.8,0.7,3c0.2,1.3,0.3,2.3,0.3,3s0,6.7,0,17.7c0,11.1,0,17,0,17.7s-0.1,1.8-0.3,3
			c-0.2,1.3-0.4,2.3-0.7,3c-0.3,0.7-0.5,1.1-0.7,1.1s-1.6,0-4.2,0s-4.1,0-4.2,0c-0.2,0-0.4-0.4-0.7-1.1s-0.5-1.8-0.7-3
			c-0.2-1.3-0.3-2.3-0.3-3C62.7,373.9,62.7,362.5,62.7,340.3"/>
		<path class="st3" d="M62.7,390.2c0-1.5,0.1-2.9,0.3-4.2c0.2-1.3,0.4-2.3,0.7-3s0.5-1.1,0.7-1.1c0.2,0,1.6,0,4.2,0s4.1,0,4.2,0
			c0.2,0,0.4,0.4,0.7,1.1c0.3,0.7,0.5,1.8,0.7,3c0.2,1.3,0.3,2.3,0.3,3s0,6.7,0,17.7c0,11.1,0,17,0,17.7s-0.1,1.8-0.3,3
			c-0.2,1.3-0.4,2.3-0.7,3c-0.3,0.7-0.5,1.1-0.7,1.1s-1.6,0-4.2,0s-4.1,0-4.2,0c-0.2,0-0.4-0.4-0.7-1.1s-0.5-1.8-0.7-3
			c-0.2-1.3-0.3-2.3-0.3-3C62.7,423.8,62.7,412.4,62.7,390.2"/>
		<rect x="55.9" y="325.3" class="st3" width="51.1" height="113.3"/>
		<path class="st13" d="M386.1,432.7v7.7c0,2.1-1.7,3.7-3.7,3.7H367c-2.1,0-3.7-1.7-3.7-3.7V425c0-2.1,1.7-3.7,3.7-3.7h15.4
			c2.1,0,3.7,1.7,3.7,3.7V432.7"/>
		<line class="st3" x1="359.5" y1="425.1" x2="348.2" y2="425.1"/>
		<line class="st3" x1="359.5" y1="429" x2="348.2" y2="429"/>
		<line class="st3" x1="359.5" y1="432.6" x2="348.2" y2="432.6"/>
		<line class="st3" x1="359.5" y1="436.4" x2="348.2" y2="436.4"/>
		<line class="st3" x1="359.5" y1="440" x2="348.2" y2="440"/>
		<rect x="345.1" y="418.4" class="st3" width="44.4" height="28.3"/>
		<rect x="389.5" y="416.3" class="st13" width="34.1" height="34.1"/>
		<path class="st13" d="M414.2,433.3L414.2,433.3c0-4.4-3.5-7.9-7.8-7.9s-7.8,3.5-7.8,7.9s3.5,7.9,7.8,7.9
			C410.7,441.2,414.2,437.7,414.2,433.3"/>
		<path class="st13" d="M410.8,433.4L410.8,433.4c0-2.5-2-4.4-4.4-4.4s-4.4,2-4.4,4.4s2,4.4,4.4,4.4S410.8,435.9,410.8,433.4"/>
		<line class="st3" x1="389.5" y1="450.3" x2="401" y2="438.8"/>
		<line class="st3" x1="389.5" y1="416.3" x2="401" y2="427.8"/>
		<line class="st3" x1="423.6" y1="450.3" x2="412" y2="438.8"/>
		<line class="st3" x1="423.6" y1="416.3" x2="412" y2="427.8"/>
		<polyline class="st3" points="505.9,173.4 498.9,173.4 499.2,217.8 349.4,218.3 349.4,173.9 		"/>
		<line class="st3" x1="399.1" y1="173.9" x2="399.3" y2="218"/>
		<path class="st3" d="M407.7,218c-1.5,0-2.9-0.1-4.2-0.3c-1.3-0.2-2.3-0.4-3-0.7s-1.1-0.5-1.1-0.7s0-1.6,0-4.2c0-2.6,0-4.1,0-4.2
			c0-0.2,0.4-0.4,1.1-0.7s1.8-0.6,3-0.7c1.3-0.2,2.3-0.3,3-0.3s6.7,0,17.7-0.1c11.1,0,17-0.1,17.7-0.1s1.8,0.1,3,0.3
			c1.3,0.2,2.3,0.4,3,0.7s1.1,0.5,1.1,0.7s0,1.6,0,4.2c0,2.6,0,4.1,0,4.2c0,0.2-0.4,0.4-1.1,0.7s-1.8,0.6-3,0.7
			c-1.3,0.2-2.3,0.3-3,0.3C441.3,217.9,429.8,217.9,407.7,218"/>
		<path class="st3" d="M357.8,218.2c-1.5,0-2.9-0.1-4.2-0.3c-1.3-0.2-2.3-0.4-3-0.7s-1.1-0.5-1.1-0.7s0-1.6,0-4.2c0-2.6,0-4.1,0-4.2
			c0-0.2,0.4-0.4,1.1-0.7s1.8-0.6,3-0.7c1.3-0.2,2.3-0.3,3-0.3s6.7,0,17.7-0.1c11.1,0,17-0.1,17.7-0.1s1.8,0.1,3,0.3
			c1.3,0.2,2.3,0.4,3,0.7s1.1,0.5,1.1,0.7s0,1.6,0,4.2c0,2.6,0,4.1,0,4.2c0,0.2-0.4,0.4-1.1,0.7s-1.8,0.6-3,0.7
			c-1.3,0.2-2.3,0.3-3,0.3C391.4,218.1,380,218.1,357.8,218.2"/>
		<polygon class="st13" points="505.9,224.5 342.7,225 342.4,174.1 505.9,173.4 		"/>
		<line class="st3" x1="449" y1="173.6" x2="449.2" y2="217.8"/>
		<path class="st3" d="M457.6,217.8c-1.5,0-2.9-0.1-4.2-0.3c-1.3-0.2-2.3-0.4-3-0.7s-1.1-0.5-1.1-0.7s0-1.6,0-4.2c0-2.6,0-4.1,0-4.2
			c0-0.2,0.4-0.4,1.1-0.7s1.8-0.6,3-0.7c1.3-0.2,2.3-0.3,3-0.3s6.7,0,17.7-0.1c11.1,0,17-0.1,17.7-0.1s1.8,0.1,3,0.3
			c1.3,0.2,2.3,0.4,3,0.7s1.1,0.5,1.1,0.7s0,1.6,0,4.2c0,2.6,0,4.1,0,4.2c0,0.2-0.4,0.4-1.1,0.7s-1.8,0.6-3,0.7
			c-1.3,0.2-2.3,0.3-3,0.3C491.2,217.7,479.7,217.8,457.6,217.8"/>
		<line class="st3" x1="498.9" y1="173.4" x2="499.2" y2="217.8"/>
		<line class="st3" x1="273.8" y1="246.1" x2="500.6" y2="246.1"/>
		<line class="st3" x1="500.6" y1="246.1" x2="500.6" y2="257.4"/>
		<line class="st3" x1="500.6" y1="257.4" x2="273.8" y2="257.4"/>
		<line class="st3" x1="273.8" y1="246.1" x2="273.8" y2="257.4"/>
		<line class="st3" x1="273.8" y1="246.1" x2="500.6" y2="246.1"/>
		<line class="st3" x1="500.6" y1="246.1" x2="500.6" y2="257.4"/>
		<line class="st3" x1="500.6" y1="257.4" x2="273.8" y2="257.4"/>
		<line class="st3" x1="500.6" y1="246.3" x2="501.6" y2="246.3"/>
		<line class="st3" x1="501.6" y1="246.3" x2="501.6" y2="257.6"/>
		<line class="st3" x1="501.6" y1="257.6" x2="500.6" y2="257.6"/>
		<line class="st3" x1="500.6" y1="246.3" x2="500.6" y2="257.6"/>
		<line class="st3" x1="500.6" y1="246.3" x2="501.6" y2="246.3"/>
		<line class="st3" x1="501.6" y1="246.3" x2="501.6" y2="257.6"/>
		<line class="st3" x1="501.6" y1="257.6" x2="500.6" y2="257.6"/>
		<line class="st3" x1="500.6" y1="246.3" x2="500.6" y2="257.6"/>
		<line class="st3" x1="455.2" y1="246.3" x2="456.2" y2="246.3"/>
		<line class="st3" x1="456.2" y1="246.3" x2="456.2" y2="257.6"/>
		<line class="st3" x1="456.2" y1="257.6" x2="455.2" y2="257.6"/>
		<line class="st3" x1="455.2" y1="246.3" x2="455.2" y2="257.6"/>
		<line class="st3" x1="455.2" y1="246.3" x2="456.2" y2="246.3"/>
		<line class="st3" x1="456.2" y1="246.3" x2="456.2" y2="257.6"/>
		<line class="st3" x1="456.2" y1="257.6" x2="455.2" y2="257.6"/>
		<line class="st3" x1="455.2" y1="246.3" x2="455.2" y2="257.6"/>
		<line class="st3" x1="409.9" y1="246.3" x2="410.8" y2="246.3"/>
		<line class="st3" x1="410.8" y1="246.3" x2="410.8" y2="257.6"/>
		<line class="st3" x1="410.8" y1="257.6" x2="409.9" y2="257.6"/>
		<line class="st3" x1="409.9" y1="246.3" x2="409.9" y2="257.6"/>
		<line class="st3" x1="409.9" y1="246.3" x2="410.8" y2="246.3"/>
		<line class="st3" x1="410.8" y1="246.3" x2="410.8" y2="257.6"/>
		<line class="st3" x1="410.8" y1="257.6" x2="409.9" y2="257.6"/>
		<line class="st3" x1="409.9" y1="246.3" x2="409.9" y2="257.6"/>
		<line class="st3" x1="364.5" y1="246.1" x2="365.5" y2="246.1"/>
		<line class="st3" x1="365.5" y1="246.1" x2="365.5" y2="257.6"/>
		<line class="st3" x1="365.5" y1="257.6" x2="364.5" y2="257.6"/>
		<line class="st3" x1="364.5" y1="246.1" x2="364.5" y2="257.6"/>
		<line class="st3" x1="364.5" y1="246.1" x2="365.5" y2="246.1"/>
		<line class="st3" x1="365.5" y1="246.1" x2="365.5" y2="257.6"/>
		<line class="st3" x1="365.5" y1="257.6" x2="364.5" y2="257.6"/>
		<line class="st3" x1="364.5" y1="246.1" x2="364.5" y2="257.6"/>
		<line class="st3" x1="319.2" y1="246.1" x2="320.4" y2="246.1"/>
		<line class="st3" x1="320.4" y1="246.1" x2="320.4" y2="257.4"/>
		<line class="st3" x1="320.4" y1="257.4" x2="319.2" y2="257.4"/>
		<line class="st3" x1="319.2" y1="246.1" x2="319.2" y2="257.4"/>
		<line class="st3" x1="319.2" y1="246.1" x2="320.4" y2="246.1"/>
		<line class="st3" x1="320.4" y1="246.1" x2="320.4" y2="257.4"/>
		<line class="st3" x1="320.4" y1="257.4" x2="319.2" y2="257.4"/>
		<line class="st3" x1="319.2" y1="246.1" x2="319.2" y2="257.4"/>
		<line class="st3" x1="273.8" y1="246.1" x2="275" y2="246.1"/>
		<line class="st3" x1="275" y1="246.1" x2="275" y2="257.4"/>
		<line class="st3" x1="275" y1="257.4" x2="273.8" y2="257.4"/>
		<line class="st3" x1="273.8" y1="246.1" x2="275" y2="246.1"/>
		<line class="st3" x1="275" y1="246.1" x2="275" y2="257.4"/>
		<line class="st3" x1="275" y1="257.4" x2="273.8" y2="257.4"/>
		<line class="st3" x1="275" y1="246.3" x2="501.6" y2="246.3"/>
		<line class="st3" x1="501.6" y1="246.3" x2="501.6" y2="257.6"/>
		<line class="st3" x1="501.6" y1="257.6" x2="275" y2="257.6"/>
		<line class="st3" x1="275" y1="246.3" x2="275" y2="257.6"/>
		<line class="st3" x1="275" y1="246.3" x2="501.6" y2="246.3"/>
		<line class="st3" x1="501.6" y1="246.3" x2="501.6" y2="257.6"/>
		<line class="st3" x1="501.6" y1="257.6" x2="275" y2="257.6"/>
		<line class="st3" x1="275" y1="246.3" x2="275" y2="257.6"/>
		<line class="st3" x1="275" y1="246.3" x2="501.6" y2="246.3"/>
		<line class="st3" x1="501.6" y1="246.3" x2="501.6" y2="257.6"/>
		<line class="st3" x1="501.6" y1="257.6" x2="275" y2="257.6"/>
		<line class="st3" x1="275" y1="246.3" x2="275" y2="257.6"/>
		<line class="st3" x1="275" y1="246.3" x2="501.6" y2="246.3"/>
		<line class="st3" x1="501.6" y1="246.3" x2="501.6" y2="257.6"/>
		<line class="st3" x1="501.6" y1="257.6" x2="275" y2="257.6"/>
		<line class="st3" x1="275" y1="246.3" x2="275" y2="257.6"/>
		<polyline class="st3" points="273.8,450.3 273.8,416.3 426,416.3 426,450.3 		"/>
		<line class="st3" x1="719.5" y1="448.4" x2="719.5" y2="334.9"/>
		<line class="st3" x1="719.5" y1="334.9" x2="739.2" y2="334.9"/>
		<line class="st3" x1="719.5" y1="448.4" x2="739.2" y2="448.4"/>
		<line class="st3" x1="719.5" y1="448.4" x2="719.5" y2="334.9"/>
		<line class="st3" x1="719.5" y1="334.9" x2="739.2" y2="334.9"/>
		<line class="st3" x1="719.5" y1="448.4" x2="739.2" y2="448.4"/>
		<line class="st3" x1="719.5" y1="448.4" x2="719.5" y2="447.2"/>
		<line class="st3" x1="719.5" y1="447.2" x2="739.2" y2="447.2"/>
		<line class="st3" x1="739.2" y1="447.2" x2="739.2" y2="448.4"/>
		<line class="st3" x1="719.5" y1="448.4" x2="739.2" y2="448.4"/>
		<line class="st3" x1="719.5" y1="448.4" x2="719.5" y2="447.2"/>
		<line class="st3" x1="719.5" y1="447.2" x2="739.2" y2="447.2"/>
		<line class="st3" x1="739.2" y1="447.2" x2="739.2" y2="448.4"/>
		<line class="st3" x1="719.5" y1="448.4" x2="739.2" y2="448.4"/>
		<line class="st3" x1="719.5" y1="448.4" x2="719.5" y2="334.9"/>
		<line class="st3" x1="719.5" y1="334.9" x2="739.2" y2="334.9"/>
		<line class="st3" x1="719.5" y1="448.4" x2="739.2" y2="448.4"/>
		<line class="st3" x1="719.5" y1="448.4" x2="719.5" y2="334.9"/>
		<line class="st3" x1="719.5" y1="334.9" x2="739.2" y2="334.9"/>
		<line class="st3" x1="719.5" y1="448.4" x2="739.2" y2="448.4"/>
		<line class="st3" x1="719.5" y1="447.2" x2="719.5" y2="336.1"/>
		<line class="st3" x1="719.5" y1="336.1" x2="739.2" y2="336.1"/>
		<line class="st3" x1="719.5" y1="447.2" x2="739.2" y2="447.2"/>
		<line class="st3" x1="719.5" y1="447.2" x2="719.5" y2="336.1"/>
		<line class="st3" x1="719.5" y1="336.1" x2="739.2" y2="336.1"/>
		<line class="st3" x1="719.5" y1="447.2" x2="739.2" y2="447.2"/>
		<line class="st3" x1="719.5" y1="447.2" x2="719.5" y2="336.1"/>
		<line class="st3" x1="719.5" y1="336.1" x2="739.2" y2="336.1"/>
		<line class="st3" x1="719.5" y1="447.2" x2="739.2" y2="447.2"/>
		<line class="st3" x1="719.5" y1="447.2" x2="719.5" y2="336.1"/>
		<line class="st3" x1="719.5" y1="336.1" x2="739.2" y2="336.1"/>
		<line class="st3" x1="719.5" y1="447.2" x2="739.2" y2="447.2"/>
		<line class="st3" x1="719.5" y1="447.2" x2="719.5" y2="336.1"/>
		<line class="st3" x1="719.5" y1="336.1" x2="739.2" y2="336.1"/>
		<line class="st3" x1="719.5" y1="447.2" x2="739.2" y2="447.2"/>
		<line class="st3" x1="719.5" y1="447.2" x2="719.5" y2="336.1"/>
		<line class="st3" x1="719.5" y1="336.1" x2="739.2" y2="336.1"/>
		<line class="st3" x1="719.5" y1="447.2" x2="739.2" y2="447.2"/>
		<line class="st3" x1="719.5" y1="447.2" x2="719.5" y2="336.1"/>
		<line class="st3" x1="719.5" y1="336.1" x2="739.2" y2="336.1"/>
		<line class="st3" x1="719.5" y1="447.2" x2="739.2" y2="447.2"/>
		<line class="st3" x1="719.5" y1="447.2" x2="719.5" y2="336.1"/>
		<line class="st3" x1="719.5" y1="336.1" x2="739.2" y2="336.1"/>
		<line class="st3" x1="719.5" y1="447.2" x2="739.2" y2="447.2"/>
		<line class="st3" x1="719.5" y1="447.2" x2="719.5" y2="336.1"/>
		<line class="st3" x1="719.5" y1="336.1" x2="739.2" y2="336.1"/>
		<line class="st3" x1="719.5" y1="447.2" x2="739.2" y2="447.2"/>
		<line class="st3" x1="719.5" y1="447.2" x2="719.5" y2="336.1"/>
		<line class="st3" x1="719.5" y1="336.1" x2="739.2" y2="336.1"/>
		<line class="st3" x1="719.5" y1="447.2" x2="739.2" y2="447.2"/>
		<line class="st3" x1="719.5" y1="420.1" x2="719.5" y2="418.9"/>
		<line class="st3" x1="719.5" y1="418.9" x2="739.2" y2="418.9"/>
		<line class="st3" x1="739.2" y1="418.9" x2="739.2" y2="420.1"/>
		<line class="st3" x1="719.5" y1="420.1" x2="739.2" y2="420.1"/>
		<line class="st3" x1="719.5" y1="420.1" x2="719.5" y2="418.9"/>
		<line class="st3" x1="719.5" y1="418.9" x2="739.2" y2="418.9"/>
		<line class="st3" x1="739.2" y1="418.9" x2="739.2" y2="420.1"/>
		<line class="st3" x1="719.5" y1="420.1" x2="739.2" y2="420.1"/>
		<line class="st3" x1="719.5" y1="391.5" x2="719.5" y2="390.6"/>
		<line class="st3" x1="719.5" y1="390.6" x2="739.2" y2="390.6"/>
		<line class="st3" x1="739.2" y1="390.6" x2="739.2" y2="391.5"/>
		<line class="st3" x1="719.5" y1="391.5" x2="739.2" y2="391.5"/>
		<line class="st3" x1="719.5" y1="391.5" x2="719.5" y2="390.6"/>
		<line class="st3" x1="719.5" y1="390.6" x2="739.2" y2="390.6"/>
		<line class="st3" x1="739.2" y1="390.6" x2="739.2" y2="391.5"/>
		<line class="st3" x1="719.5" y1="391.5" x2="739.2" y2="391.5"/>
		<line class="st3" x1="719.5" y1="363.2" x2="719.5" y2="362.3"/>
		<line class="st3" x1="719.5" y1="362.3" x2="739.2" y2="362.3"/>
		<line class="st3" x1="739.2" y1="362.3" x2="739.2" y2="363.2"/>
		<line class="st3" x1="719.5" y1="363.2" x2="739.2" y2="363.2"/>
		<line class="st3" x1="719.5" y1="363.2" x2="719.5" y2="362.3"/>
		<line class="st3" x1="719.5" y1="362.3" x2="739.2" y2="362.3"/>
		<line class="st3" x1="739.2" y1="362.3" x2="739.2" y2="363.2"/>
		<line class="st3" x1="719.5" y1="363.2" x2="739.2" y2="363.2"/>
		<line class="st3" x1="719.5" y1="336.1" x2="719.5" y2="334.9"/>
		<line class="st3" x1="719.5" y1="334.9" x2="739.2" y2="334.9"/>
		<line class="st3" x1="739.2" y1="334.9" x2="739.2" y2="336.1"/>
		<line class="st3" x1="719.5" y1="336.1" x2="739.2" y2="336.1"/>
		<line class="st3" x1="719.5" y1="336.1" x2="719.5" y2="334.9"/>
		<line class="st3" x1="719.5" y1="334.9" x2="739.2" y2="334.9"/>
		<line class="st3" x1="739.2" y1="334.9" x2="739.2" y2="336.1"/>
		<line class="st3" x1="719.5" y1="336.1" x2="739.2" y2="336.1"/>
		<line class="st14" x1="238" y1="450.3" x2="147.3" y2="450.3"/>
		<line class="st14" x1="147.3" y1="450.3" x2="147.3" y2="405"/>
		<line class="st14" x1="147.3" y1="405" x2="238" y2="405"/>
		<line class="st14" x1="238" y1="450.3" x2="238" y2="405"/>
		<line class="st14" x1="147.3" y1="450.3" x2="147.3" y2="405"/>
		<line class="st14" x1="147.3" y1="405" x2="238" y2="405"/>
		<line class="st14" x1="238" y1="450.3" x2="238" y2="405"/>
		<line class="st14" x1="148.5" y1="450.3" x2="147.3" y2="450.3"/>
		<line class="st14" x1="147.3" y1="450.3" x2="147.3" y2="449.1"/>
		<line class="st14" x1="147.3" y1="449.1" x2="148.5" y2="449.1"/>
		<line class="st14" x1="148.5" y1="450.3" x2="148.5" y2="449.1"/>
		<line class="st14" x1="148.5" y1="450.3" x2="147.3" y2="450.3"/>
		<line class="st14" x1="147.3" y1="450.3" x2="147.3" y2="449.1"/>
		<line class="st14" x1="147.3" y1="449.1" x2="148.5" y2="449.1"/>
		<line class="st14" x1="148.5" y1="450.3" x2="148.5" y2="449.1"/>
		<line class="st14" x1="238" y1="450.3" x2="236.8" y2="450.3"/>
		<line class="st14" x1="236.8" y1="450.3" x2="236.8" y2="449.1"/>
		<line class="st14" x1="236.8" y1="449.1" x2="238" y2="449.1"/>
		<line class="st14" x1="238" y1="450.3" x2="238" y2="449.1"/>
		<line class="st14" x1="238" y1="450.3" x2="236.8" y2="450.3"/>
		<line class="st14" x1="236.8" y1="450.3" x2="236.8" y2="449.1"/>
		<line class="st14" x1="236.8" y1="449.1" x2="238" y2="449.1"/>
		<line class="st14" x1="238" y1="450.3" x2="238" y2="449.1"/>
		<line class="st14" x1="238" y1="406.2" x2="236.8" y2="406.2"/>
		<line class="st14" x1="236.8" y1="406.2" x2="236.8" y2="405"/>
		<line class="st14" x1="236.8" y1="405" x2="238" y2="405"/>
		<line class="st14" x1="238" y1="406.2" x2="238" y2="405"/>
		<line class="st14" x1="238" y1="406.2" x2="236.8" y2="406.2"/>
		<line class="st14" x1="236.8" y1="406.2" x2="236.8" y2="405"/>
		<line class="st14" x1="236.8" y1="405" x2="238" y2="405"/>
		<line class="st14" x1="238" y1="406.2" x2="238" y2="405"/>
		<line class="st14" x1="148.5" y1="406.2" x2="147.3" y2="406.2"/>
		<line class="st14" x1="147.3" y1="406.2" x2="147.3" y2="405"/>
		<line class="st14" x1="147.3" y1="405" x2="148.5" y2="405"/>
		<line class="st14" x1="148.5" y1="406.2" x2="148.5" y2="405"/>
		<line class="st14" x1="148.5" y1="406.2" x2="147.3" y2="406.2"/>
		<line class="st14" x1="147.3" y1="406.2" x2="147.3" y2="405"/>
		<line class="st14" x1="147.3" y1="405" x2="148.5" y2="405"/>
		<line class="st14" x1="148.5" y1="406.2" x2="148.5" y2="405"/>
		<line class="st3" x1="754" y1="236.5" x2="754" y2="123.2"/>
		<line class="st3" x1="754" y1="123.2" x2="774" y2="123.2"/>
		<line class="st3" x1="774" y1="123.2" x2="774" y2="236.5"/>
		<line class="st3" x1="754" y1="236.5" x2="774" y2="236.5"/>
		<line class="st3" x1="754" y1="236.5" x2="754" y2="123.2"/>
		<line class="st3" x1="754" y1="123.2" x2="774" y2="123.2"/>
		<line class="st3" x1="774" y1="123.2" x2="774" y2="236.5"/>
		<line class="st3" x1="754" y1="236.5" x2="774" y2="236.5"/>
		<line class="st3" x1="754" y1="236.5" x2="754" y2="235.3"/>
		<line class="st3" x1="754" y1="235.3" x2="774" y2="235.3"/>
		<line class="st3" x1="774" y1="235.3" x2="774" y2="236.5"/>
		<line class="st3" x1="754" y1="236.5" x2="774" y2="236.5"/>
		<line class="st3" x1="754" y1="236.5" x2="754" y2="235.3"/>
		<line class="st3" x1="754" y1="235.3" x2="774" y2="235.3"/>
		<line class="st3" x1="774" y1="235.3" x2="774" y2="236.5"/>
		<line class="st3" x1="754" y1="236.5" x2="774" y2="236.5"/>
		<line class="st3" x1="754" y1="236.5" x2="754" y2="123.2"/>
		<line class="st3" x1="754" y1="123.2" x2="774" y2="123.2"/>
		<line class="st3" x1="774" y1="123.2" x2="774" y2="236.5"/>
		<line class="st3" x1="754" y1="236.5" x2="774" y2="236.5"/>
		<line class="st3" x1="754" y1="236.5" x2="754" y2="123.2"/>
		<line class="st3" x1="754" y1="123.2" x2="774" y2="123.2"/>
		<line class="st3" x1="774" y1="123.2" x2="774" y2="236.5"/>
		<line class="st3" x1="754" y1="236.5" x2="774" y2="236.5"/>
		<line class="st3" x1="754" y1="236.5" x2="754" y2="123.2"/>
		<line class="st3" x1="754" y1="123.2" x2="774" y2="123.2"/>
		<line class="st3" x1="774" y1="123.2" x2="774" y2="236.5"/>
		<line class="st3" x1="754" y1="236.5" x2="774" y2="236.5"/>
		<line class="st3" x1="754" y1="236.5" x2="754" y2="123.2"/>
		<line class="st3" x1="754" y1="123.2" x2="774" y2="123.2"/>
		<line class="st3" x1="774" y1="123.2" x2="774" y2="236.5"/>
		<line class="st3" x1="754" y1="236.5" x2="774" y2="236.5"/>
		<line class="st3" x1="754" y1="180.3" x2="754" y2="179.4"/>
		<line class="st3" x1="754" y1="179.4" x2="774" y2="179.4"/>
		<line class="st3" x1="774" y1="179.4" x2="774" y2="180.3"/>
		<line class="st3" x1="754" y1="180.3" x2="774" y2="180.3"/>
		<line class="st3" x1="754" y1="180.3" x2="754" y2="179.4"/>
		<line class="st3" x1="754" y1="179.4" x2="774" y2="179.4"/>
		<line class="st3" x1="774" y1="179.4" x2="774" y2="180.3"/>
		<line class="st3" x1="754" y1="180.3" x2="774" y2="180.3"/>
		<line class="st3" x1="754" y1="124.2" x2="754" y2="123.2"/>
		<line class="st3" x1="754" y1="123.2" x2="774" y2="123.2"/>
		<line class="st3" x1="774" y1="123.2" x2="774" y2="124.2"/>
		<line class="st3" x1="754" y1="124.2" x2="774" y2="124.2"/>
		<line class="st3" x1="754" y1="124.2" x2="754" y2="123.2"/>
		<line class="st3" x1="754" y1="123.2" x2="774" y2="123.2"/>
		<line class="st3" x1="774" y1="123.2" x2="774" y2="124.2"/>
		<line class="st3" x1="754" y1="124.2" x2="774" y2="124.2"/>
		<line class="st3" x1="772.8" y1="180.3" x2="772.8" y2="207.7"/>
		<line class="st3" x1="772.8" y1="207.7" x2="774" y2="207.7"/>
		<line class="st3" x1="774" y1="207.7" x2="774" y2="180.3"/>
		<line class="st3" x1="772.8" y1="180.3" x2="774" y2="180.3"/>
		<line class="st3" x1="772.8" y1="180.3" x2="772.8" y2="207.7"/>
		<line class="st3" x1="772.8" y1="207.7" x2="774" y2="207.7"/>
		<line class="st3" x1="774" y1="207.7" x2="774" y2="180.3"/>
		<line class="st3" x1="772.8" y1="180.3" x2="774" y2="180.3"/>
		<line class="st3" x1="772.8" y1="208.2" x2="772.8" y2="235.3"/>
		<line class="st3" x1="772.8" y1="235.3" x2="774" y2="235.3"/>
		<line class="st3" x1="774" y1="235.3" x2="774" y2="208.2"/>
		<line class="st3" x1="772.8" y1="208.2" x2="774" y2="208.2"/>
		<line class="st3" x1="772.8" y1="208.2" x2="772.8" y2="235.3"/>
		<line class="st3" x1="772.8" y1="235.3" x2="774" y2="235.3"/>
		<line class="st3" x1="774" y1="235.3" x2="774" y2="208.2"/>
		<line class="st3" x1="772.8" y1="208.2" x2="774" y2="208.2"/>
		<line class="st3" x1="754" y1="236.5" x2="754" y2="123.2"/>
		<line class="st3" x1="754" y1="123.2" x2="774" y2="123.2"/>
		<line class="st3" x1="774" y1="123.2" x2="774" y2="236.5"/>
		<line class="st3" x1="754" y1="236.5" x2="774" y2="236.5"/>
		<line class="st3" x1="754" y1="236.5" x2="754" y2="123.2"/>
		<line class="st3" x1="754" y1="123.2" x2="774" y2="123.2"/>
		<line class="st3" x1="774" y1="123.2" x2="774" y2="236.5"/>
		<line class="st3" x1="754" y1="236.5" x2="774" y2="236.5"/>
		<line class="st3" x1="754" y1="236.5" x2="754" y2="123.2"/>
		<line class="st3" x1="754" y1="123.2" x2="774" y2="123.2"/>
		<line class="st3" x1="774" y1="123.2" x2="774" y2="236.5"/>
		<line class="st3" x1="754" y1="236.5" x2="774" y2="236.5"/>
		<line class="st3" x1="754" y1="236.5" x2="754" y2="123.2"/>
		<line class="st3" x1="754" y1="123.2" x2="774" y2="123.2"/>
		<line class="st3" x1="774" y1="123.2" x2="774" y2="236.5"/>
		<line class="st3" x1="754" y1="236.5" x2="774" y2="236.5"/>
		<line class="st3" x1="754" y1="236.5" x2="754" y2="123.2"/>
		<line class="st3" x1="754" y1="123.2" x2="774" y2="123.2"/>
		<line class="st3" x1="774" y1="123.2" x2="774" y2="236.5"/>
		<line class="st3" x1="754" y1="236.5" x2="774" y2="236.5"/>
		<line class="st3" x1="754" y1="236.5" x2="754" y2="123.2"/>
		<line class="st3" x1="754" y1="123.2" x2="774" y2="123.2"/>
		<line class="st3" x1="774" y1="123.2" x2="774" y2="236.5"/>
		<line class="st3" x1="754" y1="236.5" x2="774" y2="236.5"/>
		<rect x="426" y="349.1" class="st3" width="34.1" height="34.1"/>
		<line class="st3" x1="440.8" y1="363.9" x2="444.9" y2="368.3"/>
		<line class="st3" x1="444.9" y1="363.9" x2="440.8" y2="368.3"/>
		<line class="st3" x1="445.9" y1="366.1" x2="440.1" y2="366.1"/>
		<line class="st3" x1="443" y1="363.2" x2="443" y2="369"/>
		<rect x="426" y="319.5" class="st3" width="33.8" height="130.1"/>
		<line class="st0" x1="827.7" y1="349.8" x2="827.7" y2="333.9"/>
		<line class="st0" x1="782.1" y1="349.8" x2="782.1" y2="333.9"/>
		<path class="st0" d="M782.2,395.3L782.2,395.3c25.2,0,45.6-20.4,45.6-45.6"/>
		<line class="st0" x1="782.1" y1="349.8" x2="782.1" y2="395.4"/>
		<line class="st0" x1="888.7" y1="349.8" x2="888.7" y2="333.9"/>
		<line class="st0" x1="934.3" y1="349.8" x2="934.3" y2="333.9"/>
		<path class="st0" d="M888.6,349.7L888.6,349.7c0,25.2,20.4,45.6,45.6,45.6"/>
		<line class="st0" x1="934.3" y1="349.8" x2="934.3" y2="395.4"/>
		<rect x="426" y="383.1" class="st3" width="34.1" height="34.3"/>
		<line class="st3" x1="440.8" y1="398.3" x2="444.9" y2="402.3"/>
		<line class="st3" x1="444.9" y1="398.3" x2="440.8" y2="402.3"/>
		<line class="st3" x1="445.9" y1="400.2" x2="440.1" y2="400.2"/>
		<line class="st3" x1="443" y1="397.3" x2="443" y2="403.3"/>
		<rect x="273.8" y="325.5" class="st3" width="34.1" height="90.7"/>
		<rect x="273.8" y="352.4" class="st0" width="33.8" height="39.6"/>
		<path class="st2" d="M288.9,383.9L288.9,383.9c0-3.3-2.6-6-5.9-6s-5.9,2.7-5.9,6s2.6,6,5.9,6S288.9,387.2,288.9,383.9"/>
		<path class="st2" d="M304.3,364.1L304.3,364.1c0-3.2-2.7-5.9-6-5.9s-6,2.6-6,5.9s2.7,5.9,6,5.9
			C301.6,369.9,304.3,367.3,304.3,364.1"/>
		<path class="st2" d="M288.9,363.9L288.9,363.9c0-3.3-2.6-6-5.9-6s-5.9,2.7-5.9,6s2.6,6,5.9,6S288.9,367.3,288.9,363.9"/>
		<path class="st2" d="M304.3,383.9L304.3,383.9c0-3.3-2.7-6-6-6s-6,2.7-6,6s2.7,6,6,6C301.6,389.9,304.3,387.2,304.3,383.9"/>
		<line class="st10" x1="459.8" y1="319.3" x2="459.8" y2="449.6"/>
		<line class="st10" x1="469.9" y1="319.3" x2="469.9" y2="449.6"/>
		<line class="st0" x1="469.9" y1="319.3" x2="469.9" y2="449.6"/>
		<line class="st0" x1="459.8" y1="319.3" x2="459.8" y2="449.6"/>
		<rect x="753.6" y="383.4" class="st0" width="4.3" height="51.1"/>
		<rect x="426" y="383.1" class="st0" width="33.8" height="34.1"/>
		<line class="st0" x1="448.5" y1="383.1" x2="448.5" y2="417.2"/>
		<path class="st15" d="M445.6,400.2L445.6,400.2c0-1.6-1.3-2.9-2.9-2.9s-2.9,1.3-2.9,2.9s1.3,2.9,2.9,2.9S445.6,401.8,445.6,400.2"
			/>
		<path class="st16" d="M445.6,400.2L445.6,400.2c0-1.6-1.3-2.9-2.9-2.9s-2.9,1.3-2.9,2.9s1.3,2.9,2.9,2.9
			C444.4,403.1,445.6,401.8,445.6,400.2"/>
		<path class="st17" d="M752.8,450.4c7.7,0,14.9-1.7,21.5-5.2c6.7-3.5,11.9-8.2,15.8-14.2c3.8-6,5.8-12.5,5.8-19.4
			s-1.9-13.4-5.8-19.4c-3.8-6-9.1-10.7-15.8-14.2s-13.8-5.2-21.5-5.2"/>
		<path class="st17" d="M757.9,372.8l-0.1,0.5v0.5v0.5l0.1,0.5l0.1,0.5l0.3,0.4l0.3,0.4l0.4,0.4l0.4,0.4l0.5,0.2l0.5,0.2l0.5,0.1
			l0.5,0.1h0.5h0.5l0.5-0.2l0.5-0.2l0.4-0.3l0.4-0.3l0.3-0.4l0.3-0.4l0.2-0.5l0.2-0.5l0.1-0.5c0.3-0.4,0.6-0.9,1-1.2
			c0.4-0.3,0.8-0.6,1.3-0.8c0.5-0.2,1-0.3,1.5-0.3s1,0.1,1.5,0.3c0.5,0.2,0.9,0.5,1.3,0.8c0.4,0.3,0.7,0.7,1,1.2
			c0.2,0.5,0.4,0.9,0.5,1.5c0.1,0.5,0.1,1-0.1,1.5l-0.3,0.4l-0.2,0.5l-0.2,0.5v0.5v0.5l0.1,0.5l0.1,0.5l0.2,0.4l0.2,0.4l0.4,0.3
			l0.4,0.3l0.4,0.2l0.4,0.2l0.5,0.1l0.5,0.1l0.5-0.1l0.5-0.1l0.5-0.2l0.5-0.2l0.4-0.3l0.4-0.3l0.3-0.4l0.3-0.4l0.1-0.5l0.2-0.4
			l0.3-0.3l0.3-0.3l0.4-0.2l0.4-0.2l0.5-0.1l0.5-0.1l0.5,0.1l0.5,0.1l0.4,0.2l0.4,0.2l0.3,0.3l0.3,0.3l0.2,0.4l0.2,0.4l0.1,0.5
			l0.1,0.5v0.5v0.5l-0.2,0.4l-0.2,0.4l-0.3,0.4l-0.3,0.4l-0.4,0.3"/>
		<path class="st17" d="M783.8,384.7l-0.4,0.3l-0.3,0.4l-0.3,0.4l-0.2,0.5l-0.2,0.5l-0.1,0.5l-0.1,0.5v0.5v0.5l0.2,0.5l0.2,0.5
			l0.3,0.4l0.3,0.4l0.4,0.3l0.4,0.3l0.5,0.2l0.5,0.2l0.5,0.1l0.5,0.1l0.5-0.1l0.5-0.1l0.5-0.2l0.5-0.2l0.4-0.3
			c0.5-0.2,1-0.3,1.5-0.2c0.5,0,1,0.1,1.5,0.3c0.5,0.2,0.9,0.5,1.3,0.8c0.4,0.3,0.7,0.8,0.9,1.2c0.2,0.5,0.4,1,0.5,1.5s0,1-0.1,1.5
			s-0.3,1-0.6,1.4s-0.6,0.8-1.1,1.1l-0.5,0.1l-0.4,0.2L791,399l-0.3,0.4l-0.3,0.4l-0.2,0.4l-0.2,0.4l-0.1,0.5l-0.1,0.5v0.5v0.5
			l0.2,0.5l0.2,0.5l0.3,0.4l0.3,0.4l0.4,0.3l0.4,0.3l0.5,0.2l0.5,0.2h0.5h0.5l0.5-0.1l0.5-0.1l0.4-0.3l0.4-0.1h0.5h0.5l0.4,0.1
			l0.4,0.1l0.4,0.3l0.4,0.3l0.3,0.4l0.3,0.4l0.2,0.4l0.2,0.4v0.5v0.5l-0.1,0.5l-0.1,0.5l-0.2,0.4l-0.2,0.4l-0.3,0.3l-0.3,0.3
			l-0.4,0.2L797,411l-0.5,0.1l-0.5,0.1h-0.5"/>
		<path class="st17" d="M795.5,410.8l-0.5-0.1h-0.5H794l-0.5,0.2L793,411l-0.4,0.3l-0.4,0.3l-0.3,0.4l-0.3,0.4l-0.2,0.5l-0.2,0.5
			l-0.1,0.5l-0.1,0.5v0.5v0.5l0.2,0.5l0.2,0.5l0.3,0.4l0.3,0.4l0.4,0.3l0.4,0.3l0.5,0.2l0.5,0.2l0.5,0.1c0.5,0.2,0.9,0.6,1.2,0.9
			c0.3,0.4,0.6,0.8,0.8,1.3s0.3,1,0.3,1.5s-0.1,1-0.2,1.5c-0.2,0.5-0.4,0.9-0.8,1.3c-0.3,0.4-0.7,0.7-1.2,1
			c-0.4,0.3-0.9,0.4-1.4,0.5s-1,0.1-1.5,0l-0.4-0.3l-0.5-0.2l-0.5-0.2h-0.5"/>
		<polyline class="st17" points="789.4,425.8 789.4,425.8 788.9,425.8 788.4,425.9 787.9,426 787.5,426.3 787.1,426.6 786.7,426.9 
			786.4,427.3 786.2,427.7 786,428.2 785.9,428.7 785.9,429.2 785.9,429.6 786,430.1 786.2,430.6 786.4,431 786.7,431.4 
			787.1,431.8 787.5,432 787.9,432.3 788.4,432.4 788.8,432.7 789.1,433 789.4,433.3 789.6,433.8 789.8,434.2 789.9,434.6 
			790,435.1 789.9,435.6 789.9,436 789.7,436.4 789.5,436.9 789.2,437.2 788.9,437.6 788.5,437.8 788.1,438.1 787.6,438.2 
			787.2,438.3 786.7,438.3 786.3,438.3 785.8,438.1 785.4,438 785,437.7 784.6,437.4 784.3,437.1 		"/>
		<path class="st17" d="M784.3,437.1l-0.3-0.4l-0.4-0.3l-0.4-0.3l-0.5-0.2l-0.5-0.2l-0.5-0.1l-0.5-0.1h-0.5h-0.5l-0.5,0.2l-0.5,0.2
			L779,436l-0.4,0.3l-0.3,0.4l-0.3,0.4l-0.2,0.5l-0.2,0.5l-0.1,0.5l-0.1,0.5l0.1,0.5l0.1,0.5l0.2,0.5l0.2,0.5l0.3,0.4
			c0.2,0.5,0.2,1,0.2,1.5s-0.1,1-0.3,1.5s-0.5,0.9-0.8,1.3s-0.8,0.7-1.2,0.9c-0.5,0.2-1,0.4-1.5,0.4c-0.5,0.1-1,0-1.5-0.1
			s-1-0.3-1.4-0.6c-0.4-0.3-0.8-0.7-1.1-1.1l-0.1-0.5l-0.2-0.4l-0.2-0.4l-0.3-0.4l-0.3-0.4l-0.4-0.2l-0.4-0.2l-0.5-0.1l-0.5-0.1
			h-0.5h-0.5l-0.5,0.2l-0.5,0.2l-0.4,0.3l-0.4,0.3l-0.3,0.4l-0.3,0.4l-0.2,0.5l-0.2,0.5v0.5v0.5l0.1,0.5l0.1,0.5l0.3,0.4l0.1,0.4
			v0.5v0.5l-0.1,0.4l-0.1,0.4l-0.3,0.4l-0.3,0.4l-0.4,0.3l-0.4,0.3l-0.4,0.2l-0.4,0.2h-0.5h-0.5l-0.5-0.1l-0.5-0.1l-0.4-0.2
			l-0.4-0.2l-0.3-0.3l-0.3-0.3l-0.2-0.4l-0.2-0.4l-0.1-0.5l-0.1-0.5l0.1-0.5"/>
		<path class="st1" d="M852.3,415.9L852.3,415.9c0-0.2-0.1-0.3-0.2-0.3l-10.5-0.6l-5.5-0.1l-3.9-0.1c-5.6-0.1-10.3,4.3-10.5,10v0.2
			c-0.2,5.3,4,9.8,9.3,10c0.2,0,0.4,0,0.6,0l4.5-0.1l7.1-0.2l8.8-0.4c0.1,0,0.2-0.1,0.2-0.3l0,0v-18.1H852.3z"/>
		<path class="st5" d="M852.3,415.9L852.3,415.9c0-0.2-0.1-0.3-0.2-0.3l-10.5-0.6l-5.5-0.1l-3.9-0.1c-5.6-0.1-10.3,4.3-10.5,10v0.2
			c-0.2,5.3,4,9.8,9.3,10c0.2,0,0.4,0,0.6,0l4.5-0.1l7.1-0.2l8.8-0.4c0.1,0,0.2-0.1,0.2-0.3l0,0v-18.1"/>
		<path class="st1" d="M829.9,425v-7.7c-4.2,0-7.7,3.4-7.7,7.7c0,4.2,3.4,7.7,7.7,7.7V425z"/>
		<path class="st5" d="M829.9,417.3L829.9,417.3c-4.2,0-7.7,3.4-7.7,7.7c0,4.2,3.4,7.7,7.7,7.7"/>
		<path class="st1" d="M831.6,425v-2.6c-1.4,0-2.6,1.1-2.6,2.6c0,1.4,1.1,2.6,2.6,2.6V425z"/>
		<path class="st5" d="M831.6,422.4L831.6,422.4c-1.4,0-2.6,1.1-2.6,2.6c0,1.4,1.1,2.6,2.6,2.6"/>
		<path class="st1" d="M832.5,425v7.7c4.2,0,7.7-3.4,7.7-7.7c0-4.2-3.4-7.7-7.7-7.7V425z"/>
		<path class="st5" d="M832.5,432.6L832.5,432.6c4.2,0,7.7-3.4,7.7-7.7c0-4.2-3.4-7.7-7.7-7.7"/>
		<line class="st5" x1="836.1" y1="423.5" x2="836.1" y2="426.3"/>
		<line class="st5" x1="834.9" y1="427.5" x2="831.6" y2="427.5"/>
		<path class="st1" d="M835,426.4v1.1c0.6,0,1.1-0.5,1.1-1.1H835z"/>
		<path class="st5" d="M835,427.5L835,427.5c0.6,0,1.1-0.5,1.1-1.1"/>
		<line class="st5" x1="834.9" y1="422.5" x2="831.6" y2="422.5"/>
		<path class="st1" d="M835,423.5h1.1c0-0.6-0.5-1.1-1.1-1.1V423.5z"/>
		<path class="st5" d="M836.2,423.5L836.2,423.5c0-0.6-0.5-1.1-1.1-1.1"/>
		<path class="st1" d="M832.9,425v-2.6c-1.4,0-2.6,1.1-2.6,2.6c0,1.4,1.1,2.6,2.6,2.6V425z"/>
		<path class="st5" d="M832.9,422.4L832.9,422.4c-1.4,0-2.6,1.1-2.6,2.6c0,1.4,1.1,2.6,2.6,2.6"/>
		<line class="st5" x1="829.9" y1="417.2" x2="832.5" y2="417.2"/>
		<line class="st5" x1="829.9" y1="432.6" x2="832.5" y2="432.6"/>
		<line class="st5" x1="68.1" y1="232.4" x2="68.1" y2="126.8"/>
		<line class="st3" x1="307.9" y1="325.5" x2="302.1" y2="325.5"/>
		<line class="st0" x1="183.1" y1="305.6" x2="192" y2="305.6"/>
		<line class="st0" x1="183.1" y1="260" x2="192" y2="260"/>
		<path class="st0" d="M137.4,260L137.4,260c0,25.2,20.4,45.6,45.6,45.6"/>
		<line class="st0" x1="183.1" y1="260" x2="137.2" y2="260"/>
		<line class="st0" x1="204" y1="320.7" x2="204" y2="311.6"/>
		<line class="st0" x1="249.6" y1="320.7" x2="249.6" y2="311.6"/>
		<path class="st0" d="M204,320.6L204,320.6c0,25.2,20.4,45.6,45.6,45.6"/>
		<line class="st0" x1="249.6" y1="320.7" x2="249.6" y2="366.3"/>
		<line class="st0" x1="389.2" y1="451.2" x2="390.6" y2="449.8"/>
		<line class="st0" x1="655.1" y1="450" x2="655.3" y2="449.8"/>
		<line class="st0" x1="793.1" y1="484.4" x2="793.8" y2="483.6"/>
		<line class="st0" x1="927.5" y1="450.3" x2="928" y2="449.8"/>
		<path class="st0" d="M389.2,449.1"/>
		<path class="st0" d="M389.2,449.1"/>
		<path class="st0" d="M389.2,449.1"/>
		<path class="st0" d="M189.1,449.1"/>
		<path class="st0" d="M134.6,449.1"/>
		<path class="st0" d="M189.1,449.1"/>
		<path class="st0" d="M134.6,449.1"/>
		<rect x="793.8" y="449.1" class="st1" width="23.8" height="16.3"/>
		<polyline class="st0" points="817.6,465.4 817.6,449.1 793.8,449.1 793.8,465.4 		"/>
		<rect x="793.8" y="465.4" class="st1" width="23.8" height="3.4"/>
		<polyline class="st2" points="793.8,468.8 793.8,465.4 817.6,465.4 817.6,468.8 		"/>
		<line class="st0" x1="812.1" y1="468.8" x2="812.1" y2="465.5"/>
		<line class="st0" x1="799.6" y1="468.8" x2="799.6" y2="465.5"/>
		<line class="st0" x1="817.6" y1="465.5" x2="817.6" y2="468.8"/>
		<line class="st0" x1="799.6" y1="465.5" x2="799.6" y2="468.8"/>
		<line class="st0" x1="812.1" y1="465.5" x2="812.1" y2="468.8"/>
		<line class="st0" x1="793.9" y1="465.5" x2="793.9" y2="468.8"/>
		<line class="st0" x1="817.6" y1="449.1" x2="817.6" y2="457.8"/>
		<line class="st0" x1="793.9" y1="449.1" x2="793.9" y2="457.8"/>
		<line class="st0" x1="817.6" y1="449.1" x2="817.6" y2="457.8"/>
		<line class="st0" x1="793.9" y1="449.1" x2="793.9" y2="457.8"/>
		<rect x="903.5" y="449.1" class="st1" width="24" height="16.3"/>
		<polyline class="st0" points="927.5,465.4 927.5,449.1 903.5,449.1 903.5,465.4 		"/>
		<rect x="903.5" y="465.4" class="st1" width="24" height="3.4"/>
		<line class="st0" x1="908.8" y1="466.4" x2="909.7" y2="466.6"/>
		<line class="st0" x1="925.3" y1="467.1" x2="926.3" y2="467.1"/>
		<line class="st0" x1="907.6" y1="466.4" x2="908.8" y2="466.4"/>
		<line class="st0" x1="924.1" y1="467.1" x2="925.3" y2="467.1"/>
		<line class="st0" x1="922.2" y1="467.3" x2="924.1" y2="467.1"/>
		<line class="st0" x1="905.7" y1="466.6" x2="907.6" y2="466.4"/>
		<line class="st0" x1="905.4" y1="468.8" x2="905.7" y2="468.8"/>
		<line class="st0" x1="904" y1="466.1" x2="905.7" y2="466.6"/>
		<line class="st0" x1="920.5" y1="466.8" x2="922.2" y2="467.3"/>
		<line class="st0" x1="904.5" y1="468.8" x2="905.4" y2="468.8"/>
		<line class="st0" x1="918.6" y1="467.1" x2="920.5" y2="466.8"/>
		<line class="st0" x1="903.5" y1="466.4" x2="904" y2="466.1"/>
		<line class="st0" x1="916.7" y1="466.8" x2="918.6" y2="467.1"/>
		<line class="st0" x1="916.9" y1="468.5" x2="917.2" y2="468.8"/>
		<line class="st0" x1="915.5" y1="466.1" x2="916.7" y2="466.8"/>
		<line class="st0" x1="913.8" y1="467.6" x2="916.9" y2="468.5"/>
		<line class="st0" x1="913.3" y1="465.4" x2="915.5" y2="466.1"/>
		<line class="st0" x1="911.9" y1="467.8" x2="913.8" y2="467.6"/>
		<line class="st0" x1="927.3" y1="466.1" x2="927.5" y2="466.1"/>
		<line class="st0" x1="926.3" y1="467.1" x2="927.3" y2="466.1"/>
		<line class="st0" x1="911.2" y1="468.8" x2="911.9" y2="467.8"/>
		<line class="st0" x1="909.7" y1="466.6" x2="910.7" y2="465.4"/>
		<polyline class="st2" points="903.5,468.8 903.5,465.4 927.5,465.4 927.5,468.8 		"/>
		<line class="st0" x1="921.8" y1="468.8" x2="921.8" y2="465.5"/>
		<line class="st0" x1="909.3" y1="468.8" x2="909.3" y2="465.5"/>
		<line class="st0" x1="927.6" y1="465.5" x2="927.6" y2="468.8"/>
		<line class="st0" x1="909.3" y1="465.5" x2="909.3" y2="468.8"/>
		<line class="st0" x1="921.8" y1="465.5" x2="921.8" y2="468.8"/>
		<line class="st0" x1="903.6" y1="465.5" x2="903.6" y2="468.8"/>
		<line class="st0" x1="927.6" y1="449.1" x2="927.6" y2="457.8"/>
		<line class="st0" x1="903.6" y1="449.1" x2="903.6" y2="457.8"/>
		<line class="st0" x1="927.6" y1="449.1" x2="927.6" y2="457.8"/>
		<line class="st0" x1="903.6" y1="449.1" x2="903.6" y2="457.8"/>
		<rect x="550.2" y="449.1" class="st1" width="104.9" height="16.3"/>
		<polyline class="st0" points="655.1,465.4 655.1,449.1 550.2,449.1 550.2,465.4 		"/>
		<rect x="550.2" y="465.4" class="st1" width="104.9" height="3.4"/>
		<polyline class="st2" points="550.2,468.8 550.2,465.4 655.1,465.4 655.1,468.8 		"/>
		<line class="st0" x1="649.4" y1="468.8" x2="649.4" y2="465.5"/>
		<line class="st0" x1="556" y1="468.8" x2="556" y2="465.5"/>
		<line class="st0" x1="655.2" y1="465.5" x2="655.2" y2="468.8"/>
		<line class="st0" x1="606" y1="465.5" x2="606" y2="468.8"/>
		<line class="st0" x1="649.4" y1="465.5" x2="649.4" y2="468.8"/>
		<line class="st0" x1="599.7" y1="465.5" x2="599.7" y2="468.8"/>
		<line class="st0" x1="606" y1="465.5" x2="606" y2="468.8"/>
		<line class="st0" x1="556" y1="465.5" x2="556" y2="468.8"/>
		<line class="st0" x1="599.7" y1="465.5" x2="599.7" y2="468.8"/>
		<line class="st0" x1="550.3" y1="465.5" x2="550.3" y2="468.8"/>
		<line class="st0" x1="655.2" y1="449.1" x2="655.2" y2="457.8"/>
		<line class="st0" x1="655.2" y1="449.1" x2="655.2" y2="457.8"/>
		<path class="st5" d="M89.8,161.5c0.2,0,0.5,0,0.7,0s0.5-0.1,0.7-0.1s0.5-0.1,0.7-0.2c0.2-0.1,0.5-0.2,0.7-0.3s0.4-0.2,0.7-0.3
			c0.2-0.1,0.4-0.2,0.6-0.4c0.2-0.1,0.4-0.3,0.6-0.4c0.2-0.2,0.4-0.3,0.5-0.5c0.2-0.2,0.3-0.4,0.5-0.6c0.2-0.2,0.3-0.4,0.4-0.6
			c0.1-0.2,0.3-0.4,0.4-0.6c0.1-0.2,0.2-0.4,0.3-0.7c0.1-0.2,0.2-0.5,0.2-0.7c0.1-0.2,0.1-0.5,0.2-0.7c0-0.2,0.1-0.5,0.1-0.7
			s0-0.5,0-0.8s0-0.5,0-0.8c0-0.2-0.1-0.5-0.1-0.7s-0.1-0.5-0.2-0.7s-0.2-0.5-0.2-0.7c-0.1-0.2-0.2-0.5-0.3-0.7
			c-0.1-0.2-0.2-0.4-0.4-0.6c-0.1-0.2-0.3-0.4-0.4-0.6c-0.2-0.2-0.3-0.4-0.5-0.6c-0.2-0.2-0.4-0.3-0.5-0.5s-0.4-0.3-0.6-0.4
			c-0.2-0.1-0.4-0.3-0.6-0.4c-0.2-0.1-0.4-0.2-0.7-0.3c-0.2-0.1-0.5-0.2-0.7-0.3s-0.5-0.1-0.7-0.2c-0.2,0-0.5-0.1-0.7-0.1
			s-0.5,0-0.7,0"/>
		<line class="st5" x1="83.7" y1="155.4" x2="83.7" y2="152.5"/>
		<path class="st5" d="M88.2,156.4c0.1,0,0.2,0,0.2,0h0.2c0.1,0,0.2,0,0.2-0.1s0.2-0.1,0.2-0.1c0.1,0,0.1-0.1,0.2-0.1
			s0.1-0.1,0.2-0.1s0.1-0.1,0.2-0.1c0.1-0.1,0.1-0.1,0.2-0.2c0.1-0.1,0.1-0.1,0.2-0.2c0.1-0.1,0.1-0.1,0.1-0.2
			c0-0.1,0.1-0.1,0.1-0.2c0-0.1,0.1-0.1,0.1-0.2c0-0.1,0.1-0.2,0.1-0.2c0-0.1,0-0.2,0.1-0.2c0-0.1,0-0.2,0-0.2c0-0.1,0-0.2,0-0.3
			s0-0.2,0-0.3s0-0.2,0-0.2c0-0.1,0-0.2-0.1-0.2c0-0.1-0.1-0.2-0.1-0.2c0-0.1-0.1-0.2-0.1-0.2s-0.1-0.1-0.1-0.2
			c0-0.1-0.1-0.1-0.1-0.2c-0.1-0.1-0.1-0.1-0.2-0.2c-0.1-0.1-0.1-0.1-0.2-0.2c-0.1-0.1-0.1-0.1-0.2-0.1s-0.1-0.1-0.2-0.1
			s-0.1-0.1-0.2-0.1s-0.2-0.1-0.2-0.1c-0.1,0-0.2,0-0.2-0.1c-0.1,0-0.2,0-0.2,0c-0.1,0-0.2,0-0.2,0"/>
		<line class="st5" x1="84.9" y1="151.3" x2="88.3" y2="151.3"/>
		<path class="st5" d="M84.9,151.3L84.9,151.3h-0.2h-0.1h-0.1h-0.1c0,0-0.1,0-0.1,0.1c0,0-0.1,0-0.1,0.1c0,0-0.1,0-0.1,0.1
			c0,0,0,0.1-0.1,0.1c0,0,0,0.1-0.1,0.1c0,0,0,0.1-0.1,0.1v0.1v0.1v0.1v0.1v0.1"/>
		<line class="st5" x1="84.9" y1="156.3" x2="88.3" y2="156.3"/>
		<path class="st5" d="M83.8,155.3v0.1v0.1v0.1v0.1v0.1c0,0,0,0.1,0.1,0.1c0,0,0,0.1,0.1,0.1c0,0,0,0.1,0.1,0.1l0.1,0.1
			c0,0,0.1,0,0.1,0.1c0,0,0.1,0,0.1,0.1h0.1h0.1h0.1h0.1h0.1"/>
		<path class="st5" d="M87.3,146.2c-0.2,0-0.5,0-0.7,0"/>
		<path class="st5" d="M86.6,146.3c-0.2,0-0.5,0.1-0.7,0.1s-0.5,0.1-0.7,0.2c-0.2,0.1-0.5,0.2-0.7,0.3s-0.4,0.2-0.7,0.3
			c-0.2,0.1-0.4,0.2-0.6,0.4c-0.2,0.1-0.4,0.3-0.6,0.4c-0.2,0.2-0.4,0.3-0.5,0.5c-0.2,0.2-0.3,0.4-0.5,0.6c-0.2,0.2-0.3,0.4-0.4,0.6
			c-0.1,0.2-0.3,0.4-0.4,0.6c-0.1,0.2-0.2,0.4-0.3,0.7c-0.1,0.2-0.2,0.5-0.2,0.7c-0.1,0.2-0.1,0.5-0.2,0.7c0,0.2-0.1,0.5-0.1,0.7
			s0,0.5,0,0.8s0,0.5,0,0.8c0,0.2,0.1,0.5,0.1,0.7s0.1,0.5,0.2,0.7s0.2,0.5,0.2,0.7c0.1,0.2,0.2,0.5,0.3,0.7
			c0.1,0.2,0.2,0.4,0.4,0.6c0.1,0.2,0.3,0.4,0.4,0.6c0.2,0.2,0.3,0.4,0.5,0.6c0.2,0.2,0.4,0.3,0.5,0.5c0.2,0.2,0.4,0.3,0.6,0.4
			c0.2,0.1,0.4,0.3,0.6,0.4c0.2,0.1,0.4,0.2,0.7,0.3c0.2,0.1,0.5,0.2,0.7,0.3s0.5,0.1,0.7,0.2c0.2,0,0.5,0.1,0.7,0.1s0.5,0,0.7,0"/>
		<path class="st5" d="M87,156.4c0.1,0,0.2,0,0.2,0c0.1,0,0.2,0,0.2,0c0.1,0,0.2,0,0.2-0.1c0.1,0,0.2-0.1,0.2-0.1
			c0.1,0,0.1-0.1,0.2-0.1s0.1-0.1,0.2-0.1s0.1-0.1,0.2-0.1c0.1-0.1,0.1-0.1,0.2-0.2c0.1-0.1,0.1-0.1,0.2-0.2
			c0.1-0.1,0.1-0.1,0.1-0.2c0-0.1,0.1-0.1,0.1-0.2c0-0.1,0.1-0.1,0.1-0.2c0-0.1,0.1-0.2,0.1-0.2c0-0.1,0-0.2,0.1-0.2
			c0-0.1,0-0.2,0-0.2c0-0.1,0-0.2,0-0.3s0-0.2,0-0.3s0-0.2,0-0.2c0-0.1,0-0.2-0.1-0.2c0-0.1-0.1-0.2-0.1-0.2c0-0.1-0.1-0.2-0.1-0.2
			s-0.1-0.1-0.1-0.2c0-0.1-0.1-0.1-0.1-0.2c-0.1-0.1-0.1-0.1-0.2-0.2c-0.1-0.1-0.1-0.1-0.2-0.2c-0.1-0.1-0.1-0.1-0.2-0.1
			s-0.1-0.1-0.2-0.1s-0.1-0.1-0.2-0.1s-0.2-0.1-0.2-0.1c-0.1,0-0.2,0-0.2-0.1c-0.1,0-0.2,0-0.2,0c-0.1,0-0.2,0-0.2,0"/>
		<path class="st5" d="M68.1,163L68.1,163c0,0.2,0.1,0.3,0.3,0.3l0,0c7,0.6,14.1,1,21.1,0.9l0,0c5.5,0.1,10.1-4.3,10.2-9.9
			c0-0.1,0-0.1,0-0.2v-0.3v-0.3c0-5.5-4.5-10-10-10c-0.1,0-0.1,0-0.2,0l0,0c-7.1,0-14.1,0.3-21.1,1l0,0c-0.1,0-0.2,0.1-0.2,0.3l0,0
			L68.1,163"/>
		<line class="st5" x1="89.7" y1="161.6" x2="87.3" y2="161.6"/>
		<line class="st5" x1="89.7" y1="146.3" x2="87.3" y2="146.3"/>
		<line class="st0" x1="520" y1="327.2" x2="520" y2="318.1"/>
		<line class="st0" x1="474.4" y1="327.2" x2="474.4" y2="318.1"/>
		<path class="st0" d="M474.3,372.9L474.3,372.9c25.2,0,45.6-20.4,45.6-45.6"/>
		<line class="st0" x1="474.4" y1="327.2" x2="474.4" y2="372.8"/>
		<line class="st10" x1="526.5" y1="326.3" x2="526.5" y2="393"/>
		<line class="st0" x1="526.5" y1="326.3" x2="526.5" y2="393"/>
		<line class="st10" x1="526.5" y1="393" x2="596.6" y2="393"/>
		<line class="st0" x1="526.5" y1="393" x2="596.6" y2="393"/>
		<line class="st5" x1="84.9" y1="189.2" x2="68.1" y2="189.2"/>
		<line class="st0" x1="613.2" y1="234.3" x2="613.2" y2="166.4"/>
		<line class="st0" x1="613.2" y1="166.4" x2="658.5" y2="166.4"/>
		<line class="st0" x1="658.5" y1="166.4" x2="658.5" y2="234.3"/>
		<line class="st0" x1="613.2" y1="234.3" x2="658.5" y2="234.3"/>
		<line class="st0" x1="613.2" y1="234.3" x2="613.2" y2="166.4"/>
		<line class="st0" x1="613.2" y1="166.4" x2="658.5" y2="166.4"/>
		<line class="st0" x1="658.5" y1="166.4" x2="658.5" y2="234.3"/>
		<line class="st0" x1="613.2" y1="234.3" x2="658.5" y2="234.3"/>
		<line class="st0" x1="613.2" y1="167.6" x2="613.2" y2="166.4"/>
		<line class="st0" x1="613.2" y1="166.4" x2="614.4" y2="166.4"/>
		<line class="st0" x1="614.4" y1="166.4" x2="614.4" y2="167.6"/>
		<line class="st0" x1="613.2" y1="167.6" x2="614.4" y2="167.6"/>
		<line class="st0" x1="613.2" y1="167.6" x2="613.2" y2="166.4"/>
		<line class="st0" x1="613.2" y1="166.4" x2="614.4" y2="166.4"/>
		<line class="st0" x1="614.4" y1="166.4" x2="614.4" y2="167.6"/>
		<line class="st0" x1="613.2" y1="167.6" x2="614.4" y2="167.6"/>
		<line class="st0" x1="613.2" y1="234.3" x2="613.2" y2="233.4"/>
		<line class="st0" x1="613.2" y1="233.4" x2="614.4" y2="233.4"/>
		<line class="st0" x1="614.4" y1="233.4" x2="614.4" y2="234.3"/>
		<line class="st0" x1="613.2" y1="234.3" x2="614.4" y2="234.3"/>
		<line class="st0" x1="613.2" y1="234.3" x2="613.2" y2="233.4"/>
		<line class="st0" x1="613.2" y1="233.4" x2="614.4" y2="233.4"/>
		<line class="st0" x1="614.4" y1="233.4" x2="614.4" y2="234.3"/>
		<line class="st0" x1="613.2" y1="234.3" x2="614.4" y2="234.3"/>
		<line class="st0" x1="657.3" y1="234.3" x2="657.3" y2="233.4"/>
		<line class="st0" x1="657.3" y1="233.4" x2="658.5" y2="233.4"/>
		<line class="st0" x1="658.5" y1="233.4" x2="658.5" y2="234.3"/>
		<line class="st0" x1="657.3" y1="234.3" x2="658.5" y2="234.3"/>
		<line class="st0" x1="657.3" y1="234.3" x2="657.3" y2="233.4"/>
		<line class="st0" x1="657.3" y1="233.4" x2="658.5" y2="233.4"/>
		<line class="st0" x1="658.5" y1="233.4" x2="658.5" y2="234.3"/>
		<line class="st0" x1="657.3" y1="234.3" x2="658.5" y2="234.3"/>
		<line class="st0" x1="657.3" y1="167.6" x2="657.3" y2="166.4"/>
		<line class="st0" x1="657.3" y1="166.4" x2="658.5" y2="166.4"/>
		<line class="st0" x1="658.5" y1="166.4" x2="658.5" y2="167.6"/>
		<line class="st0" x1="657.3" y1="167.6" x2="658.5" y2="167.6"/>
		<line class="st0" x1="657.3" y1="167.6" x2="657.3" y2="166.4"/>
		<line class="st0" x1="657.3" y1="166.4" x2="658.5" y2="166.4"/>
		<line class="st0" x1="658.5" y1="166.4" x2="658.5" y2="167.6"/>
		<line class="st0" x1="657.3" y1="167.6" x2="658.5" y2="167.6"/>
		<rect x="600.2" y="172.2" class="st5" width="13" height="25.4"/>
		<rect x="600.2" y="203.4" class="st5" width="13" height="25.4"/>
		<rect x="658.5" y="172.2" class="st6" width="13" height="25.4"/>
		<rect x="658.5" y="203.4" class="st6" width="13" height="25.4"/>
		<rect x="623" y="234.3" class="st5" width="25.4" height="13"/>
		<line class="st0" x1="613.2" y1="166.4" x2="613.2" y2="98.5"/>
		<line class="st0" x1="613.2" y1="98.5" x2="658.5" y2="98.5"/>
		<line class="st0" x1="658.5" y1="98.5" x2="658.5" y2="166.4"/>
		<line class="st0" x1="613.2" y1="166.4" x2="658.5" y2="166.4"/>
		<line class="st0" x1="613.2" y1="166.4" x2="613.2" y2="98.5"/>
		<line class="st0" x1="613.2" y1="98.5" x2="658.5" y2="98.5"/>
		<line class="st0" x1="658.5" y1="98.5" x2="658.5" y2="166.4"/>
		<line class="st0" x1="613.2" y1="166.4" x2="658.5" y2="166.4"/>
		<line class="st0" x1="613.2" y1="99.7" x2="613.2" y2="98.5"/>
		<line class="st0" x1="613.2" y1="98.5" x2="614.4" y2="98.5"/>
		<line class="st0" x1="614.4" y1="98.5" x2="614.4" y2="99.7"/>
		<line class="st0" x1="613.2" y1="99.7" x2="614.4" y2="99.7"/>
		<line class="st0" x1="613.2" y1="99.7" x2="613.2" y2="98.5"/>
		<line class="st0" x1="613.2" y1="98.5" x2="614.4" y2="98.5"/>
		<line class="st0" x1="614.4" y1="98.5" x2="614.4" y2="99.7"/>
		<line class="st0" x1="613.2" y1="99.7" x2="614.4" y2="99.7"/>
		<line class="st0" x1="613.2" y1="166.4" x2="613.2" y2="165.2"/>
		<line class="st0" x1="613.2" y1="165.2" x2="614.4" y2="165.2"/>
		<line class="st0" x1="614.4" y1="165.2" x2="614.4" y2="166.4"/>
		<line class="st0" x1="613.2" y1="166.4" x2="614.4" y2="166.4"/>
		<line class="st0" x1="613.2" y1="166.4" x2="613.2" y2="165.2"/>
		<line class="st0" x1="613.2" y1="165.2" x2="614.4" y2="165.2"/>
		<line class="st0" x1="614.4" y1="165.2" x2="614.4" y2="166.4"/>
		<line class="st0" x1="613.2" y1="166.4" x2="614.4" y2="166.4"/>
		<line class="st0" x1="657.3" y1="166.4" x2="657.3" y2="165.2"/>
		<line class="st0" x1="657.3" y1="165.2" x2="658.5" y2="165.2"/>
		<line class="st0" x1="658.5" y1="165.2" x2="658.5" y2="166.4"/>
		<line class="st0" x1="657.3" y1="166.4" x2="658.5" y2="166.4"/>
		<line class="st0" x1="657.3" y1="166.4" x2="657.3" y2="165.2"/>
		<line class="st0" x1="657.3" y1="165.2" x2="658.5" y2="165.2"/>
		<line class="st0" x1="658.5" y1="165.2" x2="658.5" y2="166.4"/>
		<line class="st0" x1="657.3" y1="166.4" x2="658.5" y2="166.4"/>
		<line class="st0" x1="657.3" y1="99.7" x2="657.3" y2="98.5"/>
		<line class="st0" x1="657.3" y1="98.5" x2="658.5" y2="98.5"/>
		<line class="st0" x1="658.5" y1="98.5" x2="658.5" y2="99.7"/>
		<line class="st0" x1="657.3" y1="99.7" x2="658.5" y2="99.7"/>
		<line class="st0" x1="657.3" y1="99.7" x2="657.3" y2="98.5"/>
		<line class="st0" x1="657.3" y1="98.5" x2="658.5" y2="98.5"/>
		<line class="st0" x1="658.5" y1="98.5" x2="658.5" y2="99.7"/>
		<line class="st0" x1="657.3" y1="99.7" x2="658.5" y2="99.7"/>
		<rect x="600.2" y="104" class="st5" width="13" height="25.4"/>
		<rect x="600.2" y="135.5" class="st5" width="13" height="25.4"/>
		<rect x="658.5" y="104" class="st6" width="13" height="25.4"/>
		<rect x="658.5" y="135.5" class="st6" width="13" height="25.4"/>
		<rect x="623" y="85.5" class="st5" width="25.4" height="13"/>
		<line class="st10" x1="596.6" y1="449.6" x2="583.2" y2="449.6"/>
		<line class="st10" x1="596.6" y1="393" x2="583.2" y2="393"/>
		<line class="st10" x1="596.6" y1="449.6" x2="596.6" y2="393"/>
		<line class="st10" x1="583.2" y1="449.6" x2="569.5" y2="449.6"/>
		<line class="st10" x1="583.2" y1="393" x2="569.5" y2="393"/>
		<line class="st10" x1="583.2" y1="449.6" x2="583.2" y2="393"/>
		<line class="st10" x1="569.5" y1="449.6" x2="555.8" y2="449.6"/>
		<line class="st10" x1="569.5" y1="393" x2="555.8" y2="393"/>
		<line class="st10" x1="569.5" y1="449.6" x2="569.5" y2="393"/>
		<line class="st10" x1="555.8" y1="449.6" x2="542.4" y2="449.6"/>
		<line class="st10" x1="555.8" y1="393" x2="542.4" y2="393"/>
		<line class="st10" x1="555.8" y1="449.6" x2="555.8" y2="393"/>
		<line class="st10" x1="542.4" y1="449.6" x2="519.8" y2="449.6"/>
		<line class="st10" x1="542.4" y1="393" x2="537.6" y2="393"/>
		<line class="st10" x1="542.4" y1="449.6" x2="542.4" y2="393"/>
		<line class="st10" x1="519.8" y1="449.6" x2="494.8" y2="449.6"/>
		<line class="st10" x1="537.6" y1="393" x2="533" y2="393"/>
		<line class="st10" x1="519.8" y1="449.6" x2="537.6" y2="393"/>
		<polyline class="st10" points="494.8,449.6 469.9,449.6 469.9,437.6 		"/>
		<line class="st10" x1="533" y1="393" x2="528.2" y2="393"/>
		<line class="st10" x1="494.8" y1="449.6" x2="533" y2="393"/>
		<line class="st10" x1="469.9" y1="437.6" x2="469.9" y2="408.1"/>
		<polyline class="st10" points="528.2,393 526.5,393 526.5,390.1 		"/>
		<line class="st10" x1="469.9" y1="437.6" x2="528.2" y2="393"/>
		<line class="st10" x1="469.9" y1="408.1" x2="469.9" y2="385.3"/>
		<line class="st10" x1="526.5" y1="390.1" x2="526.5" y2="385.3"/>
		<line class="st10" x1="469.9" y1="408.1" x2="526.5" y2="390.1"/>
		<line class="st10" x1="469.9" y1="385.3" x2="469.9" y2="371.6"/>
		<line class="st10" x1="526.5" y1="385.3" x2="526.5" y2="371.6"/>
		<line class="st10" x1="469.9" y1="385.3" x2="526.5" y2="385.3"/>
		<line class="st10" x1="469.9" y1="371.6" x2="469.9" y2="358.2"/>
		<line class="st10" x1="526.5" y1="371.6" x2="526.5" y2="358.2"/>
		<line class="st10" x1="469.9" y1="371.6" x2="526.5" y2="371.6"/>
		<line class="st10" x1="469.9" y1="358.2" x2="469.9" y2="344.5"/>
		<line class="st10" x1="526.5" y1="358.2" x2="526.5" y2="344.5"/>
		<line class="st10" x1="469.9" y1="358.2" x2="526.5" y2="358.2"/>
		<line class="st10" x1="469.9" y1="344.5" x2="469.9" y2="330.8"/>
		<line class="st10" x1="526.5" y1="344.5" x2="526.5" y2="330.8"/>
		<line class="st10" x1="469.9" y1="344.5" x2="526.5" y2="344.5"/>
		<line class="st10" x1="469.9" y1="330.8" x2="469.9" y2="313.8"/>
		<line class="st10" x1="526.5" y1="330.8" x2="526.5" y2="313.8"/>
		<line class="st10" x1="469.9" y1="330.8" x2="526.5" y2="330.8"/>
		<line class="st10" x1="469.9" y1="317.4" x2="526.5" y2="317.4"/>
		<line class="st10" x1="595.6" y1="449.6" x2="595.6" y2="393"/>
		<line class="st10" x1="582" y1="449.6" x2="582" y2="393"/>
		<line class="st10" x1="568.3" y1="449.6" x2="568.3" y2="393"/>
		<line class="st10" x1="554.8" y1="449.6" x2="554.8" y2="393"/>
		<line class="st10" x1="541.2" y1="449.6" x2="541.2" y2="393"/>
		<line class="st10" x1="518.6" y1="449.6" x2="536.4" y2="393"/>
		<line class="st10" x1="493.4" y1="449.6" x2="531.6" y2="393"/>
		<line class="st10" x1="469.9" y1="436.2" x2="526.5" y2="393"/>
		<line class="st10" x1="469.9" y1="406.9" x2="526.5" y2="388.9"/>
		<line class="st10" x1="469.9" y1="384.1" x2="526.5" y2="384.1"/>
		<line class="st10" x1="469.9" y1="370.7" x2="526.5" y2="370.7"/>
		<line class="st10" x1="469.9" y1="357" x2="526.5" y2="357"/>
		<line class="st10" x1="469.9" y1="343.3" x2="526.5" y2="343.3"/>
		<line class="st10" x1="469.9" y1="329.9" x2="526.5" y2="329.9"/>
		<line class="st10" x1="469.9" y1="316.2" x2="526.5" y2="316.2"/>
		<rect x="180" y="392" class="st6" width="25.4" height="13"/>
	</g>
</g>
<g id="Beschriftung">
	<g>
		<g>
			<path d="M797.5,104v-2.9l9.8-13l1.5,1.8h-10.6v-4.1h13.7v2.9l-9.7,13l-1.6-1.6h11.6v3.9H797.5z"/>
			<path d="M817.8,87.5c-0.8,0-1.4-0.2-1.8-0.6c-0.4-0.4-0.7-0.9-0.7-1.6c0-0.6,0.2-1.1,0.7-1.5c0.5-0.4,1.1-0.6,1.8-0.6
				c0.8,0,1.4,0.2,1.8,0.6c0.4,0.4,0.6,0.9,0.6,1.6c0,0.6-0.2,1.2-0.7,1.6C819.2,87.3,818.6,87.5,817.8,87.5z M815.7,104V90.2h4.2
				V104H815.7z"/>
			<path d="M823.8,104V90.2h4l0.1,2.5l-0.5,0c0.2-0.5,0.5-0.8,0.8-1.2c0.3-0.3,0.7-0.6,1.1-0.9s0.8-0.4,1.3-0.5
				c0.4-0.1,0.9-0.2,1.3-0.2c0.7,0,1.3,0.1,1.8,0.3s1,0.5,1.5,1c0.4,0.5,0.7,1.1,1,1.9l-0.6-0.1l0.2-0.4c0.2-0.4,0.5-0.8,0.9-1.1
				c0.4-0.3,0.7-0.6,1.2-0.9s0.9-0.4,1.4-0.5c0.5-0.1,0.9-0.2,1.4-0.2c1.1,0,2,0.2,2.7,0.6c0.7,0.4,1.3,1.1,1.7,1.9
				c0.4,0.8,0.6,1.9,0.6,3.1v8.4h-4.2v-8.1c0-0.6-0.1-1-0.2-1.4c-0.2-0.4-0.4-0.6-0.7-0.8c-0.3-0.2-0.7-0.3-1.1-0.3
				c-0.4,0-0.7,0.1-1,0.2c-0.3,0.1-0.6,0.3-0.8,0.5s-0.4,0.5-0.5,0.7s-0.2,0.6-0.2,0.9v8.2h-4.2v-8.1c0-0.5-0.1-1-0.2-1.3
				c-0.2-0.4-0.4-0.6-0.7-0.8c-0.3-0.2-0.7-0.3-1.1-0.3c-0.4,0-0.7,0.1-1,0.2c-0.3,0.1-0.6,0.3-0.8,0.5c-0.2,0.2-0.4,0.5-0.5,0.7
				c-0.1,0.3-0.2,0.6-0.2,0.9v8.2H823.8z"/>
			<path d="M848.8,104V90.2h4l0.1,2.5l-0.5,0c0.2-0.5,0.5-0.8,0.8-1.2c0.3-0.3,0.7-0.6,1.1-0.9s0.8-0.4,1.3-0.5
				c0.4-0.1,0.9-0.2,1.3-0.2c0.7,0,1.3,0.1,1.8,0.3s1,0.5,1.5,1c0.4,0.5,0.7,1.1,1,1.9l-0.6-0.1l0.2-0.4c0.2-0.4,0.5-0.8,0.9-1.1
				c0.4-0.3,0.7-0.6,1.2-0.9s0.9-0.4,1.4-0.5c0.5-0.1,0.9-0.2,1.4-0.2c1.1,0,2,0.2,2.7,0.6c0.7,0.4,1.3,1.1,1.7,1.9
				c0.4,0.8,0.6,1.9,0.6,3.1v8.4h-4.2v-8.1c0-0.6-0.1-1-0.2-1.4c-0.2-0.4-0.4-0.6-0.7-0.8c-0.3-0.2-0.7-0.3-1.1-0.3
				c-0.4,0-0.7,0.1-1,0.2c-0.3,0.1-0.6,0.3-0.8,0.5s-0.4,0.5-0.5,0.7s-0.2,0.6-0.2,0.9v8.2h-4.2v-8.1c0-0.5-0.1-1-0.2-1.3
				c-0.2-0.4-0.4-0.6-0.7-0.8c-0.3-0.2-0.7-0.3-1.1-0.3c-0.4,0-0.7,0.1-1,0.2c-0.3,0.1-0.6,0.3-0.8,0.5c-0.2,0.2-0.4,0.5-0.5,0.7
				c-0.1,0.3-0.2,0.6-0.2,0.9v8.2H848.8z"/>
			<path d="M880.4,104.3c-1.5,0-2.9-0.3-4-0.9c-1.1-0.6-2-1.5-2.6-2.5s-0.9-2.3-0.9-3.7c0-1.1,0.2-2,0.5-2.9
				c0.3-0.9,0.8-1.7,1.5-2.3c0.6-0.7,1.4-1.2,2.2-1.5c0.9-0.4,1.8-0.5,2.8-0.5c1,0,1.9,0.2,2.7,0.5c0.8,0.3,1.5,0.8,2.1,1.5
				c0.6,0.6,1,1.4,1.4,2.2c0.3,0.8,0.5,1.8,0.4,2.8l0,1.1h-11l-0.6-2.3h8.2l-0.4,0.5v-0.5c0-0.4-0.2-0.8-0.4-1.2
				c-0.2-0.3-0.5-0.6-0.9-0.8s-0.8-0.3-1.3-0.3c-0.7,0-1.3,0.1-1.7,0.4c-0.5,0.3-0.8,0.7-1.1,1.2c-0.2,0.5-0.4,1.1-0.4,1.9
				c0,0.8,0.2,1.4,0.5,2c0.3,0.6,0.8,1,1.4,1.3s1.3,0.5,2.2,0.5c0.6,0,1.1-0.1,1.6-0.3c0.5-0.2,1-0.5,1.5-0.9l2,2.8
				c-0.5,0.5-1.1,0.8-1.7,1.1c-0.6,0.3-1.2,0.5-1.9,0.7S881,104.3,880.4,104.3z"/>
			<path d="M889.1,104V90.2h4l0.2,4.5l-0.8-0.9c0.2-0.7,0.5-1.4,1-2c0.5-0.6,1-1.1,1.7-1.4c0.6-0.3,1.3-0.5,2.1-0.5
				c0.3,0,0.6,0,0.9,0.1c0.3,0.1,0.5,0.1,0.7,0.2l-1.1,4.6c-0.2-0.1-0.4-0.2-0.8-0.3c-0.3-0.1-0.7-0.1-1-0.1c-0.4,0-0.7,0.1-1.1,0.2
				c-0.3,0.1-0.6,0.3-0.8,0.6c-0.2,0.2-0.4,0.5-0.5,0.9c-0.1,0.3-0.2,0.7-0.2,1.1v6.9H889.1z"/>
			<path d="M912.8,102.7V88l1,2.2l-3.9,1.8l-0.8-4l5.2-2.5h2.9v17.2H912.8z M909.5,104v-3.9h11.1v3.9H909.5z"/>
		</g>
	</g>
</g>
</svg>
