<?xml version="1.0" encoding="utf-8"?>
<!-- Generator: Adobe Illustrator 27.5.0, SVG Export Plug-In . SVG Version: 6.00 Build 0)  -->
<svg version="1.1" xmlns="http://www.w3.org/2000/svg" xmlns:xlink="http://www.w3.org/1999/xlink" x="0px" y="0px"
	 viewBox="0 0 1009 485.1" style="enable-background:new 0 0 1009 485.1;" xml:space="preserve">
<style type="text/css">
	.st0{opacity:0.13;}
	.st1{fill:#00E0E0;}
	.st2{fill:#FFFFFF;}
	.st3{fill:none;stroke:#000000;stroke-width:0.504;stroke-linecap:round;stroke-linejoin:round;stroke-miterlimit:10;}
	.st4{fill:none;stroke:#000000;stroke-width:0.144;stroke-linecap:round;stroke-linejoin:round;stroke-miterlimit:10;}
	.st5{fill:none;stroke:#000000;stroke-width:0.36;stroke-linecap:round;stroke-linejoin:round;stroke-miterlimit:10;}
	.st6{fill:none;stroke:#000000;stroke-width:0.36;stroke-linejoin:round;stroke-miterlimit:10;}
	.st7{fill:none;stroke:#000000;stroke-width:0.288;stroke-linejoin:round;stroke-miterlimit:10;}
	
		.st8{fill:none;stroke:#000000;stroke-width:0.288;stroke-linecap:round;stroke-linejoin:round;stroke-miterlimit:10;stroke-dasharray:0.48,2.16;}
	
		.st9{fill:none;stroke:#000000;stroke-width:0.288;stroke-linecap:round;stroke-linejoin:round;stroke-miterlimit:10;stroke-dasharray:0.48,2.16;stroke-dashoffset:1;}
	
		.st10{fill:none;stroke:#000000;stroke-width:0.288;stroke-linecap:round;stroke-linejoin:round;stroke-miterlimit:10;stroke-dasharray:0.48,2.16;stroke-dashoffset:2;}
	.st11{fill:none;stroke:#715A3F;stroke-width:0.288;stroke-linecap:round;stroke-linejoin:round;stroke-miterlimit:10;}
	.st12{fill:none;stroke:#000000;stroke-width:0.504;stroke-linejoin:round;stroke-miterlimit:10;}
	.st13{fill:none;stroke:#000000;stroke-width:0.288;stroke-linecap:round;stroke-linejoin:round;stroke-miterlimit:10;}
	.st14{fill:none;stroke:#715A3F;stroke-width:0.36;stroke-linecap:round;stroke-linejoin:round;stroke-miterlimit:10;}
	.st15{fill:none;stroke:#000000;stroke-width:0.144;stroke-linejoin:round;stroke-miterlimit:10;}
</style>
<g id="Privat">
	<rect x="46.6" y="53.9" class="st0" width="187.7" height="366.1"/>
	<rect x="617.1" y="313.5" class="st0" width="109.1" height="105.9"/>
</g>
<g id="Wände">
	<polygon class="st1" points="243.6,252.3 243.6,249.6 241.7,247.7 241.7,242 243.6,240 243.6,53.8 234,53.8 234,252.3 	"/>
	<rect x="234" y="53.8" class="st1" width="0.2" height="198.5"/>
	<rect x="234.2" y="53.8" class="st1" width="1.7" height="198.5"/>
	<rect x="235.9" y="53.8" class="st1" width="5.8" height="198.5"/>
	<polygon class="st1" points="243.4,252.3 243.4,249.4 241.7,247.7 241.7,252.3 	"/>
	<polygon class="st1" points="241.7,53.8 241.7,242 243.4,240.3 243.4,53.8 	"/>
	<polygon class="st1" points="243.6,252.3 243.6,249.6 243.4,249.4 243.4,252.3 	"/>
	<polygon class="st1" points="243.4,53.8 243.4,240.3 243.6,240 243.6,53.8 	"/>
	<polygon class="st1" points="243.6,419.6 243.6,313.7 241.7,311.8 241.7,308.4 243.6,306.3 243.6,296.9 234,296.9 234,419.6 	"/>
	<rect x="234" y="296.9" class="st1" width="0.2" height="122.6"/>
	<rect x="234.2" y="296.9" class="st1" width="1.7" height="122.6"/>
	<rect x="235.9" y="296.9" class="st1" width="5.8" height="122.6"/>
	<polygon class="st1" points="243.4,419.6 243.4,313.5 241.7,311.8 241.7,419.6 	"/>
	<polygon class="st1" points="241.7,296.9 241.7,308.4 243.4,306.8 243.4,296.9 	"/>
	<polygon class="st1" points="243.6,419.6 243.6,313.7 243.4,313.5 243.4,419.6 	"/>
	<polygon class="st1" points="243.4,296.9 243.4,306.8 243.6,306.3 243.6,296.9 	"/>
	<rect x="601.7" y="53.8" class="st1" width="7.2" height="187.4"/>
	<rect x="601.7" y="53.8" class="st1" width="0.2" height="187.4"/>
	<rect x="601.9" y="53.8" class="st1" width="1.7" height="187.4"/>
	<rect x="603.6" y="53.8" class="st1" width="3.4" height="187.4"/>
	<rect x="607" y="53.8" class="st1" width="1.7" height="187.4"/>
	<rect x="608.6" y="53.8" class="st1" width="0.2" height="187.4"/>
	<polygon class="st1" points="849.4,242 852.7,242 854.6,240 854.6,53.8 847.4,53.8 847.4,240 	"/>
	<polygon class="st1" points="847.4,53.8 847.4,240 847.7,240.3 847.7,53.8 	"/>
	<polygon class="st1" points="847.7,53.8 847.7,240.3 849.4,242 849.4,53.8 	"/>
	<rect x="849.4" y="53.8" class="st1" width="3.4" height="188.2"/>
	<polygon class="st1" points="852.7,53.8 852.7,242 854.4,240.3 854.4,53.8 	"/>
	<polygon class="st1" points="854.4,53.8 854.4,240.3 854.6,240 854.6,53.8 	"/>
	<rect x="960.7" y="313.2" class="st1" width="20.9" height="146.6"/>
	<rect x="960.7" y="22.4" class="st1" width="20.9" height="229.2"/>
	<rect x="26.2" y="22.4" class="st1" width="20.6" height="190.1"/>
	<rect x="26.2" y="269.8" class="st1" width="20.6" height="190.1"/>
	<polygon class="st1" points="479.5,242 485,242 487.2,240 487.2,53.8 477.4,53.8 477.4,240 	"/>
	<polygon class="st1" points="477.4,53.8 477.4,240 477.8,240.3 477.8,53.8 	"/>
	<polygon class="st1" points="477.8,53.8 477.8,240.3 479.5,242 479.5,53.8 	"/>
	<rect x="479.5" y="53.8" class="st1" width="5.5" height="188.2"/>
	<polygon class="st1" points="485,53.8 485,242 486.7,240.3 486.7,53.8 	"/>
	<polygon class="st1" points="486.7,53.8 486.7,240.3 487.2,240 487.2,53.8 	"/>
	<rect x="726" y="53.8" class="st1" width="7.4" height="186.5"/>
	<rect x="726" y="53.8" class="st1" width="0.2" height="186.5"/>
	<rect x="726.2" y="53.8" class="st1" width="1.7" height="186.5"/>
	<rect x="727.9" y="53.8" class="st1" width="3.6" height="186.5"/>
	<rect x="731.5" y="53.8" class="st1" width="1.7" height="186.5"/>
	<rect x="733.2" y="53.8" class="st1" width="0.2" height="186.5"/>
	<polygon class="st1" points="340.3,419.6 340.3,306.3 332.9,313.7 332.9,419.6 	"/>
	<polygon class="st1" points="340.3,419.6 340.3,306.3 340.1,306.8 340.1,419.6 	"/>
	<polygon class="st1" points="340.1,419.6 340.1,306.8 338.4,308.4 338.4,419.6 	"/>
	<polygon class="st1" points="338.4,419.6 338.4,308.4 335,311.8 335,419.6 	"/>
	<polygon class="st1" points="335,419.6 335,311.8 333.4,313.5 333.4,419.6 	"/>
	<polygon class="st1" points="333.4,419.6 333.4,313.5 332.9,313.7 332.9,419.6 	"/>
	<polygon class="st1" points="733.4,419.6 733.4,306.3 726,313.7 726,419.6 	"/>
	<polygon class="st1" points="733.4,419.6 733.4,306.3 733.2,306.8 733.2,419.6 	"/>
	<polygon class="st1" points="733.2,419.6 733.2,306.8 731.5,308.4 731.5,419.6 	"/>
	<polygon class="st1" points="731.5,419.6 731.5,308.4 728.2,311.8 728.2,419.6 	"/>
	<polygon class="st1" points="728.2,419.6 728.2,311.8 726.2,313.5 726.2,419.6 	"/>
	<polygon class="st1" points="726.2,419.6 726.2,313.5 726,313.7 726,419.6 	"/>
	<polygon class="st1" points="511.2,313.2 511.2,306.3 558.7,306.3 551.8,313.2 	"/>
	<polygon class="st1" points="511.2,306.3 511.2,313.2 551.8,313.2 558.7,306.3 	"/>
	<polygon class="st1" points="367,240.3 367,240 367.2,240 367.2,53.8 356.4,53.8 356.4,240 356.6,240 356.6,240.3 358.3,240.3 
		358.3,242 365.3,242 365.3,240.3 	"/>
	<rect x="356.4" y="53.8" class="st1" width="0.2" height="186.2"/>
	<rect x="356.6" y="53.8" class="st1" width="1.7" height="186.5"/>
	<rect x="358.3" y="53.8" class="st1" width="7" height="188.2"/>
	<rect x="365.3" y="53.8" class="st1" width="1.7" height="186.5"/>
	<rect x="367" y="53.8" class="st1" width="0.2" height="186.2"/>
	<polygon class="st1" points="46.8,425.3 46.8,419.6 454.6,419.6 448.8,425.3 	"/>
	<polygon class="st1" points="46.8,419.6 46.8,420 453.8,420 454.6,419.6 	"/>
	<polygon class="st1" points="46.8,420 46.8,421.2 452.6,421.2 453.8,420 	"/>
	<polygon class="st1" points="46.8,421.2 46.8,425.3 448.8,425.3 452.6,421.2 	"/>
	<rect x="46.8" y="48.3" class="st1" width="913.9" height="5.5"/>
	<rect x="46.8" y="53.3" class="st1" width="913.9" height="0.5"/>
	<rect x="46.8" y="52.1" class="st1" width="913.9" height="1.2"/>
	<rect x="46.8" y="48.3" class="st1" width="913.9" height="3.8"/>
	<rect x="447.6" y="306.3" class="st1" width="6.7" height="113.5"/>
	<rect x="447.6" y="306.3" class="st1" width="6.7" height="113.5"/>
	<polygon class="st1" points="557,425.3 551.5,419.6 960.7,419.6 960.7,425.3 	"/>
	<polygon class="st1" points="551.5,419.6 552,420 960.7,420 960.7,419.6 	"/>
	<polygon class="st1" points="552,420 553.2,421.2 960.7,421.2 960.7,420 	"/>
	<polygon class="st1" points="553.2,421.2 557,425.3 960.7,425.3 960.7,421.2 	"/>
	<rect x="468.5" y="53.8" class="st1" width="11.3" height="75.4"/>
	<polygon class="st1" points="617,419.6 617,313.7 609.6,306.3 609.6,419.6 	"/>
	<polygon class="st1" points="617,419.6 617,313.7 616.6,313.5 616.6,419.6 	"/>
	<polygon class="st1" points="616.6,419.6 616.6,313.5 614.9,311.8 614.9,419.6 	"/>
	<polygon class="st1" points="614.9,419.6 614.9,311.8 611.5,308.4 611.5,419.6 	"/>
	<polygon class="st1" points="611.5,419.6 611.5,308.4 609.8,306.8 609.8,419.6 	"/>
	<polygon class="st1" points="609.8,419.6 609.8,306.8 609.6,306.3 609.6,419.6 	"/>
	<polygon class="st1" points="558.7,419.8 552,419.8 551.8,313.2 558.7,306.3 	"/>
	<polyline class="st1" points="558,306.4 551.3,313.4 551.6,419.9 558,419.9 	"/>
	<polygon class="st1" points="79.2,53.8 90.5,53.8 90.7,113.1 79.4,101.8 	"/>
	<polygon class="st1" points="90.5,53.8 79.2,53.8 79.4,101.8 90.7,113.1 	"/>
	<polygon class="st1" points="46.8,113.3 46.6,102 79.4,101.8 90.7,113.1 	"/>
	<polygon class="st1" points="46.6,102 46.8,113.3 90.7,113.1 79.4,101.8 	"/>
	<polygon class="st1" points="448.8,443.1 454.6,437.3 551.5,437.3 557,443.1 	"/>
	<polygon class="st1" points="454.6,437.3 453.8,438 552,438 551.5,437.3 	"/>
	<polygon class="st1" points="453.8,438 452.6,439 553.2,439 552,438 	"/>
	<polygon class="st1" points="452.6,439 448.8,443.1 557,443.1 553.2,439 	"/>
	<polygon class="st1" points="448.8,425.3 454.6,419.6 454.6,437.3 448.8,443.1 	"/>
	<polygon class="st1" points="454.6,419.6 453.8,420 453.8,438 454.6,437.3 	"/>
	<polygon class="st1" points="453.8,420 452.6,421.2 452.6,439 453.8,438 	"/>
	<polygon class="st1" points="452.6,421.2 448.8,425.3 448.8,443.1 452.6,439 	"/>
	<polyline class="st1" points="551.5,419.6 557,425.3 557,443.1 551.5,437.3 	"/>
	<polygon class="st1" points="553.2,439 557,443.1 557,425.3 553.2,421.2 	"/>
	<polygon class="st1" points="241.7,247.7 243.6,249.6 309.6,249.6 309.6,240 243.6,240 241.7,242 	"/>
	<polygon class="st1" points="243.4,249.4 243.6,249.6 309.6,249.6 309.6,249.4 	"/>
	<polygon class="st1" points="241.7,247.7 243.4,249.4 309.6,249.4 309.6,247.7 	"/>
	<rect x="241.7" y="242" class="st1" width="67.9" height="5.8"/>
	<polygon class="st1" points="243.4,240.3 241.7,242 309.6,242 309.6,240.3 	"/>
	<polygon class="st1" points="243.6,240 243.4,240.3 309.6,240.3 309.6,240 	"/>
	<polygon class="st1" points="356.6,240.3 356.6,240 354.2,240 354.2,249.6 430.1,249.6 430.1,240 367,240 367,240.3 365.3,240.3 
		365.3,242 358.3,242 358.3,240.3 	"/>
	<rect x="354.2" y="249.4" class="st1" width="75.8" height="0.2"/>
	<rect x="354.2" y="247.7" class="st1" width="75.8" height="1.7"/>
	<rect x="354.2" y="242" class="st1" width="75.8" height="5.8"/>
	<rect x="354.2" y="240.3" class="st1" width="4.1" height="1.7"/>
	<rect x="365.3" y="240.3" class="st1" width="64.8" height="1.7"/>
	<rect x="354.2" y="240" class="st1" width="2.4" height="0.2"/>
	<rect x="367" y="240" class="st1" width="63.1" height="0.2"/>
	<polygon class="st1" points="479.5,242 477.4,240 474.7,240 474.7,249.6 554.6,249.6 554.6,240 487.2,240 485,242 	"/>
	<rect x="474.7" y="249.4" class="st1" width="79.9" height="0.2"/>
	<rect x="474.7" y="247.7" class="st1" width="79.9" height="1.7"/>
	<rect x="474.7" y="242" class="st1" width="79.9" height="5.8"/>
	<polygon class="st1" points="479.5,242 477.8,240.3 474.7,240.3 474.7,242 	"/>
	<polygon class="st1" points="486.7,240.3 485,242 554.6,242 554.6,240.3 	"/>
	<polygon class="st1" points="477.8,240.3 477.4,240 474.7,240 474.7,240.3 	"/>
	<polygon class="st1" points="487.2,240 486.7,240.3 554.6,240.3 554.6,240 	"/>
	<rect x="599.3" y="240" class="st1" width="11.8" height="9.6"/>
	<rect x="599.3" y="249.4" class="st1" width="11.8" height="0.2"/>
	<rect x="599.3" y="247.7" class="st1" width="11.8" height="1.7"/>
	<rect x="599.3" y="242" class="st1" width="11.8" height="5.8"/>
	<rect x="599.3" y="240.3" class="st1" width="11.8" height="1.7"/>
	<rect x="599.3" y="240" class="st1" width="11.8" height="0.2"/>
	<rect x="655.7" y="240" class="st1" width="141.6" height="9.6"/>
	<rect x="655.7" y="249.4" class="st1" width="141.6" height="0.2"/>
	<rect x="655.7" y="247.7" class="st1" width="141.6" height="1.7"/>
	<rect x="655.7" y="242" class="st1" width="141.6" height="5.8"/>
	<rect x="655.7" y="240.3" class="st1" width="141.6" height="1.7"/>
	<rect x="655.7" y="240" class="st1" width="141.6" height="0.2"/>
	<polygon class="st1" points="849.4,242 847.4,240 841.9,240 841.9,249.6 854.4,249.6 854.4,240.3 852.7,242 	"/>
	<rect x="841.9" y="249.4" class="st1" width="12.5" height="0.2"/>
	<rect x="841.9" y="247.7" class="st1" width="12.5" height="1.7"/>
	<rect x="841.9" y="242" class="st1" width="12.5" height="5.8"/>
	<polygon class="st1" points="849.4,242 847.7,240.3 841.9,240.3 841.9,242 	"/>
	<polygon class="st1" points="854.4,240.3 852.7,242 854.4,242 	"/>
	<polygon class="st1" points="847.7,240.3 847.4,240 841.9,240 841.9,240.3 	"/>
	<path class="st1" d="M854.4,240.3"/>
	<rect x="899" y="240" class="st1" width="61.7" height="9.6"/>
	<rect x="899" y="249.4" class="st1" width="61.7" height="0.2"/>
	<rect x="899" y="247.7" class="st1" width="61.7" height="1.7"/>
	<rect x="899" y="242" class="st1" width="61.7" height="5.8"/>
	<rect x="899" y="240.3" class="st1" width="61.7" height="1.7"/>
	<rect x="899" y="240" class="st1" width="61.7" height="0.2"/>
	<rect x="367.2" y="147.4" class="st1" width="11.3" height="32.4"/>
	<polygon class="st1" points="241.7,311.8 243.6,313.7 270,313.7 270,306.3 243.6,306.3 241.7,308.4 	"/>
	<polygon class="st1" points="243.4,313.5 243.6,313.7 270,313.7 270,313.5 	"/>
	<polygon class="st1" points="241.7,311.8 243.4,313.5 270,313.5 270,311.8 	"/>
	<rect x="241.7" y="308.4" class="st1" width="28.3" height="3.4"/>
	<polygon class="st1" points="243.4,306.8 241.7,308.4 270,308.4 270,306.8 	"/>
	<polygon class="st1" points="243.6,306.3 243.4,306.8 270,306.8 270,306.3 	"/>
	<polygon class="st1" points="306,313.7 332.9,313.7 340.3,306.3 306,306.3 	"/>
	<polygon class="st1" points="306,313.7 332.9,313.7 333.4,313.5 306,313.5 	"/>
	<polygon class="st1" points="306,313.5 333.4,313.5 335,311.8 306,311.8 	"/>
	<polygon class="st1" points="306,311.8 335,311.8 338.4,308.4 306,308.4 	"/>
	<polygon class="st1" points="306,308.4 338.4,308.4 340.1,306.8 306,306.8 	"/>
	<polygon class="st1" points="306,306.8 340.1,306.8 340.3,306.3 306,306.3 	"/>
	<polygon class="st1" points="609.6,306.3 617,313.7 653,313.7 653,306.3 	"/>
	<polygon class="st1" points="616.6,313.5 617,313.7 653,313.7 653,313.5 	"/>
	<polygon class="st1" points="614.9,311.8 616.6,313.5 653,313.5 653,311.8 	"/>
	<polygon class="st1" points="611.5,308.4 614.9,311.8 653,311.8 653,308.4 	"/>
	<polygon class="st1" points="609.8,306.8 611.5,308.4 653,308.4 653,306.8 	"/>
	<polygon class="st1" points="609.6,306.3 609.8,306.8 653,306.8 653,306.3 	"/>
	<polygon class="st1" points="689,313.7 726,313.7 733.4,306.3 689,306.3 	"/>
	<polygon class="st1" points="689,313.7 726,313.7 726.2,313.5 689,313.5 	"/>
	<polygon class="st1" points="689,313.5 726.2,313.5 728.2,311.8 689,311.8 	"/>
	<polygon class="st1" points="689,311.8 728.2,311.8 731.5,308.4 689,308.4 	"/>
	<polygon class="st1" points="689,308.4 731.5,308.4 733.2,306.8 689,306.8 	"/>
	<polygon class="st1" points="689,306.8 733.2,306.8 733.4,306.3 689,306.3 	"/>
</g>
<g id="Layer_1">
	<g>
		<rect x="540.5" y="381" class="st2" width="13.7" height="56.6"/>
		<rect x="540.5" y="381" class="st3" width="13.7" height="56.6"/>
		<path class="st4" d="M847.7,53.9"/>
		<path class="st4" d="M847.5,53.9"/>
		<path class="st5" d="M849.4,53.9"/>
		<path class="st5" d="M847.7,53.9"/>
		<path class="st5" d="M854.5,53.9"/>
		<path class="st5" d="M852.8,53.9"/>
		<path class="st4" d="M854.7,53.9"/>
		<path class="st4" d="M854.5,53.9"/>
	</g>
	<g>
		<rect x="968.4" y="254.4" class="st2" width="5.8" height="55.9"/>
		<rect x="968.5" y="254.5" class="st6" width="5.8" height="55.9"/>
		<rect x="968.4" y="251.6" class="st2" width="5.8" height="2.9"/>
		<rect x="968.5" y="251.6" class="st6" width="5.8" height="2.9"/>
		<rect x="968.4" y="310.4" class="st2" width="5.8" height="2.9"/>
		<rect x="968.5" y="310.4" class="st6" width="5.8" height="2.9"/>
		<line class="st5" x1="974.2" y1="251.6" x2="974.2" y2="254.5"/>
		<line class="st5" x1="974.2" y1="313.3" x2="974.2" y2="310.4"/>
		<line class="st5" x1="968.5" y1="251.6" x2="968.5" y2="254.5"/>
		<line class="st5" x1="968.5" y1="313.3" x2="968.5" y2="310.4"/>
		<line class="st5" x1="974.2" y1="254.5" x2="968.5" y2="254.5"/>
		<line class="st5" x1="974.2" y1="310.4" x2="968.5" y2="310.4"/>
		<line class="st5" x1="971.3" y1="257.4" x2="971.3" y2="307.5"/>
	</g>
	<rect x="33.4" y="222.3" class="st2" width="3.4" height="37.9"/>
	<rect x="33.4" y="222.3" class="st7" width="3.4" height="37.9"/>
	<rect x="31.7" y="264" class="st2" width="3.4" height="5.8"/>
	<rect x="31.7" y="264" class="st7" width="3.4" height="5.8"/>
	<rect x="31.7" y="212.4" class="st2" width="3.4" height="5.8"/>
	<rect x="31.7" y="212.4" class="st7" width="3.4" height="5.8"/>
	<rect x="33.4" y="260.2" class="st2" width="3.4" height="5.5"/>
	<rect x="33.4" y="260.2" class="st7" width="3.4" height="5.5"/>
	<rect x="33.4" y="216.5" class="st2" width="3.4" height="5.8"/>
	<rect x="33.4" y="216.5" class="st7" width="3.4" height="5.8"/>
	<path class="st4" d="M477.9,53.9"/>
	<path class="st4" d="M477.4,53.9"/>
	<path class="st5" d="M479.6,53.9"/>
	<path class="st5" d="M477.9,53.9"/>
	<path class="st5" d="M486.8,53.9"/>
	<path class="st5" d="M485.1,53.9"/>
	<path class="st4" d="M487.3,53.9"/>
	<path class="st4" d="M486.8,53.9"/>
	<path class="st4" d="M726.3,53.9"/>
	<path class="st4" d="M726.1,53.9"/>
	<path class="st5" d="M728,53.9"/>
	<path class="st5" d="M726.3,53.9"/>
	<path class="st5" d="M733.3,53.9"/>
	<path class="st5" d="M731.6,53.9"/>
	<path class="st4" d="M733.5,53.9"/>
	<path class="st4" d="M733.3,53.9"/>
	<line class="st4" x1="511.3" y1="313.3" x2="551.8" y2="313.3"/>
	<line class="st4" x1="511.3" y1="306.3" x2="558.8" y2="306.3"/>
	<line class="st4" x1="511.3" y1="313.3" x2="511.3" y2="306.3"/>
	<line class="st4" x1="854.5" y1="174.3" x2="854.5" y2="175.5"/>
	<line class="st4" x1="854.5" y1="175.5" x2="877.7" y2="175.5"/>
	<line class="st4" x1="877.7" y1="175.5" x2="877.7" y2="174.3"/>
	<line class="st4" x1="854.5" y1="174.3" x2="877.7" y2="174.3"/>
	<line class="st4" x1="854.5" y1="174.3" x2="854.5" y2="175.5"/>
	<line class="st4" x1="854.5" y1="175.5" x2="877.7" y2="175.5"/>
	<line class="st4" x1="877.7" y1="175.5" x2="877.7" y2="174.3"/>
	<line class="st4" x1="854.5" y1="174.3" x2="877.7" y2="174.3"/>
	<line class="st4" x1="854.5" y1="142.2" x2="854.5" y2="175.5"/>
	<line class="st4" x1="854.5" y1="175.5" x2="877.7" y2="175.5"/>
	<line class="st4" x1="877.7" y1="175.5" x2="877.7" y2="142.2"/>
	<line class="st4" x1="854.5" y1="142.2" x2="877.7" y2="142.2"/>
	<line class="st4" x1="854.5" y1="142.2" x2="854.5" y2="175.5"/>
	<line class="st4" x1="854.5" y1="175.5" x2="877.7" y2="175.5"/>
	<line class="st4" x1="877.7" y1="175.5" x2="877.7" y2="142.2"/>
	<line class="st4" x1="854.5" y1="142.2" x2="877.7" y2="142.2"/>
	<line class="st4" x1="854.5" y1="142.2" x2="854.5" y2="143.1"/>
	<line class="st4" x1="854.5" y1="143.1" x2="877.7" y2="143.1"/>
	<line class="st4" x1="877.7" y1="143.1" x2="877.7" y2="142.2"/>
	<line class="st4" x1="854.5" y1="142.2" x2="877.7" y2="142.2"/>
	<line class="st4" x1="854.5" y1="142.2" x2="854.5" y2="143.1"/>
	<line class="st4" x1="854.5" y1="143.1" x2="877.7" y2="143.1"/>
	<line class="st4" x1="877.7" y1="143.1" x2="877.7" y2="142.2"/>
	<line class="st4" x1="854.5" y1="142.2" x2="877.7" y2="142.2"/>
	<line class="st4" x1="356.5" y1="174.3" x2="356.5" y2="175.5"/>
	<line class="st4" x1="356.5" y1="175.5" x2="333.4" y2="175.5"/>
	<line class="st4" x1="333.4" y1="175.5" x2="333.4" y2="174.3"/>
	<line class="st4" x1="356.5" y1="174.3" x2="333.4" y2="174.3"/>
	<line class="st4" x1="356.5" y1="174.3" x2="356.5" y2="175.5"/>
	<line class="st4" x1="356.5" y1="175.5" x2="333.4" y2="175.5"/>
	<line class="st4" x1="333.4" y1="175.5" x2="333.4" y2="174.3"/>
	<line class="st4" x1="356.5" y1="174.3" x2="333.4" y2="174.3"/>
	<line class="st4" x1="356.5" y1="141.9" x2="356.5" y2="175.5"/>
	<line class="st4" x1="356.5" y1="175.5" x2="333.4" y2="175.5"/>
	<line class="st4" x1="333.4" y1="175.5" x2="333.4" y2="141.9"/>
	<line class="st4" x1="356.5" y1="141.9" x2="333.4" y2="141.9"/>
	<line class="st4" x1="356.5" y1="141.9" x2="356.5" y2="175.5"/>
	<line class="st4" x1="356.5" y1="175.5" x2="333.4" y2="175.5"/>
	<line class="st4" x1="333.4" y1="175.5" x2="333.4" y2="141.9"/>
	<line class="st4" x1="356.5" y1="141.9" x2="333.4" y2="141.9"/>
	<line class="st4" x1="356.5" y1="141.9" x2="356.5" y2="143.1"/>
	<line class="st4" x1="356.5" y1="143.1" x2="333.4" y2="143.1"/>
	<line class="st4" x1="333.4" y1="143.1" x2="333.4" y2="141.9"/>
	<line class="st4" x1="356.5" y1="141.9" x2="333.4" y2="141.9"/>
	<line class="st4" x1="356.5" y1="141.9" x2="356.5" y2="143.1"/>
	<line class="st4" x1="356.5" y1="143.1" x2="333.4" y2="143.1"/>
	<line class="st4" x1="333.4" y1="143.1" x2="333.4" y2="141.9"/>
	<line class="st4" x1="356.5" y1="141.9" x2="333.4" y2="141.9"/>
	<line class="st5" x1="367" y1="240.3" x2="367" y2="240.1"/>
	<line class="st4" x1="447.7" y1="306.3" x2="447.7" y2="419.9"/>
	<line class="st4" x1="454.4" y1="306.3" x2="454.4" y2="419.9"/>
	<line class="st4" x1="447.7" y1="419.9" x2="454.4" y2="419.9"/>
	<line class="st4" x1="447.7" y1="306.3" x2="454.4" y2="306.3"/>
	<path class="st6" d="M480.8,116.5L480.8,116.5c0-0.8-0.6-1.4-1.4-1.4s-1.4,0.6-1.4,1.4c0,0.8,0.6,1.4,1.4,1.4
		S480.8,117.3,480.8,116.5"/>
	<rect x="468.5" y="53.8" class="st2" width="11.3" height="75.4"/>
	<line class="st4" x1="468.5" y1="53.9" x2="468.5" y2="129.2"/>
	<line class="st4" x1="479.8" y1="53.9" x2="479.8" y2="129.2"/>
	<line class="st4" x1="468.5" y1="53.9" x2="479.8" y2="53.9"/>
	<line class="st4" x1="552.1" y1="419.9" x2="551.8" y2="313.3"/>
	<line class="st4" x1="79.3" y1="53.9" x2="79.5" y2="101.9"/>
	<line class="st4" x1="90.5" y1="53.9" x2="90.8" y2="113.1"/>
	<rect x="243.4" y="168.8" class="st2" width="10.6" height="1.2"/>
	<line class="st8" x1="243.4" y1="168.8" x2="254" y2="168.8"/>
	<line class="st9" x1="254" y1="170" x2="243.4" y2="170"/>
	<rect x="243.4" y="192.6" class="st2" width="15.1" height="1.2"/>
	<line class="st8" x1="243.4" y1="192.6" x2="258.5" y2="192.6"/>
	<line class="st9" x1="258.5" y1="192.6" x2="258.5" y2="193.8"/>
	<line class="st8" x1="258.5" y1="193.8" x2="243.4" y2="193.8"/>
	<line class="st10" x1="243.4" y1="193.8" x2="243.4" y2="192.6"/>
	<line class="st10" x1="260.9" y1="170" x2="260.9" y2="192.6"/>
	<line class="st9" x1="260.9" y1="192.6" x2="258.5" y2="192.6"/>
	<line class="st8" x1="258.5" y1="192.6" x2="258.5" y2="170"/>
	<line class="st10" x1="256.4" y1="170" x2="256.4" y2="192.6"/>
	<line class="st9" x1="256.4" y1="192.6" x2="254" y2="192.6"/>
	<line class="st8" x1="254" y1="192.6" x2="254" y2="170"/>
	<line class="st10" x1="254" y1="170" x2="254" y2="192.6"/>
	<line class="st9" x1="254" y1="192.6" x2="251.6" y2="192.6"/>
	<line class="st8" x1="251.6" y1="192.6" x2="251.6" y2="170"/>
	<line class="st10" x1="251.6" y1="170" x2="251.6" y2="192.6"/>
	<line class="st9" x1="251.6" y1="192.6" x2="249.2" y2="192.6"/>
	<line class="st8" x1="249.2" y1="192.6" x2="249.2" y2="170"/>
	<line class="st10" x1="249.2" y1="170" x2="249.2" y2="192.6"/>
	<line class="st9" x1="249.2" y1="192.6" x2="246.8" y2="192.6"/>
	<line class="st8" x1="246.8" y1="192.6" x2="246.8" y2="170"/>
	<line class="st10" x1="246.8" y1="170" x2="246.8" y2="192.6"/>
	<line class="st9" x1="246.8" y1="192.6" x2="244.4" y2="192.6"/>
	<line class="st8" x1="244.4" y1="192.6" x2="244.4" y2="170"/>
	<rect x="254" y="168.8" class="st2" width="13" height="1.2"/>
	<rect x="258.5" y="192.6" class="st2" width="8.4" height="1.2"/>
	<polygon class="st7" points="256.4,170 258.5,170 258.5,192.6 256.4,181.3 	"/>
	<line class="st8" x1="243.9" y1="193.5" x2="356.5" y2="193.5"/>
	<line class="st8" x1="356.5" y1="194.7" x2="243.9" y2="194.7"/>
	<line class="st9" x1="243.9" y1="194.7" x2="243.9" y2="193.5"/>
	<rect x="486.5" y="168.8" class="st2" width="10.6" height="1.2"/>
	<line class="st8" x1="486.5" y1="168.8" x2="497.1" y2="168.8"/>
	<line class="st9" x1="497.1" y1="170" x2="486.5" y2="170"/>
	<rect x="486.5" y="192.6" class="st2" width="15.1" height="1.2"/>
	<line class="st8" x1="486.5" y1="192.6" x2="501.7" y2="192.6"/>
	<line class="st9" x1="501.7" y1="192.6" x2="501.7" y2="193.8"/>
	<line class="st8" x1="501.7" y1="193.8" x2="486.5" y2="193.8"/>
	<line class="st10" x1="486.5" y1="193.8" x2="486.5" y2="192.6"/>
	<line class="st10" x1="504.1" y1="170" x2="504.1" y2="192.6"/>
	<line class="st9" x1="504.1" y1="192.6" x2="501.7" y2="192.6"/>
	<line class="st8" x1="501.7" y1="192.6" x2="501.7" y2="170"/>
	<line class="st10" x1="499.5" y1="170" x2="499.5" y2="192.6"/>
	<line class="st9" x1="499.5" y1="192.6" x2="497.1" y2="192.6"/>
	<line class="st8" x1="497.1" y1="192.6" x2="497.1" y2="170"/>
	<line class="st10" x1="497.1" y1="170" x2="497.1" y2="192.6"/>
	<line class="st9" x1="497.1" y1="192.6" x2="494.7" y2="192.6"/>
	<line class="st8" x1="494.7" y1="192.6" x2="494.7" y2="170"/>
	<line class="st10" x1="494.7" y1="170" x2="494.7" y2="192.6"/>
	<line class="st9" x1="494.7" y1="192.6" x2="492.3" y2="192.6"/>
	<line class="st8" x1="492.3" y1="192.6" x2="492.3" y2="170"/>
	<line class="st10" x1="492.3" y1="170" x2="492.3" y2="192.6"/>
	<line class="st9" x1="492.3" y1="192.6" x2="489.9" y2="192.6"/>
	<line class="st8" x1="489.9" y1="192.6" x2="489.9" y2="170"/>
	<line class="st10" x1="489.9" y1="170" x2="489.9" y2="192.6"/>
	<line class="st9" x1="489.9" y1="192.6" x2="487.5" y2="192.6"/>
	<line class="st8" x1="487.5" y1="192.6" x2="487.5" y2="170"/>
	<rect x="497.1" y="168.8" class="st2" width="13" height="1.2"/>
	<rect x="501.7" y="192.6" class="st2" width="8.4" height="1.2"/>
	<polygon class="st7" points="499.5,170 501.7,170 501.7,192.6 499.5,181.3 	"/>
	<line class="st8" x1="487" y1="193.5" x2="601.5" y2="193.5"/>
	<line class="st10" x1="601.5" y1="194.7" x2="487" y2="194.7"/>
	<rect x="733.5" y="168.8" class="st2" width="10.3" height="1.2"/>
	<line class="st8" x1="733.5" y1="168.8" x2="743.8" y2="168.8"/>
	<line class="st10" x1="743.8" y1="168.8" x2="743.8" y2="170"/>
	<line class="st8" x1="743.8" y1="170" x2="733.5" y2="170"/>
	<rect x="733.5" y="192.6" class="st2" width="15.1" height="1.2"/>
	<line class="st8" x1="733.5" y1="192.6" x2="748.6" y2="192.6"/>
	<line class="st9" x1="748.6" y1="192.6" x2="748.6" y2="193.8"/>
	<line class="st8" x1="748.6" y1="193.8" x2="733.5" y2="193.8"/>
	<line class="st10" x1="733.5" y1="193.8" x2="733.5" y2="192.6"/>
	<line class="st10" x1="750.8" y1="170" x2="750.8" y2="192.6"/>
	<line class="st8" x1="750.8" y1="192.6" x2="748.6" y2="192.6"/>
	<line class="st8" x1="748.6" y1="192.6" x2="748.6" y2="170"/>
	<line class="st10" x1="746.2" y1="170" x2="746.2" y2="192.6"/>
	<line class="st9" x1="746.2" y1="192.6" x2="743.8" y2="192.6"/>
	<line class="st8" x1="743.8" y1="192.6" x2="743.8" y2="170"/>
	<line class="st10" x1="743.8" y1="170" x2="743.8" y2="192.6"/>
	<line class="st9" x1="743.8" y1="192.6" x2="741.4" y2="192.6"/>
	<line class="st8" x1="741.4" y1="192.6" x2="741.4" y2="170"/>
	<line class="st10" x1="741.4" y1="170" x2="741.4" y2="192.6"/>
	<line class="st9" x1="741.4" y1="192.6" x2="739" y2="192.6"/>
	<line class="st8" x1="739" y1="192.6" x2="739" y2="170"/>
	<line class="st10" x1="739" y1="170" x2="739" y2="192.6"/>
	<line class="st9" x1="739" y1="192.6" x2="736.6" y2="192.6"/>
	<line class="st8" x1="736.6" y1="192.6" x2="736.6" y2="170"/>
	<line class="st10" x1="736.6" y1="170" x2="736.6" y2="192.6"/>
	<line class="st9" x1="736.6" y1="192.6" x2="734.2" y2="192.6"/>
	<line class="st8" x1="734.2" y1="192.6" x2="734.2" y2="170"/>
	<rect x="743.8" y="168.8" class="st2" width="13" height="1.2"/>
	<rect x="748.6" y="192.6" class="st2" width="8.2" height="1.2"/>
	<polygon class="st7" points="746.2,170 748.6,170 748.6,192.6 746.2,181.3 	"/>
	<line class="st8" x1="733.7" y1="193.5" x2="847.7" y2="193.5"/>
	<line class="st9" x1="847.7" y1="194.7" x2="733.7" y2="194.7"/>
	<line class="st10" x1="733.7" y1="194.7" x2="733.7" y2="193.5"/>
	<rect x="715.7" y="168.8" class="st2" width="10.3" height="1.2"/>
	<line class="st8" x1="715.7" y1="168.8" x2="726.1" y2="168.8"/>
	<line class="st10" x1="726.1" y1="168.8" x2="726.1" y2="170"/>
	<line class="st8" x1="726.1" y1="170" x2="715.7" y2="170"/>
	<rect x="710.9" y="192.6" class="st2" width="15.1" height="1.2"/>
	<line class="st8" x1="710.9" y1="192.6" x2="726.1" y2="192.6"/>
	<line class="st9" x1="726.1" y1="192.6" x2="726.1" y2="193.8"/>
	<line class="st8" x1="726.1" y1="193.8" x2="710.9" y2="193.8"/>
	<line class="st10" x1="710.9" y1="193.8" x2="710.9" y2="192.6"/>
	<line class="st10" x1="710.9" y1="170" x2="710.9" y2="192.6"/>
	<line class="st9" x1="710.9" y1="192.6" x2="708.5" y2="192.6"/>
	<line class="st8" x1="708.5" y1="192.6" x2="708.5" y2="170"/>
	<line class="st10" x1="715.7" y1="170" x2="715.7" y2="192.6"/>
	<line class="st9" x1="715.7" y1="192.6" x2="713.3" y2="192.6"/>
	<line class="st8" x1="713.3" y1="192.6" x2="713.3" y2="170"/>
	<line class="st10" x1="718.1" y1="170" x2="718.1" y2="192.6"/>
	<line class="st9" x1="718.1" y1="192.6" x2="715.7" y2="192.6"/>
	<line class="st8" x1="715.7" y1="192.6" x2="715.7" y2="170"/>
	<line class="st10" x1="720.3" y1="170" x2="720.3" y2="192.6"/>
	<line class="st8" x1="720.3" y1="192.6" x2="718.1" y2="192.6"/>
	<line class="st8" x1="718.1" y1="192.6" x2="718.1" y2="170"/>
	<line class="st10" x1="722.7" y1="170" x2="722.7" y2="192.6"/>
	<line class="st9" x1="722.7" y1="192.6" x2="720.3" y2="192.6"/>
	<line class="st8" x1="720.3" y1="192.6" x2="720.3" y2="170"/>
	<line class="st10" x1="725.1" y1="170" x2="725.1" y2="192.6"/>
	<line class="st9" x1="725.1" y1="192.6" x2="722.7" y2="192.6"/>
	<line class="st8" x1="722.7" y1="192.6" x2="722.7" y2="170"/>
	<rect x="702.5" y="168.8" class="st2" width="13.2" height="1.2"/>
	<rect x="702.5" y="192.6" class="st2" width="8.4" height="1.2"/>
	<polygon class="st7" points="713.3,170 710.9,170 710.9,192.6 713.3,181.3 	"/>
	<line class="st8" x1="611.6" y1="193.5" x2="725.6" y2="193.5"/>
	<line class="st9" x1="725.6" y1="194.7" x2="611.6" y2="194.7"/>
	<line class="st10" x1="611.6" y1="194.7" x2="611.6" y2="193.5"/>
	<rect x="945.7" y="192.6" class="st2" width="15.1" height="1.2"/>
	<line class="st8" x1="945.7" y1="192.6" x2="960.8" y2="192.6"/>
	<line class="st9" x1="960.8" y1="192.6" x2="960.8" y2="193.8"/>
	<line class="st8" x1="960.8" y1="193.8" x2="945.7" y2="193.8"/>
	<line class="st10" x1="945.7" y1="193.8" x2="945.7" y2="192.6"/>
	<line class="st9" x1="945.7" y1="192.6" x2="943.3" y2="192.6"/>
	<line class="st8" x1="950.2" y1="192.6" x2="948.1" y2="192.6"/>
	<line class="st9" x1="952.6" y1="192.6" x2="950.2" y2="192.6"/>
	<line class="st9" x1="955" y1="192.6" x2="952.6" y2="192.6"/>
	<line class="st9" x1="957.4" y1="192.6" x2="955" y2="192.6"/>
	<line class="st10" x1="959.8" y1="170" x2="959.8" y2="192.6"/>
	<line class="st9" x1="959.8" y1="192.6" x2="957.4" y2="192.6"/>
	<rect x="937.3" y="192.6" class="st2" width="8.4" height="1.2"/>
	<line class="st8" x1="846.3" y1="193.5" x2="960.3" y2="193.5"/>
	<line class="st9" x1="960.3" y1="194.7" x2="846.3" y2="194.7"/>
	<line class="st10" x1="846.3" y1="194.7" x2="846.3" y2="193.5"/>
	<line class="st4" x1="601.7" y1="174.3" x2="601.7" y2="175.5"/>
	<line class="st4" x1="601.7" y1="175.5" x2="578.5" y2="175.5"/>
	<line class="st4" x1="578.5" y1="175.5" x2="578.5" y2="174.3"/>
	<line class="st4" x1="601.7" y1="174.3" x2="578.5" y2="174.3"/>
	<line class="st4" x1="601.7" y1="174.3" x2="601.7" y2="175.5"/>
	<line class="st4" x1="601.7" y1="175.5" x2="578.5" y2="175.5"/>
	<line class="st4" x1="578.5" y1="175.5" x2="578.5" y2="174.3"/>
	<line class="st4" x1="601.7" y1="174.3" x2="578.5" y2="174.3"/>
	<line class="st4" x1="601.7" y1="141.9" x2="601.7" y2="175.5"/>
	<line class="st4" x1="601.7" y1="175.5" x2="578.5" y2="175.5"/>
	<line class="st4" x1="578.5" y1="175.5" x2="578.5" y2="141.9"/>
	<line class="st4" x1="601.7" y1="141.9" x2="578.5" y2="141.9"/>
	<line class="st4" x1="601.7" y1="141.9" x2="601.7" y2="175.5"/>
	<line class="st4" x1="601.7" y1="175.5" x2="578.5" y2="175.5"/>
	<line class="st4" x1="578.5" y1="175.5" x2="578.5" y2="141.9"/>
	<line class="st4" x1="601.7" y1="141.9" x2="578.5" y2="141.9"/>
	<line class="st4" x1="601.7" y1="141.9" x2="601.7" y2="143.1"/>
	<line class="st4" x1="601.7" y1="143.1" x2="578.5" y2="143.1"/>
	<line class="st4" x1="578.5" y1="143.1" x2="578.5" y2="141.9"/>
	<line class="st4" x1="601.7" y1="141.9" x2="578.5" y2="141.9"/>
	<line class="st4" x1="601.7" y1="141.9" x2="601.7" y2="143.1"/>
	<line class="st4" x1="601.7" y1="143.1" x2="578.5" y2="143.1"/>
	<line class="st4" x1="578.5" y1="143.1" x2="578.5" y2="141.9"/>
	<line class="st4" x1="601.7" y1="141.9" x2="578.5" y2="141.9"/>
	<polyline class="st4" points="356.5,141.9 243.2,141.9 243.2,62.7 356.5,62.7 	"/>
	<rect x="243.2" y="62.7" class="st4" width="78.5" height="79.2"/>
	<line class="st4" x1="321.7" y1="105.2" x2="313.3" y2="141.9"/>
	<path class="st4" d="M349.1,134.2L349.1,134.2c-1.2-0.5-2.4-0.8-3.7-1.1c-1.3-0.2-2.6-0.4-3.8-0.4c-1.3,0-2.6,0.1-3.8,0.4
		c-1.3,0.2-2.5,0.6-3.7,1.1c-0.6-0.1-1.1-0.3-1.6-0.6c-0.5-0.3-0.9-0.7-1.3-1.1c-0.3-0.5-0.6-1-0.8-1.5c-0.2-0.6-0.2-1.1-0.1-1.7
		c0.5-1.7,0.8-3.4,1-5.1c0.2-1.7,0.3-3.4,0.3-5.2c0-1.7-0.1-3.5-0.3-5.2c-0.2-1.7-0.6-3.4-1-5.1l0-0.7l0.2-0.7l0.2-0.7l0.4-0.6
		l0.4-0.6l0.6-0.4l0.6-0.4l0.7-0.2c1.3,0.4,2.6,0.6,4,0.8c1.3,0.2,2.7,0.3,4.1,0.3c1.4,0,2.7-0.1,4.1-0.3c1.3-0.2,2.7-0.4,4-0.8
		c0.5,0.2,1,0.4,1.4,0.7c0.4,0.3,0.8,0.7,1.1,1.2c0.3,0.5,0.5,0.9,0.6,1.5s0.2,1.1,0.1,1.6c-0.6,1.7-1,3.5-1.4,5.3
		c-0.3,1.8-0.5,3.6-0.5,5.5c0,1.8,0.1,3.7,0.4,5.5c0.3,1.8,0.7,3.6,1.3,5.3l-0.8,2.4L349.1,134.2"/>
	<path class="st4" d="M349.1,68.1L349.1,68.1c-1.2,0.5-2.4,0.8-3.7,1.1c-1.3,0.2-2.6,0.4-3.8,0.4c-1.3,0-2.6-0.1-3.8-0.4
		c-1.3-0.2-2.5-0.6-3.7-1.1c-0.6,0.1-1.1,0.3-1.6,0.6c-0.5,0.3-0.9,0.7-1.3,1.1s-0.6,1-0.8,1.5c-0.2,0.6-0.2,1.1-0.1,1.7
		c0.5,1.7,0.8,3.4,1,5.1s0.3,3.4,0.3,5.2s-0.1,3.5-0.3,5.2c-0.2,1.7-0.6,3.4-1,5.1l0,0.7l0.2,0.7l0.2,0.7l0.4,0.6l0.4,0.6l0.6,0.4
		l0.6,0.4l0.7,0.2c1.3-0.4,2.6-0.6,4-0.8c1.3-0.2,2.7-0.3,4.1-0.3c1.4,0,2.7,0.1,4.1,0.3c1.3,0.2,2.7,0.4,4,0.8
		c0.5-0.2,1-0.4,1.4-0.7c0.4-0.3,0.8-0.7,1.1-1.2c0.3-0.5,0.5-0.9,0.6-1.5s0.2-1.1,0.1-1.6c-0.6-1.7-1-3.5-1.4-5.3
		c-0.3-1.8-0.5-3.6-0.5-5.5c0-1.8,0.1-3.7,0.4-5.5c0.3-1.8,0.7-3.6,1.3-5.3l-0.8-2.4L349.1,68.1"/>
	<rect x="488.2" y="62.7" class="st4" width="113.5" height="79.2"/>
	<rect x="488.2" y="62.7" class="st4" width="78.7" height="79.2"/>
	<line class="st4" x1="566.9" y1="105.2" x2="558.3" y2="141.9"/>
	<path class="st4" d="M594.3,134.2L594.3,134.2c-1.2-0.5-2.4-0.8-3.7-1.1c-1.3-0.2-2.6-0.4-3.8-0.4s-2.6,0.1-3.8,0.4
		c-1.3,0.2-2.5,0.6-3.7,1.1c-0.6-0.1-1.1-0.3-1.6-0.6c-0.5-0.3-0.9-0.7-1.3-1.1c-0.3-0.5-0.6-1-0.8-1.5c-0.2-0.6-0.2-1.1-0.1-1.7
		c0.5-1.7,0.8-3.4,1-5.1c0.2-1.7,0.3-3.4,0.3-5.2c0-1.7-0.1-3.5-0.3-5.2c-0.2-1.7-0.6-3.4-1-5.1l0-0.7l0.2-0.7l0.2-0.7l0.4-0.6
		l0.4-0.6l0.6-0.4l0.6-0.4l0.7-0.2c1.3,0.4,2.6,0.6,4,0.8c1.3,0.2,2.7,0.3,4.1,0.3c1.4,0,2.7-0.1,4.1-0.3c1.3-0.2,2.7-0.4,4-0.8
		c0.5,0.2,1,0.4,1.4,0.7c0.4,0.3,0.8,0.7,1.1,1.2c0.3,0.5,0.5,0.9,0.6,1.5c0.1,0.5,0.2,1.1,0.1,1.6c-0.6,1.7-1,3.5-1.4,5.3
		s-0.5,3.6-0.5,5.5c0,1.8,0.1,3.7,0.4,5.5c0.3,1.8,0.7,3.6,1.3,5.3l-0.8,2.4L594.3,134.2"/>
	<path class="st4" d="M594.3,68.1L594.3,68.1c-1.2,0.5-2.4,0.8-3.7,1.1c-1.3,0.2-2.6,0.4-3.8,0.4s-2.6-0.1-3.8-0.4
		c-1.3-0.2-2.5-0.6-3.7-1.1c-0.6,0.1-1.1,0.3-1.6,0.6c-0.5,0.3-0.9,0.7-1.3,1.1c-0.3,0.5-0.6,1-0.8,1.5c-0.2,0.6-0.2,1.1-0.1,1.7
		c0.5,1.7,0.8,3.4,1,5.1c0.2,1.7,0.3,3.4,0.3,5.2s-0.1,3.5-0.3,5.2c-0.2,1.7-0.6,3.4-1,5.1l0,0.7l0.2,0.7l0.2,0.7l0.4,0.6l0.4,0.6
		l0.6,0.4l0.6,0.4l0.7,0.2c1.3-0.4,2.6-0.6,4-0.8c1.3-0.2,2.7-0.3,4.1-0.3c1.4,0,2.7,0.1,4.1,0.3s2.7,0.4,4,0.8
		c0.5-0.2,1-0.4,1.4-0.7c0.4-0.3,0.8-0.7,1.1-1.2c0.3-0.5,0.5-0.9,0.6-1.5c0.1-0.5,0.2-1.1,0.1-1.6c-0.6-1.7-1-3.5-1.4-5.3
		c-0.3-1.8-0.5-3.6-0.5-5.5c0-1.8,0.1-3.7,0.4-5.5c0.3-1.8,0.7-3.6,1.3-5.3l-0.8-2.4L594.3,68.1"/>
	<rect x="608.9" y="62.7" class="st4" width="113.5" height="79.4"/>
	<rect x="643.7" y="62.7" class="st4" width="82.3" height="79.4"/>
	<line class="st4" x1="643.7" y1="105.2" x2="652.4" y2="142.2"/>
	<path class="st4" d="M616.5,134.3L616.5,134.3c1.2-0.5,2.4-0.8,3.7-1.1c1.3-0.2,2.6-0.4,3.8-0.4c1.3,0,2.6,0.1,3.8,0.4
		c1.3,0.2,2.5,0.6,3.7,1.1c0.6-0.1,1.1-0.3,1.6-0.6c0.5-0.3,0.9-0.7,1.3-1.1c0.3-0.5,0.6-1,0.8-1.5c0.2-0.6,0.2-1.1,0.1-1.7
		c-0.5-1.7-0.8-3.4-1-5.1c-0.2-1.7-0.3-3.4-0.3-5.2s0.1-3.5,0.3-5.2c0.2-1.7,0.6-3.4,1-5.1l0-0.7l-0.2-0.7l-0.2-0.7l-0.4-0.6
		l-0.4-0.6l-0.6-0.4l-0.6-0.4l-0.7-0.2c-1.3,0.4-2.6,0.6-4,0.8c-1.3,0.2-2.7,0.3-4.1,0.3c-1.4,0-2.7-0.1-4.1-0.3
		c-1.3-0.2-2.7-0.4-4-0.8c-0.5,0.2-1,0.4-1.4,0.7c-0.4,0.3-0.8,0.7-1.1,1.2c-0.3,0.5-0.5,0.9-0.6,1.5c-0.1,0.5-0.2,1.1-0.1,1.6
		c0.6,1.7,1,3.5,1.4,5.3c0.3,1.8,0.5,3.6,0.5,5.5c0,1.8-0.1,3.7-0.4,5.5c-0.3,1.8-0.7,3.6-1.3,5.3l0.8,2.4L616.5,134.3"/>
	<path class="st4" d="M616.5,68.1L616.5,68.1c1.2,0.5,2.4,0.8,3.7,1.1c1.3,0.2,2.6,0.4,3.8,0.4c1.3,0,2.6-0.1,3.8-0.4
		c1.3-0.2,2.5-0.6,3.7-1.1c0.6,0.1,1.1,0.3,1.6,0.6c0.5,0.3,0.9,0.7,1.3,1.1c0.3,0.5,0.6,1,0.8,1.5c0.2,0.6,0.2,1.1,0.1,1.7
		c-0.5,1.7-0.8,3.4-1,5.1c-0.2,1.7-0.3,3.4-0.3,5.2c0,1.7,0.1,3.5,0.3,5.2c0.2,1.7,0.6,3.4,1,5.1l0,0.7l-0.2,0.7l-0.2,0.7l-0.4,0.6
		l-0.4,0.6l-0.6,0.4l-0.6,0.4l-0.7,0.2c-1.3-0.4-2.6-0.6-4-0.8c-1.3-0.2-2.7-0.3-4.1-0.3c-1.4,0-2.7,0.1-4.1,0.3
		c-1.3,0.2-2.7,0.4-4,0.8c-0.5-0.2-1-0.4-1.4-0.7s-0.8-0.7-1.1-1.2c-0.3-0.5-0.5-0.9-0.6-1.5c-0.1-0.5-0.2-1.1-0.1-1.6
		c0.6-1.7,1-3.5,1.4-5.3c0.3-1.8,0.5-3.6,0.5-5.5c0-1.8-0.1-3.7-0.4-5.5c-0.3-1.8-0.7-3.6-1.3-5.3l0.8-2.4L616.5,68.1"/>
	<rect x="733.5" y="62.7" class="st4" width="113.5" height="79.2"/>
	<rect x="733.5" y="62.7" class="st4" width="78.7" height="79.2"/>
	<line class="st4" x1="812.2" y1="105.2" x2="803.8" y2="141.9"/>
	<path class="st4" d="M839.7,134.2L839.7,134.2c-1.2-0.5-2.4-0.8-3.7-1.1c-1.3-0.2-2.6-0.4-3.9-0.4c-1.3,0-2.6,0.1-3.9,0.4
		c-1.3,0.2-2.5,0.6-3.7,1.1c-0.6-0.1-1.1-0.3-1.6-0.6c-0.5-0.3-0.9-0.7-1.3-1.1c-0.3-0.5-0.6-1-0.8-1.5c-0.2-0.6-0.2-1.1-0.1-1.7
		c0.5-1.7,0.8-3.4,1-5.1c0.2-1.7,0.3-3.4,0.3-5.2s-0.1-3.5-0.3-5.2c-0.2-1.7-0.6-3.4-1-5.1l0-0.7l0.2-0.7l0.2-0.7l0.4-0.6l0.4-0.6
		l0.6-0.4l0.6-0.4l0.7-0.2c1.3,0.4,2.7,0.6,4,0.8c1.4,0.2,2.7,0.3,4.1,0.3c1.4,0,2.7-0.1,4.1-0.3c1.4-0.2,2.7-0.4,4-0.8
		c0.5,0.2,1,0.4,1.4,0.7c0.4,0.3,0.8,0.7,1.1,1.2s0.5,0.9,0.6,1.5c0.1,0.5,0.2,1.1,0.1,1.6c-0.6,1.7-1,3.5-1.4,5.3s-0.5,3.6-0.5,5.5
		c0,1.8,0.1,3.7,0.4,5.5c0.3,1.8,0.7,3.6,1.3,5.3l-0.8,2.4L839.7,134.2"/>
	<path class="st4" d="M839.7,68.1L839.7,68.1c-1.2,0.5-2.4,0.8-3.7,1.1c-1.3,0.2-2.6,0.4-3.9,0.4c-1.3,0-2.6-0.1-3.9-0.4
		c-1.3-0.2-2.5-0.6-3.7-1.1c-0.6,0.1-1.1,0.3-1.6,0.6c-0.5,0.3-0.9,0.7-1.3,1.1c-0.3,0.5-0.6,1-0.8,1.5c-0.2,0.6-0.2,1.1-0.1,1.7
		c0.5,1.7,0.8,3.4,1,5.1c0.2,1.7,0.3,3.4,0.3,5.2s-0.1,3.5-0.3,5.2c-0.2,1.7-0.6,3.4-1,5.1l0,0.7L821,95l0.2,0.7l0.4,0.6l0.4,0.6
		l0.6,0.4l0.6,0.4l0.7,0.2c1.3-0.4,2.7-0.6,4-0.8c1.4-0.2,2.7-0.3,4.1-0.3c1.4,0,2.7,0.1,4.1,0.3c1.4,0.2,2.7,0.4,4,0.8
		c0.5-0.2,1-0.4,1.4-0.7c0.4-0.3,0.8-0.7,1.1-1.2s0.5-0.9,0.6-1.5c0.1-0.5,0.2-1.1,0.1-1.6c-0.6-1.7-1-3.5-1.4-5.3
		c-0.3-1.8-0.5-3.6-0.5-5.5c0-1.8,0.1-3.7,0.4-5.5c0.3-1.8,0.7-3.6,1.3-5.3l-0.8-2.4L839.7,68.1"/>
	<rect x="854.5" y="62.7" class="st4" width="106.3" height="79.4"/>
	<rect x="889.3" y="62.7" class="st4" width="71.5" height="79.4"/>
	<line class="st4" x1="889.3" y1="105.2" x2="897.9" y2="142.2"/>
	<path class="st4" d="M861.9,134.3L861.9,134.3c1.2-0.5,2.4-0.8,3.7-1.1c1.3-0.2,2.6-0.4,3.9-0.4c1.3,0,2.6,0.1,3.9,0.4
		c1.3,0.2,2.5,0.6,3.7,1.1c0.6-0.1,1.1-0.3,1.6-0.6c0.5-0.3,0.9-0.7,1.3-1.1c0.3-0.5,0.6-1,0.8-1.5c0.2-0.6,0.2-1.1,0.1-1.7
		c-0.5-1.7-0.8-3.4-1-5.1c-0.2-1.7-0.3-3.4-0.3-5.2c0-1.7,0.1-3.5,0.3-5.2c0.2-1.7,0.6-3.4,1-5.1l0-0.7l-0.2-0.7l-0.2-0.7l-0.4-0.6
		l-0.4-0.6l-0.6-0.4l-0.6-0.4l-0.7-0.2c-1.3,0.4-2.7,0.6-4,0.8c-1.4,0.2-2.7,0.3-4.1,0.3c-1.4,0-2.7-0.1-4.1-0.3
		c-1.4-0.2-2.7-0.4-4-0.8c-0.5,0.2-1,0.4-1.4,0.7c-0.4,0.3-0.8,0.7-1.1,1.2s-0.5,0.9-0.6,1.5c-0.1,0.5-0.2,1.1-0.1,1.6
		c0.6,1.7,1,3.5,1.4,5.3c0.3,1.8,0.5,3.6,0.5,5.5c0,1.8-0.1,3.7-0.4,5.5c-0.3,1.8-0.7,3.6-1.3,5.3l0.8,2.4L861.9,134.3"/>
	<path class="st4" d="M861.9,68.1L861.9,68.1c1.2,0.5,2.4,0.8,3.7,1.1c1.3,0.2,2.6,0.4,3.9,0.4c1.3,0,2.6-0.1,3.9-0.4
		c1.3-0.2,2.5-0.6,3.7-1.1c0.6,0.1,1.1,0.3,1.6,0.6c0.5,0.3,0.9,0.7,1.3,1.1c0.3,0.5,0.6,1,0.8,1.5c0.2,0.6,0.2,1.1,0.1,1.7
		c-0.5,1.7-0.8,3.4-1,5.1c-0.2,1.7-0.3,3.4-0.3,5.2s0.1,3.5,0.3,5.2s0.6,3.4,1,5.1l0,0.7l-0.2,0.7l-0.2,0.7l-0.4,0.6l-0.4,0.6
		l-0.6,0.4l-0.6,0.4l-0.7,0.2c-1.3-0.4-2.7-0.6-4-0.8c-1.4-0.2-2.7-0.3-4.1-0.3c-1.4,0-2.7,0.1-4.1,0.3c-1.4,0.2-2.7,0.4-4,0.8
		c-0.5-0.2-1-0.4-1.4-0.7c-0.4-0.3-0.8-0.7-1.1-1.2s-0.5-0.9-0.6-1.5c-0.1-0.5-0.2-1.1-0.1-1.6c0.6-1.7,1-3.5,1.4-5.3
		c0.3-1.8,0.5-3.6,0.5-5.5c0-1.8-0.1-3.7-0.4-5.5c-0.3-1.8-0.7-3.6-1.3-5.3l0.8-2.4L861.9,68.1"/>
	<path class="st5" d="M378.8,154.6L378.8,154.6c0-0.2,0.1-0.3,0.2-0.3l10.5-0.6l5.5-0.1l3.9-0.1c5.6-0.1,10.3,4.3,10.5,10l0,0.2
		c0.2,5.3-4,9.8-9.3,10c-0.2,0-0.4,0-0.6,0l-4.5-0.1l-7.1-0.2l-8.8-0.4c-0.1,0-0.2-0.1-0.2-0.3v0V154.6"/>
	<path class="st5" d="M401.2,171.4L401.2,171.4c4.2,0,7.7-3.4,7.7-7.7c0-4.2-3.4-7.7-7.7-7.7"/>
	<path class="st5" d="M399.5,166.3L399.5,166.3c1.4,0,2.6-1.1,2.6-2.6c0-1.4-1.1-2.6-2.6-2.6"/>
	<path class="st5" d="M398.6,156.1L398.6,156.1c-4.2,0-7.7,3.4-7.7,7.7c0,4.2,3.4,7.7,7.7,7.7"/>
	<line class="st5" x1="394.9" y1="162.3" x2="394.9" y2="165.2"/>
	<line class="st5" x1="396.1" y1="166.2" x2="399.4" y2="166.2"/>
	<path class="st5" d="M394.9,165.2L394.9,165.2c0,0.6,0.5,1.1,1.1,1.1"/>
	<line class="st5" x1="396.1" y1="161.1" x2="399.4" y2="161.1"/>
	<path class="st5" d="M396.1,161.2L396.1,161.2c-0.6,0-1.1,0.5-1.1,1.1"/>
	<path class="st5" d="M398.2,166.3L398.2,166.3c1.4,0,2.6-1.1,2.6-2.6c0-1.4-1.1-2.6-2.6-2.6"/>
	<line class="st5" x1="401.1" y1="156.1" x2="398.7" y2="156.1"/>
	<line class="st5" x1="401.1" y1="171.5" x2="398.7" y2="171.5"/>
	<rect x="449.6" y="131.1" class="st5" width="26.6" height="56.9"/>
	<rect x="452.7" y="136.9" class="st5" width="18.5" height="45.4"/>
	<line class="st5" x1="452.7" y1="159.7" x2="471.2" y2="159.7"/>
	<path class="st6" d="M475.3,149L475.3,149c0-0.9-0.7-1.6-1.6-1.6s-1.6,0.7-1.6,1.6s0.7,1.6,1.6,1.6S475.3,149.9,475.3,149"/>
	<polyline class="st5" points="472.4,149.6 468.8,149.6 468.8,148.2 472.4,148.2 	"/>
	<path class="st6" d="M475.3,170.3L475.3,170.3c0-0.8-0.7-1.4-1.6-1.4s-1.6,0.6-1.6,1.4s0.7,1.4,1.6,1.4S475.3,171.1,475.3,170.3"/>
	<polyline class="st5" points="472.4,169.5 468.8,169.5 468.8,171 472.4,171 	"/>
	<line class="st11" x1="434.7" y1="382.4" x2="344" y2="382.4"/>
	<line class="st11" x1="344" y1="382.4" x2="344" y2="337.1"/>
	<line class="st11" x1="344" y1="337.1" x2="434.7" y2="337.1"/>
	<line class="st11" x1="434.7" y1="382.4" x2="434.7" y2="337.1"/>
	<line class="st11" x1="434.7" y1="382.4" x2="344" y2="382.4"/>
	<line class="st11" x1="344" y1="382.4" x2="344" y2="337.1"/>
	<line class="st11" x1="344" y1="337.1" x2="434.7" y2="337.1"/>
	<line class="st11" x1="434.7" y1="382.4" x2="434.7" y2="337.1"/>
	<line class="st11" x1="345.2" y1="382.4" x2="344" y2="382.4"/>
	<line class="st11" x1="344" y1="382.4" x2="344" y2="381.2"/>
	<line class="st11" x1="344" y1="381.2" x2="345.2" y2="381.2"/>
	<line class="st11" x1="345.2" y1="382.4" x2="345.2" y2="381.2"/>
	<line class="st11" x1="345.2" y1="382.4" x2="344" y2="382.4"/>
	<line class="st11" x1="344" y1="382.4" x2="344" y2="381.2"/>
	<line class="st11" x1="344" y1="381.2" x2="345.2" y2="381.2"/>
	<line class="st11" x1="345.2" y1="382.4" x2="345.2" y2="381.2"/>
	<line class="st11" x1="434.7" y1="382.4" x2="433.5" y2="382.4"/>
	<line class="st11" x1="433.5" y1="382.4" x2="433.5" y2="381.2"/>
	<line class="st11" x1="433.5" y1="381.2" x2="434.7" y2="381.2"/>
	<line class="st11" x1="434.7" y1="382.4" x2="434.7" y2="381.2"/>
	<line class="st11" x1="434.7" y1="382.4" x2="433.5" y2="382.4"/>
	<line class="st11" x1="433.5" y1="382.4" x2="433.5" y2="381.2"/>
	<line class="st11" x1="433.5" y1="381.2" x2="434.7" y2="381.2"/>
	<line class="st11" x1="434.7" y1="382.4" x2="434.7" y2="381.2"/>
	<line class="st11" x1="434.7" y1="338.3" x2="433.5" y2="338.3"/>
	<line class="st11" x1="433.5" y1="338.3" x2="433.5" y2="337.1"/>
	<line class="st11" x1="433.5" y1="337.1" x2="434.7" y2="337.1"/>
	<line class="st11" x1="434.7" y1="338.3" x2="434.7" y2="337.1"/>
	<line class="st11" x1="434.7" y1="338.3" x2="433.5" y2="338.3"/>
	<line class="st11" x1="433.5" y1="338.3" x2="433.5" y2="337.1"/>
	<line class="st11" x1="433.5" y1="337.1" x2="434.7" y2="337.1"/>
	<line class="st11" x1="434.7" y1="338.3" x2="434.7" y2="337.1"/>
	<line class="st11" x1="345.2" y1="338.3" x2="344" y2="338.3"/>
	<line class="st11" x1="344" y1="338.3" x2="344" y2="337.1"/>
	<line class="st11" x1="344" y1="337.1" x2="345.2" y2="337.1"/>
	<line class="st11" x1="345.2" y1="338.3" x2="345.2" y2="337.1"/>
	<line class="st11" x1="345.2" y1="338.3" x2="344" y2="338.3"/>
	<line class="st11" x1="344" y1="338.3" x2="344" y2="337.1"/>
	<line class="st11" x1="344" y1="337.1" x2="345.2" y2="337.1"/>
	<line class="st11" x1="345.2" y1="338.3" x2="345.2" y2="337.1"/>
	<rect x="376.6" y="324.1" class="st5" width="25.4" height="13"/>
	<rect x="49.5" y="306.3" class="st4" width="90.7" height="113.3"/>
	<rect x="49.5" y="306.3" class="st4" width="90.7" height="78.5"/>
	<line class="st4" x1="86.5" y1="384.8" x2="49.5" y2="376.4"/>
	<path class="st4" d="M57.4,412.2L57.4,412.2c0.5-1.2,0.8-2.4,1.1-3.7c0.2-1.3,0.4-2.6,0.4-3.8c0-1.3-0.1-2.6-0.4-3.8
		c-0.2-1.3-0.6-2.5-1.1-3.7c0.1-0.6,0.3-1.1,0.6-1.6c0.3-0.5,0.7-0.9,1.1-1.3c0.5-0.3,1-0.6,1.5-0.8c0.6-0.2,1.1-0.2,1.7-0.1
		c1.7,0.5,3.4,0.8,5.1,1c1.7,0.2,3.4,0.3,5.2,0.3c1.7,0,3.5-0.1,5.2-0.3c1.7-0.2,3.4-0.6,5.1-1l0.7,0l0.7,0.2l0.7,0.2l0.6,0.4
		l0.6,0.4l0.4,0.6l0.4,0.6l0.2,0.7c-0.4,1.3-0.6,2.6-0.8,4c-0.2,1.3-0.3,2.7-0.3,4.1c0,1.4,0.1,2.7,0.3,4.1s0.4,2.7,0.8,4
		c-0.2,0.5-0.4,1-0.7,1.4c-0.3,0.4-0.7,0.8-1.2,1.1c-0.5,0.3-0.9,0.5-1.5,0.6c-0.5,0.1-1.1,0.2-1.6,0.1c-1.7-0.6-3.5-1-5.3-1.4
		c-1.8-0.3-3.6-0.5-5.5-0.5c-1.8,0-3.7,0.1-5.5,0.4c-1.8,0.3-3.6,0.7-5.3,1.3l-2.4-0.8L57.4,412.2"/>
	<path class="st4" d="M132.5,412.2L132.5,412.2c-0.5-1.2-0.8-2.4-1.1-3.7c-0.2-1.3-0.4-2.6-0.4-3.8c0-1.3,0.1-2.6,0.4-3.8
		c0.2-1.3,0.6-2.5,1.1-3.7c-0.1-0.6-0.3-1.1-0.6-1.6c-0.3-0.5-0.7-0.9-1.1-1.3c-0.5-0.3-1-0.6-1.5-0.8c-0.6-0.2-1.1-0.2-1.7-0.1
		c-1.7,0.5-3.4,0.8-5.1,1c-1.7,0.2-3.4,0.3-5.2,0.3c-1.7,0-3.5-0.1-5.2-0.3c-1.7-0.2-3.4-0.6-5.1-1l-0.7,0l-0.7,0.2l-0.7,0.2
		l-0.6,0.4l-0.6,0.4l-0.4,0.6l-0.4,0.6l-0.2,0.7c0.4,1.3,0.6,2.6,0.8,4c0.2,1.3,0.3,2.7,0.3,4.1c0,1.4-0.1,2.7-0.3,4.1
		c-0.2,1.3-0.4,2.7-0.8,4c0.2,0.5,0.4,1,0.7,1.4s0.7,0.8,1.2,1.1c0.5,0.3,0.9,0.5,1.5,0.6c0.5,0.1,1.1,0.2,1.6,0.1
		c1.7-0.6,3.5-1,5.3-1.4c1.8-0.3,3.6-0.5,5.5-0.5c1.8,0,3.7,0.1,5.5,0.4c1.8,0.3,3.6,0.7,5.3,1.3l2.4-0.8L132.5,412.2"/>
	<line class="st4" x1="632.2" y1="174.3" x2="632.2" y2="175.5"/>
	<line class="st4" x1="632.2" y1="175.5" x2="608.9" y2="175.5"/>
	<line class="st4" x1="608.9" y1="175.5" x2="608.9" y2="174.3"/>
	<line class="st4" x1="632.2" y1="174.3" x2="608.9" y2="174.3"/>
	<line class="st4" x1="632.2" y1="174.3" x2="632.2" y2="175.5"/>
	<line class="st4" x1="632.2" y1="175.5" x2="608.9" y2="175.5"/>
	<line class="st4" x1="608.9" y1="175.5" x2="608.9" y2="174.3"/>
	<line class="st4" x1="632.2" y1="174.3" x2="608.9" y2="174.3"/>
	<line class="st4" x1="632.2" y1="142.2" x2="632.2" y2="175.5"/>
	<line class="st4" x1="632.2" y1="175.5" x2="608.9" y2="175.5"/>
	<line class="st4" x1="608.9" y1="175.5" x2="608.9" y2="142.2"/>
	<line class="st4" x1="632.2" y1="142.2" x2="608.9" y2="142.2"/>
	<line class="st4" x1="632.2" y1="142.2" x2="632.2" y2="175.5"/>
	<line class="st4" x1="632.2" y1="175.5" x2="608.9" y2="175.5"/>
	<line class="st4" x1="608.9" y1="175.5" x2="608.9" y2="142.2"/>
	<line class="st4" x1="632.2" y1="142.2" x2="608.9" y2="142.2"/>
	<line class="st4" x1="632.2" y1="142.2" x2="632.2" y2="143.1"/>
	<line class="st4" x1="632.2" y1="143.1" x2="608.9" y2="143.1"/>
	<line class="st4" x1="608.9" y1="143.1" x2="608.9" y2="142.2"/>
	<line class="st4" x1="632.2" y1="142.2" x2="608.9" y2="142.2"/>
	<line class="st4" x1="632.2" y1="142.2" x2="632.2" y2="143.1"/>
	<line class="st4" x1="632.2" y1="143.1" x2="608.9" y2="143.1"/>
	<line class="st4" x1="608.9" y1="143.1" x2="608.9" y2="142.2"/>
	<line class="st4" x1="632.2" y1="142.2" x2="608.9" y2="142.2"/>
	<line class="st4" x1="847" y1="174.3" x2="847" y2="175.5"/>
	<line class="st4" x1="847" y1="175.5" x2="824" y2="175.5"/>
	<line class="st4" x1="824" y1="175.5" x2="824" y2="174.3"/>
	<line class="st4" x1="847" y1="174.3" x2="824" y2="174.3"/>
	<line class="st4" x1="847" y1="174.3" x2="847" y2="175.5"/>
	<line class="st4" x1="847" y1="175.5" x2="824" y2="175.5"/>
	<line class="st4" x1="824" y1="175.5" x2="824" y2="174.3"/>
	<line class="st4" x1="847" y1="174.3" x2="824" y2="174.3"/>
	<line class="st4" x1="847" y1="141.9" x2="847" y2="175.5"/>
	<line class="st4" x1="847" y1="175.5" x2="824" y2="175.5"/>
	<line class="st4" x1="824" y1="175.5" x2="824" y2="141.9"/>
	<line class="st4" x1="847" y1="141.9" x2="824" y2="141.9"/>
	<line class="st4" x1="847" y1="141.9" x2="847" y2="175.5"/>
	<line class="st4" x1="847" y1="175.5" x2="824" y2="175.5"/>
	<line class="st4" x1="824" y1="175.5" x2="824" y2="141.9"/>
	<line class="st4" x1="847" y1="141.9" x2="824" y2="141.9"/>
	<line class="st4" x1="847" y1="141.9" x2="847" y2="143.1"/>
	<line class="st4" x1="847" y1="143.1" x2="824" y2="143.1"/>
	<line class="st4" x1="824" y1="143.1" x2="824" y2="141.9"/>
	<line class="st4" x1="847" y1="141.9" x2="824" y2="141.9"/>
	<line class="st4" x1="847" y1="141.9" x2="847" y2="143.1"/>
	<line class="st4" x1="847" y1="143.1" x2="824" y2="143.1"/>
	<line class="st4" x1="824" y1="143.1" x2="824" y2="141.9"/>
	<line class="st4" x1="847" y1="141.9" x2="824" y2="141.9"/>
	<rect x="454.4" y="306.3" class="st2" width="56.9" height="12.5"/>
	<rect x="454.4" y="306.3" class="st3" width="56.9" height="12.5"/>
	<rect x="454.4" y="318.8" class="st2" width="56.9" height="13.7"/>
	<rect x="454.4" y="318.8" class="st3" width="56.9" height="13.7"/>
	<rect x="454.4" y="332.5" class="st2" width="56.9" height="13.7"/>
	<rect x="454.4" y="332.5" class="st3" width="56.9" height="13.7"/>
	<rect x="454.4" y="346.2" class="st2" width="56.9" height="13.4"/>
	<rect x="454.4" y="346.2" class="st3" width="56.9" height="13.4"/>
	<rect x="454.4" y="359.6" class="st2" width="56.9" height="13.7"/>
	<rect x="454.4" y="359.6" class="st3" width="56.9" height="13.7"/>
	<polygon class="st2" points="454.3,373.2 511.2,373.2 511.2,378 454.3,396 	"/>
	<polygon class="st12" points="454.4,373.3 511.3,373.3 511.3,378.1 454.4,396.1 	"/>
	<polygon class="st2" points="454.3,396 511.2,378 511.2,380.9 512.9,380.9 454.3,425.6 	"/>
	<polygon class="st12" points="454.4,396.1 511.3,378.1 511.3,381 512.9,381 454.4,425.6 	"/>
	<polygon class="st2" points="454.3,437.6 454.3,425.6 512.9,380.9 517.4,380.9 479.5,437.6 	"/>
	<polygon class="st12" points="454.4,437.6 454.4,425.6 512.9,381 517.5,381 479.6,437.6 	"/>
	<polygon class="st2" points="479.5,437.6 517.4,380.9 522.2,380.9 504.5,437.6 	"/>
	<polygon class="st12" points="479.6,437.6 517.5,381 522.3,381 504.5,437.6 	"/>
	<polygon class="st2" points="504.5,437.6 522.2,380.9 527,380.9 527,437.6 	"/>
	<polygon class="st12" points="504.5,437.6 522.3,381 527.1,381 527.1,437.6 	"/>
	<rect x="527.1" y="381" class="st2" width="13.4" height="56.6"/>
	<rect x="527.1" y="381" class="st3" width="13.4" height="56.6"/>
	<line class="st4" x1="453.9" y1="438.1" x2="552.1" y2="438.1"/>
	<line class="st4" x1="454.6" y1="437.4" x2="551.6" y2="437.4"/>
	<line class="st4" x1="453.9" y1="420.1" x2="453.9" y2="438.1"/>
	<line class="st4" x1="454.6" y1="419.6" x2="454.6" y2="437.4"/>
	<line class="st4" x1="552.1" y1="438.1" x2="552.1" y2="420.1"/>
	<line class="st4" x1="551.6" y1="437.4" x2="551.6" y2="419.6"/>
	<rect x="140.2" y="306.3" class="st4" width="90.7" height="113.3"/>
	<rect x="140.2" y="306.3" class="st4" width="90.7" height="78.5"/>
	<line class="st4" x1="177.2" y1="384.8" x2="140.2" y2="376.4"/>
	<path class="st4" d="M148.1,412.2L148.1,412.2c0.5-1.2,0.8-2.4,1.1-3.7c0.2-1.3,0.4-2.6,0.4-3.8c0-1.3-0.1-2.6-0.4-3.8
		c-0.2-1.3-0.6-2.5-1.1-3.7c0.1-0.6,0.3-1.1,0.6-1.6c0.3-0.5,0.7-0.9,1.1-1.3c0.5-0.3,1-0.6,1.5-0.8c0.6-0.2,1.1-0.2,1.7-0.1
		c1.7,0.5,3.4,0.8,5.1,1c1.7,0.2,3.4,0.3,5.2,0.3c1.7,0,3.5-0.1,5.2-0.3c1.7-0.2,3.4-0.6,5.1-1l0.7,0l0.7,0.2l0.7,0.2l0.6,0.4
		l0.6,0.4l0.4,0.6l0.4,0.6l0.2,0.7c-0.4,1.3-0.6,2.6-0.8,4c-0.2,1.3-0.3,2.7-0.3,4.1c0,1.4,0.1,2.7,0.3,4.1s0.4,2.7,0.8,4
		c-0.2,0.5-0.4,1-0.7,1.4c-0.3,0.4-0.7,0.8-1.2,1.1c-0.5,0.3-0.9,0.5-1.5,0.6c-0.5,0.1-1.1,0.2-1.6,0.1c-1.7-0.6-3.5-1-5.3-1.4
		c-1.8-0.3-3.6-0.5-5.5-0.5c-1.8,0-3.7,0.1-5.5,0.4s-3.6,0.7-5.3,1.3l-2.4-0.8L148.1,412.2"/>
	<path class="st4" d="M223.2,412.2L223.2,412.2c-0.5-1.2-0.8-2.4-1.1-3.7c-0.2-1.3-0.4-2.6-0.4-3.8c0-1.3,0.1-2.6,0.4-3.8
		c0.2-1.3,0.6-2.5,1.1-3.7c-0.1-0.6-0.3-1.1-0.6-1.6c-0.3-0.5-0.7-0.9-1.1-1.3c-0.5-0.3-1-0.6-1.5-0.8c-0.6-0.2-1.1-0.2-1.7-0.1
		c-1.7,0.5-3.4,0.8-5.1,1c-1.7,0.2-3.4,0.3-5.2,0.3c-1.7,0-3.5-0.1-5.2-0.3c-1.7-0.2-3.4-0.6-5.1-1l-0.7,0l-0.7,0.2l-0.7,0.2
		l-0.6,0.4l-0.6,0.4l-0.4,0.6l-0.4,0.6l-0.2,0.7c0.4,1.3,0.6,2.6,0.8,4c0.2,1.3,0.3,2.7,0.3,4.1c0,1.4-0.1,2.7-0.3,4.1
		c-0.2,1.3-0.4,2.7-0.8,4c0.2,0.5,0.4,1,0.7,1.4c0.3,0.4,0.7,0.8,1.2,1.1c0.5,0.3,0.9,0.5,1.5,0.6c0.5,0.1,1.1,0.2,1.6,0.1
		c1.7-0.6,3.5-1,5.3-1.4c1.8-0.3,3.6-0.5,5.5-0.5c1.8,0,3.7,0.1,5.5,0.4c1.8,0.3,3.6,0.7,5.3,1.3l2.4-0.8L223.2,412.2"/>
	<path class="st4" d="M899.1,249.5"/>
	<path class="st4" d="M899.1,249.7"/>
	<path class="st5" d="M899.1,247.8"/>
	<path class="st5" d="M899.1,249.5"/>
	<path class="st5" d="M899.1,240.3"/>
	<path class="st5" d="M899.1,242"/>
	<path class="st4" d="M899.1,240.1"/>
	<path class="st4" d="M899.1,240.3"/>
	<rect x="367.2" y="147.4" class="st2" width="11.3" height="32.4"/>
	<line class="st4" x1="367.3" y1="147.5" x2="367.3" y2="179.9"/>
	<line class="st4" x1="378.5" y1="147.5" x2="378.5" y2="179.9"/>
	<line class="st4" x1="367.3" y1="179.9" x2="378.5" y2="179.9"/>
	<line class="st4" x1="367.3" y1="147.5" x2="378.5" y2="147.5"/>
	<line class="st4" x1="306.1" y1="314.7" x2="306.1" y2="305.6"/>
	<line class="st4" x1="270.1" y1="314.7" x2="270.1" y2="305.6"/>
	<rect x="304.1" y="305.6" class="st4" width="1.9" height="9.1"/>
	<rect x="270.1" y="305.6" class="st4" width="1.9" height="9.1"/>
	<line class="st4" x1="306.1" y1="314.7" x2="304.1" y2="314.7"/>
	<line class="st4" x1="270.1" y1="314.7" x2="272" y2="314.7"/>
	<line class="st4" x1="306.1" y1="305.6" x2="304.1" y2="305.6"/>
	<line class="st4" x1="270.1" y1="305.6" x2="272" y2="305.6"/>
	<line class="st4" x1="304.1" y1="314.7" x2="304.1" y2="305.6"/>
	<line class="st4" x1="272" y1="314.7" x2="272" y2="305.6"/>
	<line class="st5" x1="367" y1="240.3" x2="367" y2="240.1"/>
	<rect x="367.3" y="189.2" class="st13" width="42.5" height="50.9"/>
	<path class="st13" d="M371.7,231.2c0.6-0.3,1.2-0.5,1.9-0.5c0.7,0,1.3,0.2,1.9,0.5c0.6,0.3,1.1,0.8,1.4,1.3
		c0.3,0.6,0.5,1.1,0.5,1.8c0,0.6-0.2,1.2-0.5,1.8c-0.3,0.6-0.8,1-1.4,1.3c-0.6,0.3-1.2,0.5-1.9,0.5c-0.7,0-1.3-0.2-1.9-0.5
		c-0.6-0.3-1.1-0.8-1.4-1.3s-0.5-1.1-0.5-1.8c0-0.6,0.2-1.2,0.5-1.8C370.6,231.9,371.1,231.5,371.7,231.2"/>
	<path class="st13" d="M372.3,232.1c0.4-0.2,0.9-0.3,1.3-0.3c0.5,0,0.9,0.1,1.3,0.3c0.4,0.2,0.7,0.5,1,0.9c0.2,0.4,0.4,0.8,0.4,1.2
		c0,0.4-0.1,0.9-0.4,1.2c-0.2,0.4-0.6,0.7-1,0.9c-0.4,0.2-0.9,0.3-1.3,0.3c-0.5,0-0.9-0.1-1.3-0.3c-0.4-0.2-0.7-0.5-1-0.9
		c-0.2-0.4-0.4-0.8-0.4-1.2c0-0.4,0.1-0.9,0.4-1.2C371.6,232.6,371.9,232.3,372.3,232.1"/>
	<line class="st13" x1="900.1" y1="364.9" x2="831.9" y2="364.9"/>
	<line class="st13" x1="831.9" y1="364.9" x2="831.9" y2="319.5"/>
	<line class="st13" x1="831.9" y1="319.5" x2="900.1" y2="319.5"/>
	<line class="st13" x1="900.1" y1="364.9" x2="900.1" y2="319.5"/>
	<line class="st13" x1="900.1" y1="364.9" x2="831.9" y2="364.9"/>
	<line class="st13" x1="831.9" y1="364.9" x2="831.9" y2="319.5"/>
	<line class="st13" x1="831.9" y1="319.5" x2="900.1" y2="319.5"/>
	<line class="st13" x1="900.1" y1="364.9" x2="900.1" y2="319.5"/>
	<line class="st13" x1="833.1" y1="364.9" x2="831.9" y2="364.9"/>
	<line class="st13" x1="831.9" y1="364.9" x2="831.9" y2="363.9"/>
	<line class="st13" x1="831.9" y1="363.9" x2="833.1" y2="363.9"/>
	<line class="st13" x1="833.1" y1="364.9" x2="833.1" y2="363.9"/>
	<line class="st13" x1="833.1" y1="364.9" x2="831.9" y2="364.9"/>
	<line class="st13" x1="831.9" y1="364.9" x2="831.9" y2="363.9"/>
	<line class="st13" x1="831.9" y1="363.9" x2="833.1" y2="363.9"/>
	<line class="st13" x1="833.1" y1="364.9" x2="833.1" y2="363.9"/>
	<line class="st13" x1="900.1" y1="364.9" x2="898.9" y2="364.9"/>
	<line class="st13" x1="898.9" y1="364.9" x2="898.9" y2="363.9"/>
	<line class="st13" x1="898.9" y1="363.9" x2="900.1" y2="363.9"/>
	<line class="st13" x1="900.1" y1="364.9" x2="900.1" y2="363.9"/>
	<line class="st13" x1="900.1" y1="364.9" x2="898.9" y2="364.9"/>
	<line class="st13" x1="898.9" y1="364.9" x2="898.9" y2="363.9"/>
	<line class="st13" x1="898.9" y1="363.9" x2="900.1" y2="363.9"/>
	<line class="st13" x1="900.1" y1="364.9" x2="900.1" y2="363.9"/>
	<line class="st13" x1="899.8" y1="320.7" x2="898.9" y2="320.7"/>
	<line class="st13" x1="898.9" y1="320.7" x2="898.9" y2="319.5"/>
	<line class="st13" x1="898.9" y1="319.5" x2="899.8" y2="319.5"/>
	<line class="st13" x1="899.8" y1="320.7" x2="899.8" y2="319.5"/>
	<line class="st13" x1="899.8" y1="320.7" x2="898.9" y2="320.7"/>
	<line class="st13" x1="898.9" y1="320.7" x2="898.9" y2="319.5"/>
	<line class="st13" x1="898.9" y1="319.5" x2="899.8" y2="319.5"/>
	<line class="st13" x1="899.8" y1="320.7" x2="899.8" y2="319.5"/>
	<line class="st13" x1="833.1" y1="320.7" x2="831.9" y2="320.7"/>
	<line class="st13" x1="831.9" y1="320.7" x2="831.9" y2="319.5"/>
	<line class="st13" x1="831.9" y1="319.5" x2="833.1" y2="319.5"/>
	<line class="st13" x1="833.1" y1="320.7" x2="833.1" y2="319.5"/>
	<line class="st13" x1="833.1" y1="320.7" x2="831.9" y2="320.7"/>
	<line class="st13" x1="831.9" y1="320.7" x2="831.9" y2="319.5"/>
	<line class="st13" x1="831.9" y1="319.5" x2="833.1" y2="319.5"/>
	<line class="st13" x1="833.1" y1="320.7" x2="833.1" y2="319.5"/>
	<rect x="853.3" y="306.6" class="st5" width="25.4" height="13"/>
	<rect x="818.9" y="329.6" class="st6" width="13" height="25.4"/>
	<rect x="900.1" y="329.6" class="st6" width="13" height="25.4"/>
	<rect x="853.3" y="364.9" class="st5" width="25.4" height="13"/>
</g>
<g id="Türen">
	<rect x="839.1" y="239.9" class="st13" width="2.9" height="10.1"/>
	<rect x="797.3" y="239.9" class="st13" width="2.9" height="10.1"/>
	<line class="st13" x1="842" y1="239.9" x2="839.1" y2="239.9"/>
	<line class="st13" x1="797.3" y1="239.9" x2="800.2" y2="239.9"/>
	<line class="st13" x1="842" y1="249.9" x2="839.1" y2="249.9"/>
	<line class="st13" x1="797.3" y1="249.9" x2="800.2" y2="249.9"/>
	<line class="st13" x1="839.1" y1="239.9" x2="839.1" y2="249.9"/>
	<line class="st13" x1="800.2" y1="239.9" x2="800.2" y2="249.9"/>
	<path class="st13" d="M839.2,200.9L839.2,200.9c-21.5,0-38.9,17.4-38.9,38.9"/>
	<rect x="836.7" y="201" class="st13" width="2.4" height="38.9"/>
	<rect x="854.5" y="239.9" class="st13" width="2.9" height="10.1"/>
	<rect x="896.2" y="239.9" class="st13" width="2.9" height="10.1"/>
	<line class="st13" x1="854.5" y1="239.9" x2="857.3" y2="239.9"/>
	<line class="st13" x1="899.1" y1="239.9" x2="896.2" y2="239.9"/>
	<line class="st13" x1="854.5" y1="249.9" x2="857.3" y2="249.9"/>
	<line class="st13" x1="899.1" y1="249.9" x2="896.2" y2="249.9"/>
	<line class="st13" x1="857.3" y1="239.9" x2="857.3" y2="249.9"/>
	<line class="st13" x1="896.2" y1="239.9" x2="896.2" y2="249.9"/>
	<path class="st13" d="M896.3,239.8L896.3,239.8c0-21.5-17.4-38.9-38.9-38.9"/>
	<rect x="857.3" y="201" class="st13" width="2.6" height="38.9"/>
	<rect x="611.1" y="239.9" class="st13" width="2.4" height="10.1"/>
	<rect x="653.3" y="239.9" class="st13" width="2.4" height="10.1"/>
	<line class="st13" x1="611.1" y1="239.9" x2="613.5" y2="239.9"/>
	<line class="st13" x1="655.7" y1="239.9" x2="653.3" y2="239.9"/>
	<line class="st13" x1="611.1" y1="249.9" x2="613.5" y2="249.9"/>
	<line class="st13" x1="655.7" y1="249.9" x2="653.3" y2="249.9"/>
	<line class="st13" x1="613.5" y1="239.9" x2="613.5" y2="249.9"/>
	<line class="st13" x1="653.3" y1="239.9" x2="653.3" y2="249.9"/>
	<path class="st13" d="M653.5,239.8L653.5,239.8c0-22.1-17.9-40-40-40"/>
	<rect x="613.5" y="199.8" class="st13" width="2.4" height="40.1"/>
	<rect x="596.5" y="239.9" class="st13" width="2.9" height="10.1"/>
	<rect x="554.7" y="239.9" class="st13" width="2.9" height="10.1"/>
	<line class="st13" x1="599.3" y1="239.9" x2="596.5" y2="239.9"/>
	<line class="st13" x1="554.7" y1="239.9" x2="557.6" y2="239.9"/>
	<line class="st13" x1="599.3" y1="249.9" x2="596.5" y2="249.9"/>
	<line class="st13" x1="554.7" y1="249.9" x2="557.6" y2="249.9"/>
	<line class="st13" x1="596.5" y1="239.9" x2="596.5" y2="249.9"/>
	<line class="st13" x1="557.6" y1="239.9" x2="557.6" y2="249.9"/>
	<path class="st13" d="M596.5,200.9L596.5,200.9c-21.5,0-38.9,17.4-38.9,38.9"/>
	<rect x="594.1" y="201" class="st13" width="2.4" height="38.9"/>
	<rect x="471.9" y="239.9" class="st13" width="2.9" height="10.1"/>
	<rect x="430.1" y="239.9" class="st13" width="2.9" height="10.1"/>
	<line class="st13" x1="474.8" y1="239.9" x2="471.9" y2="239.9"/>
	<line class="st13" x1="430.1" y1="239.9" x2="433" y2="239.9"/>
	<line class="st13" x1="474.8" y1="249.9" x2="471.9" y2="249.9"/>
	<line class="st13" x1="430.1" y1="249.9" x2="433" y2="249.9"/>
	<line class="st13" x1="471.9" y1="239.9" x2="471.9" y2="249.9"/>
	<line class="st13" x1="433" y1="239.9" x2="433" y2="249.9"/>
	<path class="st13" d="M472,200.9L472,200.9c-21.5,0-38.9,17.4-38.9,38.9"/>
	<rect x="469.5" y="201" class="st13" width="2.4" height="38.9"/>
	<rect x="351.4" y="239.9" class="st13" width="2.9" height="10.1"/>
	<rect x="309.7" y="239.9" class="st13" width="2.9" height="10.1"/>
	<line class="st13" x1="354.3" y1="239.9" x2="351.4" y2="239.9"/>
	<line class="st13" x1="309.7" y1="239.9" x2="312.5" y2="239.9"/>
	<line class="st13" x1="354.3" y1="249.9" x2="351.4" y2="249.9"/>
	<line class="st13" x1="309.7" y1="249.9" x2="312.5" y2="249.9"/>
	<line class="st13" x1="351.4" y1="239.9" x2="351.4" y2="249.9"/>
	<line class="st13" x1="312.5" y1="239.9" x2="312.5" y2="249.9"/>
	<path class="st13" d="M351.4,200.9L351.4,200.9c-21.5,0-38.9,17.4-38.9,38.9"/>
	<rect x="348.8" y="201" class="st13" width="2.6" height="38.9"/>
	<line x1="234.2" y1="296.9" x2="234" y2="296.9"/>
	<path class="st4" d="M234.3,297"/>
	<path class="st4" d="M234.1,297"/>
	<path class="st5" d="M234.3,297"/>
	<path class="st13" d="M234.1,297"/>
	<line class="st13" x1="238.9" y1="252.3" x2="243.7" y2="252.3"/>
	<line class="st13" x1="238.9" y1="297" x2="243.7" y2="297"/>
	<line class="st13" x1="238.9" y1="252.3" x2="234.1" y2="252.3"/>
	<line class="st13" x1="238.9" y1="297" x2="234.1" y2="297"/>
	<line class="st13" x1="233.8" y1="297" x2="244.1" y2="297"/>
	<line class="st13" x1="233.8" y1="252.3" x2="244.1" y2="252.3"/>
	<rect x="233.8" y="294.1" class="st13" width="10.3" height="2.9"/>
	<rect x="233.8" y="252.3" class="st13" width="10.3" height="2.9"/>
	<line class="st13" x1="233.8" y1="297" x2="233.8" y2="294.1"/>
	<line class="st13" x1="233.8" y1="252.3" x2="233.8" y2="255.2"/>
	<line class="st13" x1="244.1" y1="297" x2="244.1" y2="294.1"/>
	<line class="st13" x1="244.1" y1="252.3" x2="244.1" y2="255.2"/>
	<line class="st13" x1="233.8" y1="294.1" x2="244.1" y2="294.1"/>
	<line class="st13" x1="233.8" y1="255.2" x2="244.1" y2="255.2"/>
	<path class="st13" d="M233.8,255.2L233.8,255.2c-21.5,0-38.9,17.4-38.9,38.9"/>
	<rect x="194.9" y="291.5" class="st13" width="38.9" height="2.6"/>
	<line class="st14" x1="236.5" y1="261" x2="236.5" y2="261"/>
	<line class="st13" x1="270.1" y1="310.2" x2="270.1" y2="306.3"/>
	<line class="st13" x1="306.1" y1="310.2" x2="306.1" y2="306.3"/>
	<line class="st13" x1="270.1" y1="310.2" x2="270.1" y2="313.8"/>
	<line class="st13" x1="306.1" y1="310.2" x2="306.1" y2="313.8"/>
	<line class="st4" x1="306.1" y1="314.7" x2="306.1" y2="305.6"/>
	<line class="st4" x1="270.1" y1="314.7" x2="270.1" y2="305.6"/>
	<rect x="304.1" y="305.6" class="st4" width="1.9" height="9.1"/>
	<rect x="270.1" y="305.6" class="st4" width="1.9" height="9.1"/>
	<line class="st4" x1="306.1" y1="314.7" x2="304.1" y2="314.7"/>
	<line class="st4" x1="270.1" y1="314.7" x2="272" y2="314.7"/>
	<line class="st4" x1="306.1" y1="305.6" x2="304.1" y2="305.6"/>
	<line class="st4" x1="270.1" y1="305.6" x2="272" y2="305.6"/>
	<line class="st4" x1="304.1" y1="314.7" x2="304.1" y2="305.6"/>
	<line class="st4" x1="272" y1="314.7" x2="272" y2="305.6"/>
	<rect x="301.5" y="314.7" class="st13" width="2.6" height="31.9"/>
	<path class="st13" d="M272,314.7L272,314.7c0,17.7,14.4,32.1,32.1,32.1"/>
	<line class="st13" x1="689.1" y1="310.2" x2="689.1" y2="306.3"/>
	<line class="st13" x1="653.1" y1="310.2" x2="653.1" y2="306.3"/>
	<line class="st13" x1="689.1" y1="310.2" x2="689.1" y2="313.8"/>
	<line class="st13" x1="653.1" y1="310.2" x2="653.1" y2="313.8"/>
	<line class="st4" x1="653.1" y1="314.7" x2="653.1" y2="305.6"/>
	<line class="st4" x1="689.1" y1="314.7" x2="689.1" y2="305.6"/>
	<rect x="653.1" y="305.6" class="st15" width="1.9" height="9.1"/>
	<rect x="687.2" y="305.6" class="st15" width="1.9" height="9.1"/>
	<line class="st4" x1="653.1" y1="314.7" x2="655" y2="314.7"/>
	<line class="st4" x1="689.1" y1="314.7" x2="687.2" y2="314.7"/>
	<line class="st4" x1="653.1" y1="305.6" x2="655" y2="305.6"/>
	<line class="st4" x1="689.1" y1="305.6" x2="687.2" y2="305.6"/>
	<line class="st4" x1="655" y1="314.7" x2="655" y2="305.6"/>
	<line class="st4" x1="687.2" y1="314.7" x2="687.2" y2="305.6"/>
	<g>
		<rect x="655" y="314.7" class="st13" width="2.4" height="31.9"/>
		<path class="st13" d="M655,346.8L655,346.8c17.7,0,32.1-14.4,32.1-32.1"/>
	</g>
</g>
<g id="Beschriftungen">
	<g>
		<g>
			<path d="M105.4,242v-18.2h7.2c1,0,1.8,0.2,2.6,0.7c0.8,0.5,1.4,1.1,1.8,1.9c0.5,0.8,0.7,1.7,0.7,2.8c0,1.1-0.2,2-0.7,2.9
				c-0.5,0.8-1.1,1.5-1.8,2s-1.6,0.7-2.6,0.7h-5.2v7.2H105.4z M107.4,232.9h5.3c0.5,0,1-0.2,1.4-0.5s0.8-0.8,1-1.3s0.4-1.2,0.4-1.9
				c0-0.6-0.1-1.2-0.4-1.7s-0.6-0.9-1-1.2c-0.4-0.3-0.9-0.5-1.4-0.5h-5.3V232.9z"/>
			<path d="M120.7,242v-13.6h1.9l0.1,3.6l-0.2-0.5c0.2-0.6,0.5-1.2,0.9-1.7c0.4-0.5,0.9-0.9,1.5-1.2s1.2-0.5,2-0.5
				c0.3,0,0.6,0,0.8,0.1c0.3,0,0.5,0.1,0.7,0.2l-0.5,2.2c-0.2-0.1-0.5-0.2-0.7-0.2c-0.2,0-0.5-0.1-0.7-0.1c-0.6,0-1.1,0.1-1.6,0.3
				s-0.9,0.5-1.2,0.9c-0.3,0.4-0.6,0.8-0.8,1.3s-0.3,1-0.3,1.6v7.7H120.7z"/>
			<path d="M131.9,225.5c-0.5,0-0.9-0.1-1.1-0.4c-0.3-0.3-0.4-0.6-0.4-1c0-0.4,0.1-0.8,0.4-1c0.3-0.3,0.6-0.4,1.1-0.4
				s0.8,0.1,1.1,0.4c0.3,0.3,0.4,0.6,0.4,1.1c0,0.4-0.1,0.8-0.4,1C132.8,225.4,132.4,225.5,131.9,225.5z M131,242v-13.6h2V242H131z"
				/>
			<path d="M141.4,242l-5.7-13.6h2.2l4.5,11.1l-0.5,0.3l5-11.4h2.1l-6.1,13.6H141.4z"/>
			<path d="M156.5,242.3c-1.2,0-2.2-0.3-3.2-0.9c-1-0.6-1.7-1.5-2.3-2.5s-0.8-2.3-0.8-3.6c0-1.4,0.3-2.6,0.9-3.6
				c0.6-1.1,1.3-1.9,2.3-2.5c1-0.6,2-0.9,3.2-0.9c0.7,0,1.4,0.1,2,0.3c0.6,0.2,1.1,0.5,1.6,0.9c0.5,0.4,0.9,0.8,1.2,1.3
				c0.3,0.5,0.5,1,0.7,1.6l-0.6-0.3l0.1-3.5h1.9V242h-2v-3.3l0.5-0.3c-0.1,0.5-0.4,1-0.7,1.5c-0.3,0.5-0.8,0.9-1.3,1.3
				c-0.5,0.4-1,0.7-1.7,0.9C157.8,242.2,157.1,242.3,156.5,242.3z M156.9,240.4c0.9,0,1.7-0.2,2.4-0.7s1.3-1.1,1.7-1.8
				c0.4-0.8,0.6-1.7,0.6-2.7c0-1-0.2-1.9-0.6-2.7c-0.4-0.8-1-1.4-1.7-1.8s-1.5-0.7-2.4-0.7c-0.9,0-1.7,0.2-2.4,0.7s-1.3,1.1-1.7,1.8
				c-0.4,0.8-0.6,1.7-0.6,2.7c0,1,0.2,1.9,0.6,2.7c0.4,0.8,1,1.4,1.7,1.9C155.2,240.2,156,240.4,156.9,240.4z"/>
			<path d="M166.1,230.3v-1.9h8.5v1.9H166.1z M169.2,242v-17.1h2V242H169.2z"/>
		</g>
	</g>
	<g>
		<g>
			<path d="M638.3,386.6v-18.2h7.2c1,0,1.8,0.2,2.6,0.7c0.8,0.5,1.4,1.1,1.8,1.9c0.5,0.8,0.7,1.7,0.7,2.8c0,1.1-0.2,2-0.7,2.9
				c-0.5,0.8-1.1,1.5-1.8,2s-1.6,0.7-2.6,0.7h-5.2v7.2H638.3z M640.4,377.4h5.3c0.5,0,1-0.2,1.4-0.5c0.4-0.3,0.8-0.8,1-1.3
				s0.4-1.2,0.4-1.9c0-0.6-0.1-1.2-0.4-1.7c-0.3-0.5-0.6-0.9-1-1.2s-0.9-0.5-1.4-0.5h-5.3V377.4z"/>
			<path d="M653.7,386.6V373h1.9l0.1,3.6l-0.2-0.5c0.2-0.6,0.5-1.2,0.9-1.7c0.4-0.5,0.9-0.9,1.5-1.2c0.6-0.3,1.2-0.5,2-0.5
				c0.3,0,0.6,0,0.8,0.1c0.3,0,0.5,0.1,0.7,0.2l-0.5,2.2c-0.2-0.1-0.5-0.2-0.7-0.2c-0.2,0-0.5-0.1-0.7-0.1c-0.6,0-1.1,0.1-1.6,0.3
				s-0.9,0.5-1.2,0.9c-0.3,0.4-0.6,0.8-0.8,1.3s-0.3,1-0.3,1.6v7.7H653.7z"/>
			<path d="M664.9,370.1c-0.5,0-0.9-0.1-1.1-0.4c-0.3-0.3-0.4-0.6-0.4-1c0-0.4,0.1-0.8,0.4-1c0.3-0.3,0.6-0.4,1.1-0.4
				s0.8,0.1,1.1,0.4c0.3,0.3,0.4,0.6,0.4,1.1c0,0.4-0.1,0.8-0.4,1C665.7,369.9,665.4,370.1,664.9,370.1z M663.9,386.6V373h2v13.6
				H663.9z"/>
			<path d="M674.4,386.6l-5.7-13.6h2.2l4.5,11.1l-0.5,0.3l5-11.4h2.1l-6.1,13.6H674.4z"/>
			<path d="M689.5,386.8c-1.2,0-2.2-0.3-3.2-0.9c-1-0.6-1.7-1.5-2.3-2.5c-0.6-1.1-0.8-2.3-0.8-3.6c0-1.4,0.3-2.6,0.9-3.6
				c0.6-1.1,1.3-1.9,2.3-2.5c1-0.6,2-0.9,3.2-0.9c0.7,0,1.4,0.1,2,0.3c0.6,0.2,1.1,0.5,1.6,0.9c0.5,0.4,0.9,0.8,1.2,1.3
				c0.3,0.5,0.5,1,0.7,1.6l-0.6-0.3l0.1-3.5h1.9v13.6h-2v-3.3l0.5-0.3c-0.1,0.5-0.4,1-0.7,1.5c-0.3,0.5-0.8,0.9-1.3,1.3
				c-0.5,0.4-1,0.7-1.7,0.9S690.1,386.8,689.5,386.8z M689.9,384.9c0.9,0,1.7-0.2,2.4-0.7c0.7-0.4,1.3-1.1,1.7-1.8
				c0.4-0.8,0.6-1.7,0.6-2.7s-0.2-1.9-0.6-2.7c-0.4-0.8-1-1.4-1.7-1.8c-0.7-0.5-1.5-0.7-2.4-0.7c-0.9,0-1.7,0.2-2.4,0.7
				c-0.7,0.5-1.3,1.1-1.7,1.8c-0.4,0.8-0.6,1.7-0.6,2.7c0,1,0.2,1.9,0.6,2.7c0.4,0.8,1,1.4,1.7,1.9
				C688.2,384.7,689,384.9,689.9,384.9z"/>
			<path d="M699.1,374.9V373h8.5v1.9H699.1z M702.1,386.6v-17.1h2v17.1H702.1z"/>
		</g>
	</g>
	<g>
		<g>
			<path d="M386.5,129.2V111h7.4c1.1,0,2,0.2,2.7,0.6c0.8,0.4,1.4,0.9,1.8,1.6c0.4,0.7,0.6,1.5,0.6,2.4c0,1-0.3,1.9-0.9,2.6
				c-0.6,0.7-1.4,1.2-2.3,1.5l-0.1-0.5c0.8,0.2,1.6,0.5,2.2,0.9c0.6,0.4,1.1,1,1.5,1.6c0.4,0.6,0.5,1.4,0.5,2.2
				c0,0.8-0.1,1.6-0.4,2.2s-0.7,1.2-1.2,1.7c-0.5,0.5-1.1,0.8-1.8,1.1c-0.7,0.3-1.5,0.4-2.4,0.4H386.5z M388.5,118.8h5.2
				c0.6,0,1.2-0.1,1.7-0.4c0.5-0.3,0.9-0.6,1.1-1s0.4-0.9,0.4-1.5c0-0.9-0.3-1.6-0.9-2.1c-0.6-0.5-1.4-0.8-2.5-0.8h-5V118.8z
				 M388.5,127.2h5.5c0.8,0,1.5-0.1,2-0.4c0.6-0.3,1-0.7,1.4-1.2c0.3-0.5,0.5-1.1,0.5-1.7c0-0.6-0.2-1.2-0.5-1.6s-0.8-0.8-1.4-1.1
				c-0.6-0.3-1.3-0.4-2.1-0.4h-5.3V127.2z"/>
			<path d="M408.5,129.4c-1.2,0-2.2-0.3-3.2-0.9c-1-0.6-1.7-1.5-2.3-2.5s-0.8-2.3-0.8-3.6c0-1.4,0.3-2.6,0.9-3.6
				c0.6-1.1,1.3-1.9,2.3-2.5c1-0.6,2-0.9,3.2-0.9c0.7,0,1.4,0.1,2,0.3c0.6,0.2,1.1,0.5,1.6,0.9c0.5,0.4,0.9,0.8,1.2,1.3
				c0.3,0.5,0.5,1,0.7,1.6l-0.6-0.3l0.1-3.5h1.9v13.6h-2v-3.3l0.5-0.3c-0.1,0.5-0.4,1-0.7,1.5c-0.3,0.5-0.8,0.9-1.3,1.3
				c-0.5,0.4-1,0.7-1.7,0.9C409.8,129.3,409.2,129.4,408.5,129.4z M408.9,127.5c0.9,0,1.7-0.2,2.4-0.7s1.3-1.1,1.7-1.8
				c0.4-0.8,0.6-1.7,0.6-2.7c0-1-0.2-1.9-0.6-2.7c-0.4-0.8-1-1.4-1.7-1.8s-1.5-0.7-2.4-0.7c-0.9,0-1.7,0.2-2.4,0.7s-1.3,1.1-1.7,1.8
				c-0.4,0.8-0.6,1.7-0.6,2.7c0,1,0.2,1.9,0.6,2.7c0.4,0.8,1,1.4,1.7,1.9C407.2,127.3,408,127.5,408.9,127.5z"/>
			<path d="M424.8,129.4c-1.2,0-2.3-0.3-3.3-0.9c-1-0.6-1.8-1.4-2.3-2.5c-0.6-1.1-0.8-2.3-0.8-3.6c0-1.4,0.3-2.6,0.9-3.7
				s1.3-1.9,2.3-2.5c1-0.6,2.1-0.9,3.3-0.9c0.7,0,1.3,0.1,2,0.3s1.2,0.5,1.7,0.9s0.9,0.8,1.2,1.3c0.3,0.5,0.5,1,0.6,1.5l-0.6-0.2
				v-9.1h2v19.2h-1.9l-0.1-3.4l0.5-0.2c-0.1,0.5-0.3,1-0.6,1.4c-0.3,0.5-0.7,0.9-1.2,1.2c-0.5,0.4-1,0.7-1.7,0.9
				C426.1,129.3,425.5,129.4,424.8,129.4z M425.1,127.6c0.9,0,1.7-0.2,2.4-0.7c0.7-0.5,1.3-1.1,1.7-1.9c0.4-0.8,0.6-1.7,0.6-2.7
				c0-1-0.2-1.9-0.6-2.7s-1-1.4-1.7-1.9c-0.7-0.5-1.5-0.7-2.4-0.7c-0.9,0-1.8,0.2-2.5,0.7c-0.7,0.5-1.3,1.1-1.7,1.9
				s-0.6,1.7-0.6,2.7c0,1,0.2,1.9,0.6,2.7c0.4,0.8,1,1.4,1.7,1.9C423.3,127.4,424.2,127.6,425.1,127.6z"/>
			<path d="M447.5,129.4c-1.3,0-2.4-0.3-3.4-0.9s-1.9-1.6-2.7-3l1.7-1c0.5,0.7,0.9,1.3,1.4,1.8c0.5,0.4,1,0.8,1.5,0.9
				c0.5,0.2,1.1,0.3,1.7,0.3c0.7,0,1.4-0.2,2-0.5c0.6-0.4,1.1-0.8,1.5-1.5c0.4-0.6,0.5-1.3,0.5-2.1c0-0.8-0.2-1.5-0.5-2.1
				c-0.3-0.6-0.8-1-1.4-1.4c-0.6-0.3-1.3-0.5-2-0.5c-0.3,0-0.6,0-0.9,0.1c-0.3,0.1-0.7,0.2-1,0.3c-0.4,0.2-0.8,0.4-1.2,0.7l-0.6-1.6
				l6.4-7l0.4,0.8h-8.3V111h9.8l0.5,1l-6.2,6.7l-0.5-0.5c0.2-0.1,0.5-0.3,0.8-0.4c0.3-0.1,0.6-0.1,0.9-0.1c0.8,0,1.5,0.1,2.2,0.4
				c0.7,0.3,1.3,0.7,1.8,1.2c0.5,0.5,0.9,1.1,1.2,1.8s0.4,1.4,0.4,2.3c0,1.1-0.3,2.1-0.8,3.1s-1.3,1.6-2.2,2.2
				C449.7,129.2,448.6,129.4,447.5,129.4z"/>
		</g>
	</g>
	<g>
		<g>
			<path d="M854.3,201.2v-1.6l11.3-15.2l0.4,0.5h-11v-2h12.9v1.5l-11.2,15.2l-0.4-0.5h11.9v2H854.3z"/>
			<path d="M872.9,184.7c-0.5,0-0.9-0.1-1.1-0.4c-0.3-0.3-0.4-0.6-0.4-1c0-0.4,0.1-0.8,0.4-1c0.3-0.3,0.6-0.4,1.1-0.4
				s0.8,0.1,1.1,0.4c0.3,0.3,0.4,0.6,0.4,1.1c0,0.4-0.1,0.8-0.4,1C873.8,184.6,873.4,184.7,872.9,184.7z M872,201.2v-13.6h2v13.6
				H872z"/>
			<path d="M878.2,201.2v-13.6h2l0.1,3.1l-0.4,0.1c0.1-0.5,0.4-1,0.7-1.4c0.3-0.4,0.7-0.8,1.2-1.1c0.5-0.3,0.9-0.5,1.5-0.7
				c0.5-0.2,1.1-0.2,1.7-0.2c0.7,0,1.3,0.1,1.9,0.4c0.6,0.2,1,0.6,1.4,1.2c0.4,0.6,0.7,1.3,0.9,2.2l-0.5-0.2l0.2-0.4
				c0.2-0.4,0.4-0.8,0.8-1.2c0.3-0.4,0.7-0.7,1.2-1c0.4-0.3,0.9-0.5,1.5-0.7c0.5-0.2,1.1-0.2,1.6-0.2c1,0,1.8,0.2,2.4,0.6
				c0.7,0.4,1.2,1,1.5,1.9s0.5,1.9,0.5,3.2v8.2h-2v-8.1c0-0.9-0.1-1.6-0.3-2.2c-0.2-0.6-0.6-1-1-1.3c-0.4-0.3-1-0.4-1.7-0.4
				c-0.6,0-1.1,0.1-1.6,0.3s-0.9,0.5-1.3,0.8c-0.4,0.4-0.6,0.8-0.8,1.2s-0.3,0.9-0.3,1.5v8.2h-2v-8.1c0-0.9-0.1-1.6-0.4-2.2
				c-0.2-0.6-0.6-1-1-1.3c-0.5-0.3-1-0.4-1.7-0.4c-0.6,0-1.1,0.1-1.6,0.3c-0.5,0.2-0.9,0.5-1.3,0.8c-0.4,0.3-0.6,0.7-0.8,1.2
				c-0.2,0.5-0.3,0.9-0.3,1.5v8.2H878.2z"/>
			<path d="M901.9,201.2v-13.6h2l0.1,3.1l-0.4,0.1c0.1-0.5,0.4-1,0.7-1.4c0.3-0.4,0.7-0.8,1.2-1.1c0.5-0.3,0.9-0.5,1.5-0.7
				c0.5-0.2,1.1-0.2,1.7-0.2c0.7,0,1.3,0.1,1.9,0.4c0.6,0.2,1,0.6,1.4,1.2c0.4,0.6,0.7,1.3,0.9,2.2l-0.5-0.2l0.2-0.4
				c0.2-0.4,0.4-0.8,0.8-1.2c0.3-0.4,0.7-0.7,1.2-1c0.4-0.3,0.9-0.5,1.5-0.7c0.5-0.2,1.1-0.2,1.6-0.2c1,0,1.8,0.2,2.4,0.6
				c0.7,0.4,1.2,1,1.5,1.9s0.5,1.9,0.5,3.2v8.2h-2v-8.1c0-0.9-0.1-1.6-0.3-2.2c-0.2-0.6-0.6-1-1-1.3c-0.4-0.3-1-0.4-1.7-0.4
				c-0.6,0-1.1,0.1-1.6,0.3s-0.9,0.5-1.3,0.8c-0.4,0.4-0.6,0.8-0.8,1.2s-0.3,0.9-0.3,1.5v8.2h-2v-8.1c0-0.9-0.1-1.6-0.4-2.2
				c-0.2-0.6-0.6-1-1-1.3c-0.5-0.3-1-0.4-1.7-0.4c-0.6,0-1.1,0.1-1.6,0.3c-0.5,0.2-0.9,0.5-1.3,0.8c-0.4,0.3-0.6,0.7-0.8,1.2
				c-0.2,0.5-0.3,0.9-0.3,1.5v8.2H901.9z"/>
			<path d="M931.6,201.5c-1.4,0-2.6-0.3-3.6-0.9c-1-0.6-1.9-1.4-2.5-2.5c-0.6-1.1-0.9-2.3-0.9-3.6c0-1.1,0.2-2,0.5-2.9
				s0.8-1.6,1.4-2.2c0.6-0.6,1.3-1.1,2.1-1.5c0.8-0.4,1.7-0.5,2.7-0.5c0.9,0,1.8,0.2,2.5,0.5c0.8,0.3,1.4,0.8,2,1.4
				c0.5,0.6,1,1.3,1.2,2.1c0.3,0.8,0.4,1.7,0.4,2.6l0,0.9h-11.3l-0.3-1.6h10.1l-0.5,0.4V193c0-0.6-0.2-1.2-0.5-1.8s-0.8-1.1-1.4-1.4
				c-0.6-0.4-1.3-0.5-2.1-0.5c-1,0-1.8,0.2-2.5,0.6c-0.7,0.4-1.3,1-1.6,1.7c-0.4,0.8-0.6,1.7-0.6,2.8c0,1.1,0.2,2,0.6,2.8
				c0.4,0.8,1,1.4,1.8,1.8s1.7,0.6,2.8,0.6c0.6,0,1.3-0.1,1.9-0.3c0.6-0.2,1.3-0.6,2.1-1.3l1,1.4c-0.4,0.4-0.9,0.8-1.4,1.1
				c-0.6,0.3-1.2,0.5-1.8,0.7C932.9,201.4,932.2,201.5,931.6,201.5z"/>
			<path d="M940.2,201.2v-13.6h1.9l0.1,3.6l-0.2-0.5c0.2-0.6,0.5-1.2,0.9-1.7c0.4-0.5,0.9-0.9,1.5-1.2s1.2-0.5,2-0.5
				c0.3,0,0.6,0,0.8,0.1c0.3,0,0.5,0.1,0.7,0.2l-0.5,2.2c-0.2-0.1-0.5-0.2-0.7-0.2c-0.2,0-0.5-0.1-0.7-0.1c-0.6,0-1.1,0.1-1.6,0.3
				s-0.9,0.5-1.2,0.9c-0.3,0.4-0.6,0.8-0.8,1.3s-0.3,1-0.3,1.6v7.7H940.2z"/>
			<path d="M957.7,201.2l-0.6-1.5l6.1-6.9c0.3-0.3,0.6-0.7,0.9-1.1c0.3-0.4,0.6-0.9,0.9-1.3c0.3-0.5,0.5-0.9,0.7-1.4
				c0.2-0.5,0.3-0.9,0.3-1.3c0-0.6-0.1-1.2-0.4-1.6s-0.7-0.8-1.2-1c-0.5-0.2-1.1-0.4-1.8-0.4c-0.6,0-1.2,0.1-1.7,0.4
				c-0.6,0.3-1.1,0.7-1.6,1.3c-0.5,0.6-0.8,1.3-1.1,2.2l-1.6-1c0.3-1.1,0.8-1.9,1.4-2.7c0.6-0.7,1.3-1.3,2.2-1.6
				c0.8-0.4,1.7-0.5,2.7-0.5c1,0,1.9,0.2,2.7,0.6c0.8,0.4,1.4,1,1.9,1.7c0.5,0.7,0.7,1.6,0.7,2.5c0,0.4,0,0.8-0.1,1.2
				c-0.1,0.4-0.2,0.8-0.4,1.2c-0.2,0.4-0.4,0.8-0.7,1.3c-0.3,0.4-0.6,0.9-0.9,1.3c-0.4,0.5-0.8,0.9-1.2,1.4l-5.2,5.8l-0.3-0.7h9.5v2
				H957.7z"/>
		</g>
	</g>
	<g>
		<g>
			<path d="M733.9,174.3v-1.6l11.3-15.2l0.4,0.5h-11v-2h12.9v1.5l-11.2,15.2l-0.4-0.5h11.9v2H733.9z"/>
			<path d="M752.6,157.8c-0.5,0-0.9-0.1-1.1-0.4c-0.3-0.3-0.4-0.6-0.4-1c0-0.4,0.1-0.8,0.4-1c0.3-0.3,0.6-0.4,1.1-0.4
				s0.8,0.1,1.1,0.4c0.3,0.3,0.4,0.6,0.4,1.1c0,0.4-0.1,0.8-0.4,1C753.4,157.7,753.1,157.8,752.6,157.8z M751.6,174.3v-13.6h2v13.6
				H751.6z"/>
			<path d="M757.8,174.3v-13.6h2l0.1,3.1l-0.4,0.1c0.1-0.5,0.4-1,0.7-1.4c0.3-0.4,0.7-0.8,1.2-1.1c0.5-0.3,0.9-0.5,1.5-0.7
				c0.5-0.2,1.1-0.2,1.7-0.2c0.7,0,1.3,0.1,1.9,0.4c0.6,0.2,1,0.6,1.4,1.2c0.4,0.6,0.7,1.3,0.9,2.2l-0.5-0.2l0.2-0.4
				c0.2-0.4,0.4-0.8,0.8-1.2c0.3-0.4,0.7-0.7,1.2-1c0.4-0.3,0.9-0.5,1.5-0.7c0.5-0.2,1.1-0.2,1.6-0.2c1,0,1.8,0.2,2.4,0.6
				c0.7,0.4,1.2,1,1.5,1.9s0.5,1.9,0.5,3.2v8.2h-2v-8.1c0-0.9-0.1-1.6-0.3-2.2c-0.2-0.6-0.6-1-1-1.3c-0.4-0.3-1-0.4-1.7-0.4
				c-0.6,0-1.1,0.1-1.6,0.3s-0.9,0.5-1.3,0.8c-0.4,0.4-0.6,0.8-0.8,1.2s-0.3,0.9-0.3,1.5v8.2h-2v-8.1c0-0.9-0.1-1.6-0.4-2.2
				c-0.2-0.6-0.6-1-1-1.3c-0.5-0.3-1-0.4-1.7-0.4c-0.6,0-1.1,0.1-1.6,0.3c-0.5,0.2-0.9,0.5-1.3,0.8c-0.4,0.3-0.6,0.7-0.8,1.2
				c-0.2,0.5-0.3,0.9-0.3,1.5v8.2H757.8z"/>
			<path d="M781.5,174.3v-13.6h2l0.1,3.1l-0.4,0.1c0.1-0.5,0.4-1,0.7-1.4c0.3-0.4,0.7-0.8,1.2-1.1c0.5-0.3,0.9-0.5,1.5-0.7
				c0.5-0.2,1.1-0.2,1.7-0.2c0.7,0,1.3,0.1,1.9,0.4c0.6,0.2,1,0.6,1.4,1.2c0.4,0.6,0.7,1.3,0.9,2.2l-0.5-0.2l0.2-0.4
				c0.2-0.4,0.4-0.8,0.8-1.2c0.3-0.4,0.7-0.7,1.2-1c0.4-0.3,0.9-0.5,1.5-0.7c0.5-0.2,1.1-0.2,1.6-0.2c1,0,1.8,0.2,2.4,0.6
				c0.7,0.4,1.2,1,1.5,1.9s0.5,1.9,0.5,3.2v8.2h-2v-8.1c0-0.9-0.1-1.6-0.3-2.2c-0.2-0.6-0.6-1-1-1.3c-0.4-0.3-1-0.4-1.7-0.4
				c-0.6,0-1.1,0.1-1.6,0.3s-0.9,0.5-1.3,0.8c-0.4,0.4-0.6,0.8-0.8,1.2s-0.3,0.9-0.3,1.5v8.2h-2v-8.1c0-0.9-0.1-1.6-0.4-2.2
				c-0.2-0.6-0.6-1-1-1.3c-0.5-0.3-1-0.4-1.7-0.4c-0.6,0-1.1,0.1-1.6,0.3c-0.5,0.2-0.9,0.5-1.3,0.8c-0.4,0.3-0.6,0.7-0.8,1.2
				c-0.2,0.5-0.3,0.9-0.3,1.5v8.2H781.5z"/>
			<path d="M811.2,174.6c-1.4,0-2.6-0.3-3.6-0.9c-1-0.6-1.9-1.4-2.5-2.5c-0.6-1.1-0.9-2.3-0.9-3.6c0-1.1,0.2-2,0.5-2.9
				s0.8-1.6,1.4-2.2c0.6-0.6,1.3-1.1,2.1-1.5c0.8-0.4,1.7-0.5,2.7-0.5c0.9,0,1.8,0.2,2.5,0.5c0.8,0.3,1.4,0.8,2,1.4
				c0.5,0.6,1,1.3,1.2,2.1c0.3,0.8,0.4,1.7,0.4,2.6l0,0.9h-11.3l-0.3-1.6h10.1l-0.5,0.4v-0.6c0-0.6-0.2-1.2-0.5-1.8
				s-0.8-1.1-1.4-1.4c-0.6-0.4-1.3-0.5-2.1-0.5c-1,0-1.8,0.2-2.5,0.6c-0.7,0.4-1.3,1-1.6,1.7c-0.4,0.8-0.6,1.7-0.6,2.8
				c0,1.1,0.2,2,0.6,2.8c0.4,0.8,1,1.4,1.8,1.8s1.7,0.6,2.8,0.6c0.6,0,1.3-0.1,1.9-0.3c0.6-0.2,1.3-0.6,2.1-1.3l1,1.4
				c-0.4,0.4-0.9,0.8-1.4,1.1c-0.6,0.3-1.2,0.5-1.8,0.7C812.6,174.5,811.9,174.6,811.2,174.6z"/>
			<path d="M819.8,174.3v-13.6h1.9l0.1,3.6l-0.2-0.5c0.2-0.6,0.5-1.2,0.9-1.7c0.4-0.5,0.9-0.9,1.5-1.2s1.2-0.5,2-0.5
				c0.3,0,0.6,0,0.8,0.1c0.3,0,0.5,0.1,0.7,0.2l-0.5,2.2c-0.2-0.1-0.5-0.2-0.7-0.2c-0.2,0-0.5-0.1-0.7-0.1c-0.6,0-1.1,0.1-1.6,0.3
				s-0.9,0.5-1.2,0.9c-0.3,0.4-0.6,0.8-0.8,1.3s-0.3,1-0.3,1.6v7.7H819.8z"/>
			<path d="M841.6,174.6c-1.3,0-2.4-0.3-3.4-0.9s-1.9-1.6-2.7-3l1.7-1c0.5,0.7,0.9,1.3,1.4,1.8c0.5,0.4,1,0.8,1.5,0.9
				c0.5,0.2,1.1,0.3,1.7,0.3c0.7,0,1.4-0.2,2-0.5c0.6-0.4,1.1-0.8,1.5-1.5c0.4-0.6,0.5-1.3,0.5-2.1c0-0.8-0.2-1.5-0.5-2.1
				c-0.3-0.6-0.8-1-1.4-1.4c-0.6-0.3-1.3-0.5-2-0.5c-0.3,0-0.6,0-0.9,0.1c-0.3,0.1-0.7,0.2-1,0.3c-0.4,0.2-0.8,0.4-1.2,0.7l-0.6-1.6
				l6.4-7l0.4,0.8h-8.3v-1.9h9.8l0.5,1l-6.2,6.7l-0.5-0.5c0.2-0.1,0.5-0.3,0.8-0.4c0.3-0.1,0.6-0.1,0.9-0.1c0.8,0,1.5,0.1,2.2,0.4
				c0.7,0.3,1.3,0.7,1.8,1.2c0.5,0.5,0.9,1.1,1.2,1.8s0.4,1.4,0.4,2.3c0,1.1-0.3,2.1-0.8,3.1s-1.3,1.6-2.2,2.2
				C843.8,174.3,842.7,174.6,841.6,174.6z"/>
		</g>
	</g>
	<g>
		<g>
			<path d="M616.4,212.4v-1.6l11.3-15.2l0.4,0.5h-11v-2H630v1.5L618.8,211l-0.4-0.5h11.9v2H616.4z"/>
			<path d="M635.1,195.9c-0.5,0-0.9-0.1-1.1-0.4c-0.3-0.3-0.4-0.6-0.4-1c0-0.4,0.1-0.8,0.4-1c0.3-0.3,0.6-0.4,1.1-0.4
				s0.8,0.1,1.1,0.4c0.3,0.3,0.4,0.6,0.4,1.1c0,0.4-0.1,0.8-0.4,1C635.9,195.8,635.6,195.9,635.1,195.9z M634.1,212.4v-13.6h2v13.6
				H634.1z"/>
			<path d="M640.3,212.4v-13.6h2l0.1,3.1l-0.4,0.1c0.1-0.5,0.4-1,0.7-1.4c0.3-0.4,0.7-0.8,1.2-1.1c0.5-0.3,0.9-0.5,1.5-0.7
				c0.5-0.2,1.1-0.2,1.7-0.2c0.7,0,1.3,0.1,1.9,0.4c0.6,0.2,1,0.6,1.4,1.2c0.4,0.6,0.7,1.3,0.9,2.2l-0.5-0.2l0.2-0.4
				c0.2-0.4,0.4-0.8,0.8-1.2c0.3-0.4,0.7-0.7,1.2-1c0.4-0.3,0.9-0.5,1.5-0.7c0.5-0.2,1.1-0.2,1.6-0.2c1,0,1.8,0.2,2.4,0.6
				c0.7,0.4,1.2,1,1.5,1.9s0.5,1.9,0.5,3.2v8.2h-2v-8.1c0-0.9-0.1-1.6-0.3-2.2c-0.2-0.6-0.6-1-1-1.3c-0.4-0.3-1-0.4-1.7-0.4
				c-0.6,0-1.1,0.1-1.6,0.3s-0.9,0.5-1.3,0.8c-0.4,0.4-0.6,0.8-0.8,1.2s-0.3,0.9-0.3,1.5v8.2h-2v-8.1c0-0.9-0.1-1.6-0.4-2.2
				c-0.2-0.6-0.6-1-1-1.3c-0.5-0.3-1-0.4-1.7-0.4c-0.6,0-1.1,0.1-1.6,0.3c-0.5,0.2-0.9,0.5-1.3,0.8c-0.4,0.3-0.6,0.7-0.8,1.2
				c-0.2,0.5-0.3,0.9-0.3,1.5v8.2H640.3z"/>
			<path d="M664,212.4v-13.6h2l0.1,3.1l-0.4,0.1c0.1-0.5,0.4-1,0.7-1.4c0.3-0.4,0.7-0.8,1.2-1.1c0.5-0.3,0.9-0.5,1.5-0.7
				c0.5-0.2,1.1-0.2,1.7-0.2c0.7,0,1.3,0.1,1.9,0.4c0.6,0.2,1,0.6,1.4,1.2c0.4,0.6,0.7,1.3,0.9,2.2l-0.5-0.2l0.2-0.4
				c0.2-0.4,0.4-0.8,0.8-1.2c0.3-0.4,0.7-0.7,1.2-1c0.4-0.3,0.9-0.5,1.5-0.7c0.5-0.2,1.1-0.2,1.6-0.2c1,0,1.8,0.2,2.4,0.6
				c0.7,0.4,1.2,1,1.5,1.9s0.5,1.9,0.5,3.2v8.2h-2v-8.1c0-0.9-0.1-1.6-0.3-2.2c-0.2-0.6-0.6-1-1-1.3c-0.4-0.3-1-0.4-1.7-0.4
				c-0.6,0-1.1,0.1-1.6,0.3s-0.9,0.5-1.3,0.8c-0.4,0.4-0.6,0.8-0.8,1.2s-0.3,0.9-0.3,1.5v8.2h-2v-8.1c0-0.9-0.1-1.6-0.4-2.2
				c-0.2-0.6-0.6-1-1-1.3c-0.5-0.3-1-0.4-1.7-0.4c-0.6,0-1.1,0.1-1.6,0.3c-0.5,0.2-0.9,0.5-1.3,0.8c-0.4,0.3-0.6,0.7-0.8,1.2
				c-0.2,0.5-0.3,0.9-0.3,1.5v8.2H664z"/>
			<path d="M693.7,212.7c-1.4,0-2.6-0.3-3.6-0.9c-1-0.6-1.9-1.4-2.5-2.5c-0.6-1.1-0.9-2.3-0.9-3.6c0-1.1,0.2-2,0.5-2.9
				s0.8-1.6,1.4-2.2c0.6-0.6,1.3-1.1,2.1-1.5c0.8-0.4,1.7-0.5,2.7-0.5c0.9,0,1.8,0.2,2.5,0.5c0.8,0.3,1.4,0.8,2,1.4
				c0.5,0.6,1,1.3,1.2,2.1c0.3,0.8,0.4,1.7,0.4,2.6l0,0.9h-11.3l-0.3-1.6h10.1l-0.5,0.4v-0.6c0-0.6-0.2-1.2-0.5-1.8
				s-0.8-1.1-1.4-1.4c-0.6-0.4-1.3-0.5-2.1-0.5c-1,0-1.8,0.2-2.5,0.6c-0.7,0.4-1.3,1-1.6,1.7c-0.4,0.8-0.6,1.7-0.6,2.8
				c0,1.1,0.2,2,0.6,2.8c0.4,0.8,1,1.4,1.8,1.8s1.7,0.6,2.8,0.6c0.6,0,1.3-0.1,1.9-0.3c0.6-0.2,1.3-0.6,2.1-1.3l1,1.4
				c-0.4,0.4-0.9,0.8-1.4,1.1c-0.6,0.3-1.2,0.5-1.8,0.7C695.1,212.6,694.4,212.7,693.7,212.7z"/>
			<path d="M702.3,212.4v-13.6h1.9l0.1,3.6l-0.2-0.5c0.2-0.6,0.5-1.2,0.9-1.7c0.4-0.5,0.9-0.9,1.5-1.2s1.2-0.5,2-0.5
				c0.3,0,0.6,0,0.8,0.1c0.3,0,0.5,0.1,0.7,0.2l-0.5,2.2c-0.2-0.1-0.5-0.2-0.7-0.2c-0.2,0-0.5-0.1-0.7-0.1c-0.6,0-1.1,0.1-1.6,0.3
				s-0.9,0.5-1.2,0.9c-0.3,0.4-0.6,0.8-0.8,1.3s-0.3,1-0.3,1.6v7.7H702.3z"/>
			<path d="M727.3,212.4v-15.8l0.6,0.2l-7.5,9.2l-0.2-0.5h12.3v1.9h-13.1l-1-1.9l9.3-11.3h1.6v18.2H727.3z"/>
		</g>
	</g>
	<g>
		<g>
			<path d="M487.5,181.3v-1.6l11.3-15.2l0.4,0.5h-11v-2h12.9v1.5l-11.2,15.2l-0.4-0.5h11.9v2H487.5z"/>
			<path d="M506.2,164.8c-0.5,0-0.9-0.1-1.1-0.4c-0.3-0.3-0.4-0.6-0.4-1c0-0.4,0.1-0.8,0.4-1c0.3-0.3,0.6-0.4,1.1-0.4
				s0.8,0.1,1.1,0.4c0.3,0.3,0.4,0.6,0.4,1.1c0,0.4-0.1,0.8-0.4,1C507,164.7,506.6,164.8,506.2,164.8z M505.2,181.3v-13.6h2v13.6
				H505.2z"/>
			<path d="M511.4,181.3v-13.6h2l0.1,3.1L513,171c0.1-0.5,0.4-1,0.7-1.4c0.3-0.4,0.7-0.8,1.2-1.1c0.5-0.3,0.9-0.5,1.5-0.7
				c0.5-0.2,1.1-0.2,1.7-0.2c0.7,0,1.3,0.1,1.9,0.4c0.6,0.2,1,0.6,1.4,1.2c0.4,0.6,0.7,1.3,0.9,2.2l-0.5-0.2l0.2-0.4
				c0.2-0.4,0.4-0.8,0.8-1.2c0.3-0.4,0.7-0.7,1.2-1c0.4-0.3,0.9-0.5,1.5-0.7c0.5-0.2,1.1-0.2,1.6-0.2c1,0,1.8,0.2,2.4,0.6
				c0.7,0.4,1.2,1,1.5,1.9s0.5,1.9,0.5,3.2v8.2h-2v-8.1c0-0.9-0.1-1.6-0.3-2.2c-0.2-0.6-0.6-1-1-1.3c-0.4-0.3-1-0.4-1.7-0.4
				c-0.6,0-1.1,0.1-1.6,0.3s-0.9,0.5-1.3,0.8c-0.4,0.4-0.6,0.8-0.8,1.2s-0.3,0.9-0.3,1.5v8.2h-2v-8.1c0-0.9-0.1-1.6-0.4-2.2
				c-0.2-0.6-0.6-1-1-1.3c-0.5-0.3-1-0.4-1.7-0.4c-0.6,0-1.1,0.1-1.6,0.3c-0.5,0.2-0.9,0.5-1.3,0.8c-0.4,0.3-0.6,0.7-0.8,1.2
				c-0.2,0.5-0.3,0.9-0.3,1.5v8.2H511.4z"/>
			<path d="M535.1,181.3v-13.6h2l0.1,3.1l-0.4,0.1c0.1-0.5,0.4-1,0.7-1.4c0.3-0.4,0.7-0.8,1.2-1.1c0.5-0.3,0.9-0.5,1.5-0.7
				c0.5-0.2,1.1-0.2,1.7-0.2c0.7,0,1.3,0.1,1.9,0.4c0.6,0.2,1,0.6,1.4,1.2c0.4,0.6,0.7,1.3,0.9,2.2l-0.5-0.2l0.2-0.4
				c0.2-0.4,0.4-0.8,0.8-1.2c0.3-0.4,0.7-0.7,1.2-1c0.4-0.3,0.9-0.5,1.5-0.7c0.5-0.2,1.1-0.2,1.6-0.2c1,0,1.8,0.2,2.4,0.6
				c0.7,0.4,1.2,1,1.5,1.9s0.5,1.9,0.5,3.2v8.2h-2v-8.1c0-0.9-0.1-1.6-0.3-2.2c-0.2-0.6-0.6-1-1-1.3c-0.4-0.3-1-0.4-1.7-0.4
				c-0.6,0-1.1,0.1-1.6,0.3s-0.9,0.5-1.3,0.8c-0.4,0.4-0.6,0.8-0.8,1.2s-0.3,0.9-0.3,1.5v8.2h-2v-8.1c0-0.9-0.1-1.6-0.4-2.2
				c-0.2-0.6-0.6-1-1-1.3c-0.5-0.3-1-0.4-1.7-0.4c-0.6,0-1.1,0.1-1.6,0.3c-0.5,0.2-0.9,0.5-1.3,0.8c-0.4,0.3-0.6,0.7-0.8,1.2
				c-0.2,0.5-0.3,0.9-0.3,1.5v8.2H535.1z"/>
			<path d="M564.8,181.6c-1.4,0-2.6-0.3-3.6-0.9c-1-0.6-1.9-1.4-2.5-2.5c-0.6-1.1-0.9-2.3-0.9-3.6c0-1.1,0.2-2,0.5-2.9
				s0.8-1.6,1.4-2.2c0.6-0.6,1.3-1.1,2.1-1.5c0.8-0.4,1.7-0.5,2.7-0.5c0.9,0,1.8,0.2,2.5,0.5c0.8,0.3,1.4,0.8,2,1.4
				c0.5,0.6,1,1.3,1.2,2.1c0.3,0.8,0.4,1.7,0.4,2.6l0,0.9h-11.3l-0.3-1.6h10.1l-0.5,0.4v-0.6c0-0.6-0.2-1.2-0.5-1.8
				s-0.8-1.1-1.4-1.4c-0.6-0.4-1.3-0.5-2.1-0.5c-1,0-1.8,0.2-2.5,0.6c-0.7,0.4-1.3,1-1.6,1.7c-0.4,0.8-0.6,1.7-0.6,2.8
				c0,1.1,0.2,2,0.6,2.8c0.4,0.8,1,1.4,1.8,1.8s1.7,0.6,2.8,0.6c0.6,0,1.3-0.1,1.9-0.3c0.6-0.2,1.3-0.6,2.1-1.3l1,1.4
				c-0.4,0.4-0.9,0.8-1.4,1.1c-0.6,0.3-1.2,0.5-1.8,0.7C566.1,181.5,565.5,181.6,564.8,181.6z"/>
			<path d="M573.4,181.3v-13.6h1.9l0.1,3.6l-0.2-0.5c0.2-0.6,0.5-1.2,0.9-1.7c0.4-0.5,0.9-0.9,1.5-1.2s1.2-0.5,2-0.5
				c0.3,0,0.6,0,0.8,0.1c0.3,0,0.5,0.1,0.7,0.2l-0.5,2.2c-0.2-0.1-0.5-0.2-0.7-0.2c-0.2,0-0.5-0.1-0.7-0.1c-0.6,0-1.1,0.1-1.6,0.3
				s-0.9,0.5-1.2,0.9c-0.3,0.4-0.6,0.8-0.8,1.3s-0.3,1-0.3,1.6v7.7H573.4z"/>
			<path d="M595.2,181.5c-1.2,0-2.3-0.3-3.2-0.8c-1-0.5-1.8-1.3-2.4-2.4l1.2-1.3c0.7,1,1.5,1.6,2.2,2c0.7,0.4,1.5,0.6,2.3,0.6
				c0.8,0,1.6-0.2,2.3-0.6c0.7-0.4,1.2-0.9,1.6-1.6c0.4-0.7,0.6-1.4,0.6-2.2c0-0.8-0.2-1.5-0.5-2.1c-0.4-0.6-0.9-1.1-1.5-1.5
				c-0.6-0.4-1.3-0.6-2.2-0.6c-0.4,0-0.9,0-1.3,0.1s-0.9,0.2-1.3,0.4c-0.5,0.2-0.9,0.4-1.5,0.7l-1.1-1.5l1.1-7.7h9.8v1.9h-8.8
				l0.6-0.5l-1,6.4l-0.6-0.4c0.3-0.2,0.6-0.4,1.1-0.6c0.5-0.2,1-0.4,1.5-0.5c0.6-0.1,1.1-0.2,1.7-0.2c1.1,0,2.1,0.3,3,0.8
				s1.6,1.2,2.1,2.1c0.5,0.9,0.8,1.9,0.8,3.1c0,1.2-0.3,2.3-0.9,3.3c-0.6,1-1.4,1.7-2.3,2.3C597.5,181.2,596.4,181.5,595.2,181.5z"
				/>
		</g>
	</g>
	<g>
		<g>
			<path d="M240.5,201.5v-1.6l11.3-15.2l0.4,0.5h-11v-2h12.9v1.5l-11.2,15.2l-0.4-0.5h11.9v2H240.5z"/>
			<path d="M259.2,185c-0.5,0-0.9-0.1-1.1-0.4c-0.3-0.3-0.4-0.6-0.4-1c0-0.4,0.1-0.8,0.4-1c0.3-0.3,0.6-0.4,1.1-0.4s0.8,0.1,1.1,0.4
				c0.3,0.3,0.4,0.6,0.4,1.1c0,0.4-0.1,0.8-0.4,1C260,184.9,259.7,185,259.2,185z M258.2,201.5v-13.6h2v13.6H258.2z"/>
			<path d="M264.4,201.5v-13.6h2l0.1,3.1l-0.4,0.1c0.1-0.5,0.4-1,0.7-1.4c0.3-0.4,0.7-0.8,1.2-1.1c0.5-0.3,0.9-0.5,1.5-0.7
				c0.5-0.2,1.1-0.2,1.7-0.2c0.7,0,1.3,0.1,1.9,0.4c0.6,0.2,1,0.6,1.4,1.2c0.4,0.6,0.7,1.3,0.9,2.2l-0.5-0.2l0.2-0.4
				c0.2-0.4,0.4-0.8,0.8-1.2c0.3-0.4,0.7-0.7,1.2-1c0.4-0.3,0.9-0.5,1.5-0.7c0.5-0.2,1.1-0.2,1.6-0.2c1,0,1.8,0.2,2.4,0.6
				c0.7,0.4,1.2,1,1.5,1.9s0.5,1.9,0.5,3.2v8.2h-2v-8.1c0-0.9-0.1-1.6-0.3-2.2c-0.2-0.6-0.6-1-1-1.3c-0.4-0.3-1-0.4-1.7-0.4
				c-0.6,0-1.1,0.1-1.6,0.3s-0.9,0.5-1.3,0.8c-0.4,0.4-0.6,0.8-0.8,1.2s-0.3,0.9-0.3,1.5v8.2h-2v-8.1c0-0.9-0.1-1.6-0.4-2.2
				c-0.2-0.6-0.6-1-1-1.3c-0.5-0.3-1-0.4-1.7-0.4c-0.6,0-1.1,0.1-1.6,0.3c-0.5,0.2-0.9,0.5-1.3,0.8c-0.4,0.3-0.6,0.7-0.8,1.2
				c-0.2,0.5-0.3,0.9-0.3,1.5v8.2H264.4z"/>
			<path d="M288.1,201.5v-13.6h2l0.1,3.1l-0.4,0.1c0.1-0.5,0.4-1,0.7-1.4c0.3-0.4,0.7-0.8,1.2-1.1c0.5-0.3,0.9-0.5,1.5-0.7
				c0.5-0.2,1.1-0.2,1.7-0.2c0.7,0,1.3,0.1,1.9,0.4c0.6,0.2,1,0.6,1.4,1.2c0.4,0.6,0.7,1.3,0.9,2.2l-0.5-0.2l0.2-0.4
				c0.2-0.4,0.4-0.8,0.8-1.2c0.3-0.4,0.7-0.7,1.2-1c0.4-0.3,0.9-0.5,1.5-0.7c0.5-0.2,1.1-0.2,1.6-0.2c1,0,1.8,0.2,2.4,0.6
				c0.7,0.4,1.2,1,1.5,1.9s0.5,1.9,0.5,3.2v8.2h-2v-8.1c0-0.9-0.1-1.6-0.3-2.2c-0.2-0.6-0.6-1-1-1.3c-0.4-0.3-1-0.4-1.7-0.4
				c-0.6,0-1.1,0.1-1.6,0.3s-0.9,0.5-1.3,0.8c-0.4,0.4-0.6,0.8-0.8,1.2s-0.3,0.9-0.3,1.5v8.2h-2v-8.1c0-0.9-0.1-1.6-0.4-2.2
				c-0.2-0.6-0.6-1-1-1.3c-0.5-0.3-1-0.4-1.7-0.4c-0.6,0-1.1,0.1-1.6,0.3c-0.5,0.2-0.9,0.5-1.3,0.8c-0.4,0.3-0.6,0.7-0.8,1.2
				c-0.2,0.5-0.3,0.9-0.3,1.5v8.2H288.1z"/>
			<path d="M317.8,201.8c-1.4,0-2.6-0.3-3.6-0.9c-1-0.6-1.9-1.4-2.5-2.5c-0.6-1.1-0.9-2.3-0.9-3.6c0-1.1,0.2-2,0.5-2.9
				s0.8-1.6,1.4-2.2c0.6-0.6,1.3-1.1,2.1-1.5c0.8-0.4,1.7-0.5,2.7-0.5c0.9,0,1.8,0.2,2.5,0.5c0.8,0.3,1.4,0.8,2,1.4
				c0.5,0.6,1,1.3,1.2,2.1c0.3,0.8,0.4,1.7,0.4,2.6l0,0.9h-11.3l-0.3-1.6h10.1l-0.5,0.4v-0.6c0-0.6-0.2-1.2-0.5-1.8
				s-0.8-1.1-1.4-1.4c-0.6-0.4-1.3-0.5-2.1-0.5c-1,0-1.8,0.2-2.5,0.6c-0.7,0.4-1.3,1-1.6,1.7c-0.4,0.8-0.6,1.7-0.6,2.8
				c0,1.1,0.2,2,0.6,2.8c0.4,0.8,1,1.4,1.8,1.8s1.7,0.6,2.8,0.6c0.6,0,1.3-0.1,1.9-0.3c0.6-0.2,1.3-0.6,2.1-1.3l1,1.4
				c-0.4,0.4-0.9,0.8-1.4,1.1c-0.6,0.3-1.2,0.5-1.8,0.7C319.2,201.7,318.5,201.8,317.8,201.8z"/>
			<path d="M326.4,201.5v-13.6h1.9l0.1,3.6l-0.2-0.5c0.2-0.6,0.5-1.2,0.9-1.7c0.4-0.5,0.9-0.9,1.5-1.2s1.2-0.5,2-0.5
				c0.3,0,0.6,0,0.8,0.1c0.3,0,0.5,0.1,0.7,0.2l-0.5,2.2c-0.2-0.1-0.5-0.2-0.7-0.2c-0.2,0-0.5-0.1-0.7-0.1c-0.6,0-1.1,0.1-1.6,0.3
				s-0.9,0.5-1.2,0.9c-0.3,0.4-0.6,0.8-0.8,1.3s-0.3,1-0.3,1.6v7.7H326.4z"/>
			<path d="M349.1,201.6c-0.9,0-1.7-0.2-2.5-0.5s-1.4-0.8-2-1.3s-1-1.3-1.3-2.1c-0.3-0.8-0.5-1.7-0.5-2.6c0-0.5,0.1-0.9,0.2-1.5
				c0.1-0.5,0.3-1.1,0.5-1.8c0.2-0.6,0.5-1.3,0.9-2c0.3-0.7,0.7-1.4,1.2-2.2l2.7-4.5h2l0.1,0.3l-2.9,4.9c-0.4,0.7-0.8,1.4-1.1,2.1
				c-0.3,0.7-0.7,1.4-0.9,2c-0.3,0.7-0.6,1.4-0.9,2.1l-0.4-1.9c0.3-0.6,0.7-1,1.1-1.5c0.4-0.4,0.8-0.8,1.3-1.1
				c0.5-0.3,0.9-0.5,1.4-0.7s1-0.2,1.6-0.2c1.1,0,2,0.3,2.9,0.8c0.9,0.5,1.5,1.3,2.1,2.2c0.5,0.9,0.8,1.9,0.8,3
				c0,1.2-0.3,2.3-0.8,3.3c-0.5,1-1.3,1.7-2.2,2.3C351.3,201.4,350.2,201.6,349.1,201.6z M349,199.7c0.8,0,1.5-0.2,2.1-0.6
				s1.1-0.9,1.5-1.5c0.4-0.6,0.5-1.4,0.5-2.2c0-0.8-0.2-1.5-0.5-2.1c-0.4-0.6-0.9-1.2-1.5-1.6c-0.6-0.4-1.3-0.6-2.1-0.6
				c-0.8,0-1.5,0.2-2.2,0.6s-1.1,0.9-1.5,1.5c-0.4,0.6-0.5,1.4-0.5,2.1c0,0.8,0.2,1.5,0.5,2.2s0.9,1.2,1.5,1.6
				S348.2,199.7,349,199.7z"/>
		</g>
	</g>
	<g>
		<g>
			<path d="M246.7,376.4l-5.5-18.2h2.2l3.5,12c0.1,0.4,0.3,0.8,0.4,1.2c0.1,0.4,0.2,0.7,0.2,1.1c0.1,0.3,0.1,0.7,0.2,1
				c0.1,0.3,0.1,0.7,0.2,1.1l-0.4,0c0.2-0.8,0.4-1.4,0.6-1.9c0.1-0.5,0.3-0.9,0.4-1.2c0.1-0.4,0.3-0.8,0.5-1.2l3.1-7.7h1.9l3.1,7.8
				c0.2,0.5,0.4,0.9,0.5,1.4c0.2,0.4,0.3,0.9,0.5,1.3c0.1,0.5,0.3,1,0.4,1.5l-0.4,0.1c0.1-0.4,0.2-0.8,0.2-1.1
				c0.1-0.3,0.1-0.5,0.2-0.7c0.1-0.2,0.1-0.4,0.2-0.6s0.1-0.5,0.2-0.8c0.1-0.3,0.2-0.7,0.3-1.2l3.5-11.9h2.2l-5.5,18.2h-1.7
				l-4.9-11.7l0.5,0.1l-4.7,11.6H246.7z"/>
			<path d="M272.6,376.7c-1.2,0-2.2-0.3-3.2-0.9s-1.7-1.5-2.3-2.5c-0.6-1.1-0.8-2.3-0.8-3.6c0-1.4,0.3-2.6,0.9-3.6
				c0.6-1.1,1.3-1.9,2.3-2.5c1-0.6,2-0.9,3.2-0.9c0.7,0,1.4,0.1,2,0.3c0.6,0.2,1.1,0.5,1.6,0.9c0.5,0.4,0.9,0.8,1.2,1.3
				c0.3,0.5,0.5,1,0.7,1.6l-0.6-0.3l0.1-3.5h1.9v13.6h-2v-3.3l0.5-0.3c-0.1,0.5-0.4,1-0.7,1.5c-0.3,0.5-0.8,0.9-1.3,1.3
				s-1,0.7-1.7,0.9C273.9,376.6,273.2,376.7,272.6,376.7z M273,374.8c0.9,0,1.7-0.2,2.4-0.7c0.7-0.4,1.3-1.1,1.7-1.8
				c0.4-0.8,0.6-1.7,0.6-2.7c0-1-0.2-1.9-0.6-2.7c-0.4-0.8-1-1.4-1.7-1.8c-0.7-0.5-1.5-0.7-2.4-0.7c-0.9,0-1.7,0.2-2.4,0.7
				c-0.7,0.5-1.3,1.1-1.7,1.8s-0.6,1.7-0.6,2.7c0,1,0.2,1.9,0.6,2.7c0.4,0.8,1,1.4,1.7,1.9C271.3,374.6,272.1,374.8,273,374.8z
				 M270.9,360c-0.5,0-0.9-0.1-1.1-0.4c-0.3-0.3-0.4-0.6-0.4-1s0.1-0.8,0.4-1s0.6-0.4,1.1-0.4s0.8,0.1,1.1,0.4s0.4,0.6,0.4,1.1
				c0,0.4-0.1,0.8-0.4,1C271.7,359.9,271.4,360,270.9,360z M276,360c-0.5,0-0.8-0.1-1.1-0.4c-0.3-0.3-0.4-0.6-0.4-1.1
				c0-0.4,0.1-0.8,0.4-1c0.3-0.3,0.6-0.4,1.1-0.4c0.5,0,0.8,0.1,1.1,0.4c0.3,0.3,0.4,0.6,0.4,1.1c0,0.4-0.1,0.8-0.4,1
				S276.4,360,276,360z"/>
			<path d="M287.8,376.7c-1.2,0-2.2-0.2-3.1-0.7c-0.9-0.4-1.6-1-2.2-1.7l1.4-1.2c0.5,0.6,1.1,1.1,1.8,1.4c0.7,0.3,1.5,0.5,2.3,0.5
				c0.4,0,0.8,0,1.2-0.1c0.3-0.1,0.7-0.2,0.9-0.4c0.3-0.2,0.5-0.4,0.6-0.7s0.2-0.5,0.2-0.9c0-0.6-0.3-1-0.8-1.4
				c-0.2-0.2-0.5-0.3-1-0.5c-0.4-0.2-0.9-0.3-1.5-0.5c-1-0.3-1.8-0.6-2.4-0.8c-0.6-0.3-1.1-0.6-1.5-1c-0.3-0.3-0.5-0.7-0.6-1
				s-0.2-0.8-0.2-1.2c0-0.6,0.1-1.1,0.4-1.5c0.2-0.5,0.6-0.9,1-1.2s0.9-0.6,1.5-0.8c0.6-0.2,1.2-0.3,1.9-0.3c0.6,0,1.3,0.1,1.9,0.3
				c0.6,0.2,1.2,0.4,1.7,0.8c0.5,0.3,1,0.7,1.4,1.2l-1.2,1.3c-0.3-0.3-0.7-0.7-1.1-0.9c-0.4-0.3-0.8-0.5-1.3-0.6
				c-0.4-0.2-0.9-0.2-1.4-0.2c-0.4,0-0.8,0.1-1.2,0.2c-0.4,0.1-0.7,0.2-0.9,0.4c-0.3,0.2-0.4,0.4-0.6,0.7s-0.2,0.5-0.2,0.9
				c0,0.3,0.1,0.5,0.2,0.7c0.1,0.2,0.3,0.4,0.4,0.5c0.2,0.2,0.6,0.4,1,0.5c0.4,0.2,1,0.3,1.7,0.5c0.8,0.2,1.4,0.4,1.9,0.6
				c0.5,0.2,1,0.5,1.3,0.8c0.5,0.3,0.8,0.7,1,1.2c0.2,0.5,0.3,1,0.3,1.5c0,0.8-0.2,1.4-0.6,2c-0.4,0.6-1,1.1-1.8,1.4
				S288.8,376.7,287.8,376.7z"/>
			<path d="M301.6,376.7c-1.3,0-2.4-0.3-3.4-0.9c-1-0.6-1.8-1.5-2.4-2.5c-0.6-1.1-0.9-2.3-0.9-3.6c0-1.4,0.3-2.6,0.9-3.6
				c0.6-1.1,1.4-1.9,2.4-2.5c1-0.6,2.2-0.9,3.5-0.9c1.2,0,2.2,0.2,3.2,0.7c1,0.5,1.7,1.1,2.3,1.9l-1.1,1.4c-0.3-0.4-0.7-0.8-1.2-1.1
				c-0.5-0.3-1-0.6-1.5-0.8c-0.5-0.2-1.1-0.3-1.6-0.3c-0.9,0-1.7,0.2-2.5,0.7c-0.7,0.5-1.3,1.1-1.7,1.9c-0.4,0.8-0.6,1.7-0.6,2.7
				c0,1,0.2,1.9,0.6,2.7c0.4,0.8,1,1.4,1.7,1.9c0.7,0.5,1.5,0.7,2.4,0.7c0.5,0,1-0.1,1.5-0.2c0.5-0.2,1-0.4,1.4-0.7
				c0.5-0.3,0.9-0.7,1.2-1.2l1.1,1.4c-0.6,0.8-1.4,1.4-2.4,1.9C303.6,376.4,302.6,376.7,301.6,376.7z"/>
			<path d="M309.5,376.4v-19.2h1.9v8.6l-0.4,0.4c0.2-0.7,0.5-1.3,1.1-1.9c0.5-0.5,1.1-1,1.8-1.3c0.7-0.3,1.4-0.5,2.1-0.5
				c1,0,1.9,0.2,2.6,0.6c0.7,0.4,1.2,1,1.5,1.8c0.3,0.8,0.5,1.9,0.5,3.2v8.2h-2v-8.1c0-0.9-0.1-1.6-0.4-2.2c-0.2-0.6-0.6-1-1.1-1.3
				s-1.1-0.4-1.8-0.4c-0.6,0-1.1,0.1-1.6,0.3c-0.5,0.2-0.9,0.5-1.3,0.8c-0.4,0.3-0.6,0.7-0.9,1.2c-0.2,0.5-0.3,0.9-0.3,1.5v8.3h-1
				c-0.1,0-0.3,0-0.4,0C309.9,376.4,309.7,376.4,309.5,376.4z"/>
			<path d="M330.5,376.7c-1.4,0-2.6-0.3-3.6-0.9c-1-0.6-1.9-1.4-2.5-2.5c-0.6-1.1-0.9-2.3-0.9-3.6c0-1.1,0.2-2,0.5-2.9
				c0.3-0.9,0.8-1.6,1.4-2.2c0.6-0.6,1.3-1.1,2.1-1.5c0.8-0.4,1.7-0.5,2.7-0.5c0.9,0,1.8,0.2,2.5,0.5c0.8,0.3,1.4,0.8,2,1.4
				c0.5,0.6,1,1.3,1.2,2.1c0.3,0.8,0.4,1.7,0.4,2.6l0,0.9H325l-0.3-1.6h10.1l-0.5,0.4v-0.6c0-0.6-0.2-1.2-0.5-1.8
				c-0.3-0.6-0.8-1.1-1.4-1.4c-0.6-0.4-1.3-0.5-2.1-0.5c-1,0-1.8,0.2-2.5,0.6c-0.7,0.4-1.3,1-1.6,1.7s-0.6,1.7-0.6,2.8
				c0,1.1,0.2,2,0.6,2.8c0.4,0.8,1,1.4,1.8,1.8c0.8,0.4,1.7,0.7,2.8,0.7c0.6,0,1.3-0.1,1.9-0.3s1.3-0.6,2.1-1.3l1,1.4
				c-0.4,0.4-0.9,0.8-1.4,1.1c-0.6,0.3-1.2,0.5-1.8,0.7C331.8,376.6,331.2,376.7,330.5,376.7z"/>
		</g>
	</g>
</g>
</svg>
